<mxfile host="app.diagrams.net" modified="2024-01-08T12:34:05.431Z" agent="Mozilla/5.0 (Windows NT 10.0; Win64; x64) AppleWebKit/537.36 (KHTML, like Gecko) Chrome/120.0.0.0 Safari/537.36" etag="Yo1tjpfdl36ILbd4UuYr" version="22.1.16" type="github">
  <diagram name="Page-1" id="aaaa8250-4180-3840-79b5-4cada1eebb92">
    <mxGraphModel dx="2390" dy="1363" grid="1" gridSize="10" guides="1" tooltips="1" connect="1" arrows="1" fold="1" page="1" pageScale="1" pageWidth="2500" pageHeight="1200" background="none" math="0" shadow="0">
      <root>
        <mxCell id="0" />
        <mxCell id="1" parent="0" />
        <mxCell id="L3lj_wClFnJjA9AVwsPd-24" value="" style="verticalLabelPosition=bottom;html=1;verticalAlign=top;strokeWidth=1;dashed=0;shape=mxgraph.aws3d.flatDoubleEdge;fillColor=#000000;aspect=fixed;rounded=1;shadow=0;comic=0;fontFamily=Verdana;fontSize=12;flipV=1;" parent="1" vertex="1">
          <mxGeometry x="300" y="446.68" width="850" height="484.68" as="geometry" />
        </mxCell>
        <mxCell id="L3lj_wClFnJjA9AVwsPd-4" value="" style="verticalLabelPosition=bottom;html=1;verticalAlign=top;strokeWidth=1;align=center;outlineConnect=0;dashed=0;outlineConnect=0;shape=mxgraph.aws3d.end_user;strokeColor=none;fillColor=#777777;aspect=fixed;" parent="1" vertex="1">
          <mxGeometry x="140" y="946" width="49" height="100.46" as="geometry" />
        </mxCell>
        <mxCell id="L3lj_wClFnJjA9AVwsPd-9" value="" style="verticalLabelPosition=bottom;html=1;verticalAlign=top;strokeWidth=1;align=center;outlineConnect=0;dashed=0;outlineConnect=0;shape=mxgraph.aws3d.s3Bucket;fillColor=#4286c5;strokeColor=#57A2D8;aspect=fixed;" parent="1" vertex="1">
          <mxGeometry x="474.13" y="503" width="68.74" height="71.31" as="geometry" />
        </mxCell>
        <mxCell id="L3lj_wClFnJjA9AVwsPd-19" value="" style="verticalLabelPosition=bottom;html=1;verticalAlign=top;strokeWidth=1;align=center;outlineConnect=0;dashed=0;outlineConnect=0;shape=mxgraph.aws3d.secureConnection;fillColor=#000000;strokeColor=#ffffff;aspect=fixed;" parent="1" vertex="1">
          <mxGeometry x="480" y="796" width="56.99999999999999" height="34" as="geometry" />
        </mxCell>
        <mxCell id="L3lj_wClFnJjA9AVwsPd-20" value="&lt;b style=&quot;&quot;&gt;&lt;font color=&quot;#33001a&quot;&gt;Load balancer&lt;/font&gt;&lt;/b&gt;" style="verticalLabelPosition=bottom;html=1;verticalAlign=top;strokeWidth=1;align=center;outlineConnect=0;dashed=0;outlineConnect=0;shape=mxgraph.aws3d.internetGateway;fillColor=#ECECEC;strokeColor=#5E5E5E;aspect=fixed;" parent="1" vertex="1">
          <mxGeometry x="520" y="703.2" width="116.7" height="102.8" as="geometry" />
        </mxCell>
        <mxCell id="L3lj_wClFnJjA9AVwsPd-21" value="" style="verticalLabelPosition=bottom;html=1;verticalAlign=top;strokeWidth=1;align=center;outlineConnect=0;dashed=0;outlineConnect=0;shape=mxgraph.aws3d.arrowNE;fillColor=#000000;aspect=fixed;" parent="1" vertex="1">
          <mxGeometry x="800" y="526" width="200.23" height="114.42" as="geometry" />
        </mxCell>
        <mxCell id="L3lj_wClFnJjA9AVwsPd-25" value="" style="verticalLabelPosition=bottom;html=1;verticalAlign=top;strokeWidth=1;align=center;outlineConnect=0;dashed=0;outlineConnect=0;shape=mxgraph.aws3d.arrowNE;fillColor=#000000;aspect=fixed;" parent="1" vertex="1">
          <mxGeometry x="189" y="916" width="143.6" height="82.05" as="geometry" />
        </mxCell>
        <mxCell id="L3lj_wClFnJjA9AVwsPd-31" value="" style="verticalLabelPosition=bottom;html=1;verticalAlign=top;strokeWidth=1;align=center;outlineConnect=0;dashed=0;outlineConnect=0;shape=mxgraph.aws3d.arrowNE;fillColor=#000000;aspect=fixed;" parent="1" vertex="1">
          <mxGeometry x="930" y="326" width="100.74" height="57.56" as="geometry" />
        </mxCell>
        <mxCell id="L3lj_wClFnJjA9AVwsPd-33" value="" style="verticalLabelPosition=bottom;html=1;verticalAlign=top;strokeWidth=1;align=center;outlineConnect=0;dashed=0;outlineConnect=0;shape=mxgraph.aws3d.arrowNE;fillColor=#000000;aspect=fixed;" parent="1" vertex="1">
          <mxGeometry x="1233" y="513" width="90" height="51.42" as="geometry" />
        </mxCell>
        <mxCell id="L3lj_wClFnJjA9AVwsPd-34" value="" style="verticalLabelPosition=bottom;html=1;verticalAlign=top;strokeWidth=1;align=center;outlineConnect=0;dashed=0;outlineConnect=0;shape=mxgraph.aws3d.arrowNE;fillColor=#000000;aspect=fixed;" parent="1" vertex="1">
          <mxGeometry x="1090" y="426" width="88.34" height="50.47" as="geometry" />
        </mxCell>
        <mxCell id="L3lj_wClFnJjA9AVwsPd-43" value="" style="group" parent="1" vertex="1" connectable="0">
          <mxGeometry x="760" y="323.2" width="600" height="332.00000000000006" as="geometry" />
        </mxCell>
        <mxCell id="L3lj_wClFnJjA9AVwsPd-35" value="" style="verticalLabelPosition=bottom;html=1;verticalAlign=top;strokeWidth=1;dashed=0;shape=mxgraph.aws3d.dashedArrowlessEdge;aspect=fixed;rounded=1;shadow=0;comic=0;fontFamily=Verdana;fontSize=12" parent="L3lj_wClFnJjA9AVwsPd-43" vertex="1">
          <mxGeometry x="103.62" width="473.82" height="270" as="geometry" />
        </mxCell>
        <mxCell id="L3lj_wClFnJjA9AVwsPd-36" value="" style="verticalLabelPosition=bottom;html=1;verticalAlign=top;strokeWidth=1;dashed=0;shape=mxgraph.aws3d.dashedArrowlessEdge;aspect=fixed;rounded=1;shadow=0;comic=0;fontFamily=Verdana;fontSize=12" parent="L3lj_wClFnJjA9AVwsPd-43" vertex="1">
          <mxGeometry x="10" y="71.78000000000003" width="456.67" height="260.22" as="geometry" />
        </mxCell>
        <mxCell id="L3lj_wClFnJjA9AVwsPd-37" value="" style="verticalLabelPosition=bottom;html=1;verticalAlign=top;strokeWidth=1;dashed=0;shape=mxgraph.aws3d.dashedArrowlessEdge;fillColor=#000000;aspect=fixed;rounded=1;shadow=0;comic=0;fontFamily=Verdana;fontSize=12;fontColor=#000000;flipV=1;" parent="L3lj_wClFnJjA9AVwsPd-43" vertex="1">
          <mxGeometry y="5.684341886080802e-14" width="110" height="62.54" as="geometry" />
        </mxCell>
        <mxCell id="L3lj_wClFnJjA9AVwsPd-38" value="" style="verticalLabelPosition=bottom;html=1;verticalAlign=top;strokeWidth=1;dashed=0;shape=mxgraph.aws3d.dashedArrowlessEdge;aspect=fixed;rounded=1;shadow=0;comic=0;fontFamily=Verdana;fontSize=12;flipV=1;" parent="L3lj_wClFnJjA9AVwsPd-43" vertex="1">
          <mxGeometry x="463.6399999999999" y="270.00000000000006" width="108.72" height="62" as="geometry" />
        </mxCell>
        <mxCell id="L3lj_wClFnJjA9AVwsPd-69" value="&lt;b&gt;AWS SQS&lt;/b&gt;" style="text;strokeColor=none;fillColor=none;align=left;verticalAlign=middle;spacingLeft=4;spacingRight=4;overflow=hidden;points=[[0,0.5],[1,0.5]];portConstraint=eastwest;rotatable=0;whiteSpace=wrap;html=1;" parent="L3lj_wClFnJjA9AVwsPd-43" vertex="1">
          <mxGeometry x="520" y="302.00000000000006" width="80" height="30" as="geometry" />
        </mxCell>
        <mxCell id="L3lj_wClFnJjA9AVwsPd-72" value="&lt;b&gt;Challenge based Workers&lt;/b&gt;" style="text;strokeColor=none;fillColor=none;align=left;verticalAlign=middle;spacingLeft=4;spacingRight=4;overflow=hidden;points=[[0,0.5],[1,0.5]];portConstraint=eastwest;rotatable=0;whiteSpace=wrap;html=1;" parent="L3lj_wClFnJjA9AVwsPd-43" vertex="1">
          <mxGeometry x="257" y="-14.2" width="160" height="70" as="geometry" />
        </mxCell>
        <mxCell id="L3lj_wClFnJjA9AVwsPd-47" value="" style="group" parent="1" vertex="1" connectable="0">
          <mxGeometry x="770" y="666" width="310.47" height="200" as="geometry" />
        </mxCell>
        <mxCell id="L3lj_wClFnJjA9AVwsPd-11" value="" style="verticalLabelPosition=bottom;html=1;verticalAlign=top;strokeWidth=1;align=center;outlineConnect=0;dashed=0;outlineConnect=0;shape=mxgraph.aws3d.rdsMaster;fillColor=#ECECEC;strokeColor=#5E5E5E;aspect=fixed;" parent="L3lj_wClFnJjA9AVwsPd-47" vertex="1">
          <mxGeometry x="110" y="50" width="83.23" height="90" as="geometry" />
        </mxCell>
        <mxCell id="L3lj_wClFnJjA9AVwsPd-12" value="" style="verticalLabelPosition=bottom;html=1;verticalAlign=top;strokeWidth=1;align=center;outlineConnect=0;dashed=0;outlineConnect=0;shape=mxgraph.aws3d.rdsSlave;fillColor=#ECECEC;strokeColor=#5E5E5E;aspect=fixed;" parent="L3lj_wClFnJjA9AVwsPd-47" vertex="1">
          <mxGeometry y="120" width="73.98" height="80" as="geometry" />
        </mxCell>
        <mxCell id="L3lj_wClFnJjA9AVwsPd-10" value="" style="verticalLabelPosition=bottom;html=1;verticalAlign=top;strokeWidth=1;align=center;outlineConnect=0;dashed=0;outlineConnect=0;shape=mxgraph.aws3d.rdsSlave;fillColor=#ECECEC;strokeColor=#5E5E5E;aspect=fixed;" parent="L3lj_wClFnJjA9AVwsPd-47" vertex="1">
          <mxGeometry x="236.49" width="73.98" height="80" as="geometry" />
        </mxCell>
        <mxCell id="L3lj_wClFnJjA9AVwsPd-50" value="" style="verticalLabelPosition=bottom;html=1;verticalAlign=top;strokeWidth=1;align=center;outlineConnect=0;dashed=0;outlineConnect=0;shape=mxgraph.aws3d.arrowSE;fillColor=#000000;aspect=fixed;" parent="L3lj_wClFnJjA9AVwsPd-47" vertex="1">
          <mxGeometry x="10" y="28" width="91" height="52" as="geometry" />
        </mxCell>
        <mxCell id="L3lj_wClFnJjA9AVwsPd-48" value="" style="group" parent="1" vertex="1" connectable="0">
          <mxGeometry x="856.74" y="346.68" width="379.75" height="279.32" as="geometry" />
        </mxCell>
        <mxCell id="L3lj_wClFnJjA9AVwsPd-5" value="" style="verticalLabelPosition=bottom;html=1;verticalAlign=top;strokeWidth=1;align=center;outlineConnect=0;dashed=0;outlineConnect=0;shape=mxgraph.aws3d.sqs;fillColor=#ECECEC;strokeColor=#5E5E5E;aspect=fixed;" parent="L3lj_wClFnJjA9AVwsPd-48" vertex="1">
          <mxGeometry width="86.49" height="100" as="geometry" />
        </mxCell>
        <mxCell id="L3lj_wClFnJjA9AVwsPd-6" value="" style="verticalLabelPosition=bottom;html=1;verticalAlign=top;strokeWidth=1;align=center;outlineConnect=0;dashed=0;outlineConnect=0;shape=mxgraph.aws3d.sqs;fillColor=#ECECEC;strokeColor=#5E5E5E;aspect=fixed;" parent="L3lj_wClFnJjA9AVwsPd-48" vertex="1">
          <mxGeometry x="143.49" y="89.32" width="86.49" height="100" as="geometry" />
        </mxCell>
        <mxCell id="L3lj_wClFnJjA9AVwsPd-7" value="" style="verticalLabelPosition=bottom;html=1;verticalAlign=top;strokeWidth=1;align=center;outlineConnect=0;dashed=0;outlineConnect=0;shape=mxgraph.aws3d.sqs;fillColor=#ECECEC;strokeColor=#5E5E5E;aspect=fixed;" parent="L3lj_wClFnJjA9AVwsPd-48" vertex="1">
          <mxGeometry x="293.26" y="179.32" width="86.49" height="100" as="geometry" />
        </mxCell>
        <mxCell id="L3lj_wClFnJjA9AVwsPd-51" value="" style="verticalLabelPosition=bottom;html=1;verticalAlign=top;strokeWidth=1;align=center;outlineConnect=0;dashed=0;outlineConnect=0;shape=mxgraph.aws3d.arrowNE;fillColor=#000000;aspect=fixed;" parent="1" vertex="1">
          <mxGeometry x="644.03" y="686" width="71.47" height="40.84" as="geometry" />
        </mxCell>
        <mxCell id="L3lj_wClFnJjA9AVwsPd-52" value="" style="verticalLabelPosition=bottom;html=1;verticalAlign=top;strokeWidth=1;align=center;outlineConnect=0;dashed=0;outlineConnect=0;shape=mxgraph.aws3d.arrowNW;fillColor=#000000;aspect=fixed;" parent="1" vertex="1">
          <mxGeometry x="550" y="576.34" width="155.5" height="88.86" as="geometry" />
        </mxCell>
        <mxCell id="L3lj_wClFnJjA9AVwsPd-46" value="" style="group" parent="1" vertex="1" connectable="0">
          <mxGeometry x="715.5" y="655.2" width="418.0899999999999" height="240" as="geometry" />
        </mxCell>
        <mxCell id="L3lj_wClFnJjA9AVwsPd-39" value="" style="verticalLabelPosition=bottom;html=1;verticalAlign=top;strokeWidth=1;dashed=0;shape=mxgraph.aws3d.dashedArrowlessEdge;aspect=fixed;rounded=1;shadow=0;comic=0;fontFamily=Verdana;fontSize=12" parent="L3lj_wClFnJjA9AVwsPd-46" vertex="1">
          <mxGeometry x="332.30999999999995" y="3.3999999999999773" width="81.78" height="46.6" as="geometry" />
        </mxCell>
        <mxCell id="L3lj_wClFnJjA9AVwsPd-40" value="" style="verticalLabelPosition=bottom;html=1;verticalAlign=top;strokeWidth=1;dashed=0;shape=mxgraph.aws3d.dashedArrowlessEdge;aspect=fixed;rounded=1;shadow=0;comic=0;fontFamily=Verdana;fontSize=12" parent="L3lj_wClFnJjA9AVwsPd-46" vertex="1">
          <mxGeometry y="189.27999999999997" width="89.02" height="50.72" as="geometry" />
        </mxCell>
        <mxCell id="L3lj_wClFnJjA9AVwsPd-41" value="" style="verticalLabelPosition=bottom;html=1;verticalAlign=top;strokeWidth=1;dashed=0;shape=mxgraph.aws3d.dashedArrowlessEdge;fillColor=#000000;aspect=fixed;rounded=1;shadow=0;comic=0;fontFamily=Verdana;fontSize=12;fontColor=#000000;flipV=1;" parent="L3lj_wClFnJjA9AVwsPd-46" vertex="1">
          <mxGeometry width="328.2" height="186.59" as="geometry" />
        </mxCell>
        <mxCell id="L3lj_wClFnJjA9AVwsPd-42" value="" style="verticalLabelPosition=bottom;html=1;verticalAlign=top;strokeWidth=1;dashed=0;shape=mxgraph.aws3d.dashedArrowlessEdge;aspect=fixed;rounded=1;shadow=0;comic=0;fontFamily=Verdana;fontSize=12;flipV=1;" parent="L3lj_wClFnJjA9AVwsPd-46" vertex="1">
          <mxGeometry x="94" y="52" width="324.09" height="184.82" as="geometry" />
        </mxCell>
        <mxCell id="L3lj_wClFnJjA9AVwsPd-59" value="&lt;b&gt;RDS&lt;/b&gt;" style="text;strokeColor=none;fillColor=none;align=left;verticalAlign=middle;spacingLeft=4;spacingRight=4;overflow=hidden;points=[[0,0.5],[1,0.5]];portConstraint=eastwest;rotatable=0;whiteSpace=wrap;html=1;" parent="L3lj_wClFnJjA9AVwsPd-46" vertex="1">
          <mxGeometry x="254.5" y="150.79999999999995" width="80" height="30" as="geometry" />
        </mxCell>
        <mxCell id="L3lj_wClFnJjA9AVwsPd-15" value="" style="verticalLabelPosition=bottom;html=1;verticalAlign=top;strokeWidth=1;align=center;outlineConnect=0;dashed=0;outlineConnect=0;shape=mxgraph.aws3d.application;fillColor=#4286c5;strokeColor=#57A2D8;aspect=fixed;" parent="1" vertex="1">
          <mxGeometry x="700" y="593.2" width="99.13" height="110" as="geometry" />
        </mxCell>
        <mxCell id="L3lj_wClFnJjA9AVwsPd-60" value="&lt;b&gt;SES&lt;/b&gt;" style="text;strokeColor=none;fillColor=none;align=left;verticalAlign=middle;spacingLeft=4;spacingRight=4;overflow=hidden;points=[[0,0.5],[1,0.5]];portConstraint=eastwest;rotatable=0;whiteSpace=wrap;html=1;" parent="1" vertex="1">
          <mxGeometry x="417.75" y="610.42" width="80" height="30" as="geometry" />
        </mxCell>
        <mxCell id="L3lj_wClFnJjA9AVwsPd-61" value="&lt;b&gt;S3 BUCKET&lt;/b&gt;" style="text;strokeColor=none;fillColor=none;align=left;verticalAlign=middle;spacingLeft=4;spacingRight=4;overflow=hidden;points=[[0,0.5],[1,0.5]];portConstraint=eastwest;rotatable=0;whiteSpace=wrap;html=1;" parent="1" vertex="1">
          <mxGeometry x="468.5" y="570.9999999999999" width="80" height="30" as="geometry" />
        </mxCell>
        <mxCell id="L3lj_wClFnJjA9AVwsPd-62" value="&lt;b&gt;&lt;font color=&quot;#ffffff&quot;&gt;Auto Scale Django&lt;/font&gt;&lt;br&gt;&lt;/b&gt;" style="text;strokeColor=none;fillColor=none;align=left;verticalAlign=middle;spacingLeft=4;spacingRight=4;overflow=hidden;points=[[0,0.5],[1,0.5]];portConstraint=eastwest;rotatable=0;whiteSpace=wrap;html=1;" parent="1" vertex="1">
          <mxGeometry x="690" y="626" width="130" height="30" as="geometry" />
        </mxCell>
        <mxCell id="L3lj_wClFnJjA9AVwsPd-70" value="&lt;b&gt;Challenge based Workers&lt;/b&gt;" style="text;strokeColor=none;fillColor=none;align=left;verticalAlign=middle;spacingLeft=4;spacingRight=4;overflow=hidden;points=[[0,0.5],[1,0.5]];portConstraint=eastwest;rotatable=0;whiteSpace=wrap;html=1;" parent="1" vertex="1">
          <mxGeometry x="1302" y="503" width="166" height="58.42" as="geometry" />
        </mxCell>
        <mxCell id="L3lj_wClFnJjA9AVwsPd-73" value="" style="verticalLabelPosition=bottom;html=1;verticalAlign=top;strokeWidth=1;align=center;outlineConnect=0;dashed=0;outlineConnect=0;shape=mxgraph.aws3d.secureConnection;fillColor=#000000;strokeColor=#ffffff;aspect=fixed;" parent="1" vertex="1">
          <mxGeometry x="320" y="882" width="56.99999999999999" height="34" as="geometry" />
        </mxCell>
        <mxCell id="L3lj_wClFnJjA9AVwsPd-79" value="" style="verticalLabelPosition=bottom;html=1;verticalAlign=top;strokeWidth=1;align=center;outlineConnect=0;dashed=0;outlineConnect=0;shape=mxgraph.aws3d.arrowNE;fillColor=#000000;aspect=fixed;" parent="1" vertex="1">
          <mxGeometry x="430" y="819" width="55.5" height="31.71" as="geometry" />
        </mxCell>
        <mxCell id="L3lj_wClFnJjA9AVwsPd-74" value="&lt;b&gt;&lt;font color=&quot;#330000&quot;&gt;fronend/cli&lt;/font&gt;&lt;/b&gt;" style="verticalLabelPosition=bottom;html=1;verticalAlign=top;strokeWidth=1;align=center;outlineConnect=0;dashed=0;outlineConnect=0;shape=mxgraph.aws3d.application2;fillColor=#86E83A;strokeColor=#B0F373;aspect=fixed;" parent="1" vertex="1">
          <mxGeometry x="378" y="842.2" width="62" height="53" as="geometry" />
        </mxCell>
        <mxCell id="L3lj_wClFnJjA9AVwsPd-80" value="" style="verticalLabelPosition=bottom;html=1;verticalAlign=top;strokeWidth=1;align=center;outlineConnect=0;dashed=0;outlineConnect=0;shape=mxgraph.aws3d.email;aspect=fixed;strokeColor=#292929;" parent="1" vertex="1">
          <mxGeometry x="410" y="548.08" width="53" height="70.26" as="geometry" />
        </mxCell>
        <mxCell id="UQFzKsMZxMFf5TGVmSq--1" value="" style="sketch=0;points=[[0,0,0],[0.25,0,0],[0.5,0,0],[0.75,0,0],[1,0,0],[0,1,0],[0.25,1,0],[0.5,1,0],[0.75,1,0],[1,1,0],[0,0.25,0],[0,0.5,0],[0,0.75,0],[1,0.25,0],[1,0.5,0],[1,0.75,0]];outlineConnect=0;fontColor=#232F3E;fillColor=#ED7100;strokeColor=#ffffff;dashed=0;verticalLabelPosition=bottom;verticalAlign=top;align=center;html=1;fontSize=12;fontStyle=0;aspect=fixed;shape=mxgraph.aws4.resourceIcon;resIcon=mxgraph.aws4.ecr;" parent="1" vertex="1">
          <mxGeometry x="560" y="466" width="60" height="60" as="geometry" />
        </mxCell>
        <mxCell id="UQFzKsMZxMFf5TGVmSq--2" value="&lt;b&gt;ECR&lt;/b&gt;" style="text;strokeColor=none;fillColor=none;align=left;verticalAlign=middle;spacingLeft=4;spacingRight=4;overflow=hidden;points=[[0,0.5],[1,0.5]];portConstraint=eastwest;rotatable=0;whiteSpace=wrap;html=1;" parent="1" vertex="1">
          <mxGeometry x="570" y="525.9999999999999" width="80" height="30" as="geometry" />
        </mxCell>
        <mxCell id="P84ciIu8G83or5CPyGop-2" value="" style="shape=image;verticalLabelPosition=bottom;labelBackgroundColor=default;verticalAlign=top;aspect=fixed;imageAspect=0;image=data:image/png,iVBORw0KGgoAAAANSUhEUgAAAysAAAOpCAYAAAAaL7iPAAAAAXNSR0IB2cksfwAAAAlwSFlzAAALEwAACxMBAJqcGAABKzJJREFUeJzsnQd4FNUahkdRAUUs6FVRLCj2ih0LYL16sVdsqEAgBQIk9BYIKXRCCb23EAglvRAghSQQCJCEJr0FRamCgt7rufOf3Vk2y6ZtdnNmznzf87xPdupOknP+839zzplRFAiCIAiCIAiCIAiCIAiCIAiCIAiCIAiCIAiCIAiCIAiCIAiCIAiCIAiCIAiCIAiCIAiCIAiCIAiCIAiCIAiCIAiCIAiCIIs6jVj5cK8peT69JuVODIzMWugfkZHQb1reQr9Rq1cDAAAAQB6ofad2ntr7HpE5E7tPzvH1G5HzoOhcBIIgqJQ6jc2r3yUiM1QNWKcHTl93OnrNQZZacIxlbz/NNu37g/30838BAAAAICHUzlN7n7LxGFu05gAboOYBXcZknOoSsSY0cHjKNaJzFAiCTK6A8VkjVJPy54rcknOb98OYAAAAAGZns2pgluccOec/OuNCwPjMYaJzFQiCTKiRUVte6D8tb//ctD0XRAdFAAAAAOiTOWl7zg+YlrdvRNSmZ0XnLhAEmUTdIjO/6TUp58yOkr+FB0EAAAAA6JvtR/5iPdW8IXDi2i9F5zAQBEmuYfML3w2fX3BKdOADAAAAgLEInVtwMnT+pndF5zIQBEmqgAnZXw+dv+mk6GAHAAAAAGMSNm/jKfSwQBDkdvmMznio56S1MCoAAAAAqBY9J+ac6hyR0UR0bgNBkETqPTl3O+aoAGAs/CMymN+o1U7J2nrSY9+7U2XH0b/ZzqOe/f0GTl/Pf5cNu88K/1sDACrPtsMXWJ8pudtE5zYQBEmibuMyh85J3XNWdHADAFQNzawEz97AQuYWlCLvpzMe+974dUf5905csd2jvx/MCgDGZVbyrrNdx2aGiM5xIAgyuOiFj/5j1pwXHdQAAFVHMys1nczDrAAAKoP/mIwLXpM3XC0614EgyMAKnJA9PDa3RHhAAwBUnfLMCq2jbZTwJ288xvpPy2O5O0/zbakFv7IhczayrmMzWd+peWxawk9s6+ELlxy3JPMQ6zsllwWMz+LGZHvJ3yxpwy+lhpuNiNrCjys6eJ7v03PSWr7/6MVFrGDfH5U6p3bNMVmHWD/1enpOXMvmpu2hN2XDrABgYFbkHGHdxmeFi851IAgysLpEZJ7evA9vpgfAiGhmZcjsjSx8XoGNRWsO2AxC9wnZrNu4TNZp9GpuVlZu+o2vp2MjVEPRf5rFEAxfuJmfUzuu85g1rIu6T4hqauhYWkdmYpMaL6Yn7eLLQxdsYpnFJ/hxoer30rpRi7Zwo0LHkCHaduTvCs9Jx8flWXpryEDRtdBPzRDBrABgTAr2nmNdxmacFJ3rQBBkUPmOWfX8gOnr8QQwAAxKWRPsJ8ftsBkEYmn2If7SNjqG5rPQumVrD/PlbYf/oomwfF1m8UnbcZ1U8vdYTMKctD2lhn05DgPLUA0LLZNR0q4tYkkxXxeXV1Kpc2pDvlI2HuPL6VuOw6wAIAH9pq075T1i1dOicx4IggyobuMzQ+kOrOhABgBwjcoMA6OelZ1266mXhdZv2f+nbd3U+J183fKcI7bj+k9fZ9uesP5nvm780q182dGsLFWNT1lPJZudsqfCc1LvC/W00O9D5knbh64dZgUAYxO1ej8LGJsVLDrngSDIgOoemZ2t3cUEABiPys5ZsV/vzKyMX7bV2gNz2OlxiRWYFRqXzoeARRfyOS32rN1xusJz0nwX+kxDxLQeIHosciDMCgCGJ1mNAz0mrM0QnfNAEGRABY7P3p297ZTwQAYAcA1XzEro3I22XhRapp4MrQeD5p9UxaxELt/Gl2n4GJ/3ErXZdkz8+qNsRtIu/r6XypxTuwaa/E/LqzEMDAApoBgQMD57l+icB4IgA6rr2IxTmzC5HgDD4opZSVPNAO/FGJvBxi0ttj1xiybLl3Wco7FYXWgxEr0m5bDYPMvTBLUJ9jS5nnpcaDI9PdVry4E/K3VOeiIZLVPPD/XQ0NPCYFYAMD40yb7r2ExMsocgqOrqNzVvr+ggBgBwHVfMCkHDP+lFkvTELZpcT0ah2Mmji7X9HY0FzYGJiCnmxoKGkNG6wgPn+ecekZZHF5PhWL/r90qfs/jQBX4dvSfnqOfI5nNd8OhiAOSg75TcfaJzHgiCDChKAkQHMAAAAADIDeUbonMeCIIMKJgVAAAAAHgamBUIglwSzAoAAAAAPA3MCgRBLglmBQAAAACeBmYFgiCXBLMCAAAAAE8DswJBkEuCWQEAAACAp4FZgSDIJcGsAAAAAMDTwKxAEOSSYFYAAAAA4GlgViAIckkwKwAAAADwNDArEAS5JJgVAAAAAHgamBUIglwSzAoAAAAAPI1hzUp0UPRVE7rND5zRb0nC5B6LTs4KWrYnMmABA6AqULmh8jNNLUcTAhYETPaafKXosm0UGdGsbDv8J5u3JImNGT+Fde0WwELDhzMvLy+gM+j/Qv8f+j/Nj0lm2w+fF152gHlB3DAGiBvyYkizMq1vTI9J3RdeSJyW8fuWjJ1sZ/5+dmDrUQBcgsrPljU7GZWniQEL/juld3Q30WXcCDKaWVm0Io35+vqy+QsWsu3bt7OjR4+yc+fOAZ1C/x/6P9H/y9vbm0XHrhRehoD5QNwwFogbcmI4szKjX0z0qgV5J0QnuEBe0hfkHZ/eL2a26LKudxnJrEROnc3i4hOEN6TAdWLjEtik6fOFlyVgHhA3jA/ihhwYyqzMHLg0ZuX83D9EJ7NAflLnrP19Zv+YhaLLvJ5lFLNCCcfy5cuFN5qg+sTELFUTj7nCyxSQH8QNeUDcMD6GMStq4tgnfX7er6KTWGAe0ufnHpvWd3Gg6LKvVxnBrCxanoY7o5KxIjYeQzuAR0HckA/EDWNjCLOyOmj1FZO6R10QnbwC8zExcOHfQUFBl4uuA3qU3s0KTYr18/MT3kgC90Nj0XeU/CW8jAH5QNyQF8QN42IIszI5cOFXSTOyzotOXIH5SJiWcT6y24IuouuAHqV3szJvSSJbsGCh8AYSuJ958+azBUtThJcxIB+IG/KCuGFcDGFWZgTFjCjM/El44grMx+bVO9j0/ksSRdcBPUrvZoUeX7ljxw7hDSRwP9u2bWMRE6YKL2NAPhA35AVxw7gYwqxM6hGV8NOGA8ITV2A+6LHGk3tGnRBdB/QovZsVet4+HjMqJyUlJaxbQKDwMgbkA3FDXhA3jIshzMqcoOULRSetwLzMDlq2T3Qd0KP0blboBWGiG0fgOcKGDhdexoB8IG7IDeKGMTGEWYkMWLBadMIKzAu96V50HdCj9G5W6I3GohvG8khKSqJyZSMoKEj4NRkJ+v+KLmNAPvQeNwDihhmBWQGgAmBWnAtmpXrQW7EVO7Py7LPPCr8mI4GkA3gCvccNgLhhRmBWAKgAmBXnglmpHnfddRc3KQ8//LDNsOzdu7fcY2iCaHJyMjt8+LBt3enTp1lBQQFbv349O3v2bLnH0/bi4mKWlZXFTpw44XSf3377jeXn57Ps7Gz+WfTfCUkHqEn0HjcA4oYZgVkBoAJgVpwLZsV11q1bZzMo06ZNs30eP358qf2uueYavn748OGsRYsWtv02bNjAt0dFRbEbb7zRtr5+/fqsX79+tuNzc3Nt2yZNmsSaNGliW77hhhtYZmambd8FCxawBx98sFRvz5VXXsn69+8v/O+FpAPUFHqOGxg6irhhVmBWAKgAmBXngllxnYEDB/Jko1atWryH49Zbb+XL77zzTqn9NLPSqFEjW4JSt25d9vvvv7P4+Hjbutq1a9vOQcyYMYMfb29WnPHSSy/ZvisyMrLM/cgUif6bIekANYGe4waGjiJumBWYFQAqAGbFuWBWXKdp06Y82aDeElr+8ssvbabj2LFjtv00s0I0a9aMzZ8/n2VkZPBtWi/Jfffdxw4cOMBOnTrFWrVqVSqJsTcr119/Pb8zS+uoB4bWXXbZZez48eN8Xzq+Xbt2LDY2lv3yyy9syZIltmM//fRT4X8zJB2gJtBz3Chr6CgNBT1y5Ai/ieF4DIaOIm7IAMwKABUAs+JcMCuusWfPHluiMXjwYL5u5syZtnU0HEvbVzMrV199NX9HgLa+qKjItv+LL77I+vTpw2nZsqXNmNB+9mbliy++sB3fvHlz23pKZrT1ZFioh+WDDz5gt912m22fp556SvjfDUkHqAn0GjcwdBRxw8zArABQATArzgWz4hqjR48ud2jW119/bduXTAqtu/POO0udg3pXyjvHtddee0ni8fnnn9uOf/PNN23r6a4prdu0aRNr2LChbT312GifKWER/XdD0gFqAr3GDQwdRdwwMzArAFQAzIpzway4xuuvv16h0dCGZpRlVgoLC237091TGuZhz+rVqy9JPCoyK9R7QstXXXUVT2ponbYPzAowC3qNGxg6irhhZmBWAKgAmBXnglmpOj///DMfJqFYkwN7g/Hee+/ZGvrU1FS+f1lmhe6S3nvvvbZhF6tWreLraSx6TEyMbb/KmpWTJ0/alikpOnPmDL/TqsCsAJOhx7iBoaOIG2YHZgWACoBZcS6Ylaoze/ZsW2NuP06csB+H3rlzZ76uLLNC2A/pcGTlypWXJB4V9azYj013BGYFmAU9xg0MHUXcMDswKwBUAMyKc8GsVB1q/BVrY56SklJqGz3VR9tGT/0pL/HQoCEe9pNlibvvvts2jKsqiQc9Hcg+2fjmm2/Yjz/+qNvEA0kH8AR6jBsYOoq4YXZgVgCoAJgV54JZ0Qf0qFAt4dCe+FMdcnJyWF5envDfC0kHEIHe4gaGjiJuAJgVzoReS9nTihfzf3dsqfVju8c4Xa9n1sRs4tfc+onBbjvntrx9/Jxv3RrolvMN/G4GP9+0wfHC/16VAWbFuWBWAJIOIBt6ixsYOoq4AWBWODAr5bMj/wD7pmkI83ljlHuS/97L+PliJqwR/veq1PXCrDhVTZuVpRHLWeHOk5XeX29JB0DSAfSP3uIGho6KixvU3lC7I7pMApgVDswKKA+YFecSYVY6XdeczQqcWCnTorekA4hLOgCoLGaIG2YdOlrZuEHtC7Uz1N7ArOgDmJWtVTMrE/uuYO/d3Zu9UNuHvXNHDxbqNZft2XKYb9tXVMJGd41m79/ThzWr68u+fmoIS5m/3nbsO7f34Oejdd88PYRN7h97ybX8tPEA6/fVNPbmLYH8HJ88MIDNCU+2bX/paj9+jr2FR/jyuqStfPnTBweUMitfPjaIBbedzV5r0JV9cG9fNi0oznYOv7fG8H1o+78bdmev1OvEOr0dwdalbGPtXx3OXr7Gj314X1+WNCeX7+9sGFh5f4eKtjsOA6O/29geMeyjJv1sv/OkfivY/uISvj0/bTvfn7bT3+w/jXqxV+v7sx6fTGJ7Nh8u8/8Ks+JZiRgGFtjoP8xLebpSpsUMSYeZgVkBngBxQ27Kixv2JoXaGWpvRJdHYAFmpQpmZcn4Nbakveenk9n7jfvw5aE+C/j28I7z+fJnDwfxRPrVazuzFtd34SbA3qz8585e7JnLO/CE3vFaBrWZaTnHIwNZ948mspY3duHL8TNyqmRWnr7MizW/zp+bjxfr+PJ184anljIrtE/rxwdzc0LLz13RkZsXMhm03Oqu3k7NSkV/h4q2O5oVMjK0/MbNAfxv3fIGy+9Mxs/erDx/pTc3M189FcyerdWBr5syMK7K/2+YFfdIhFmhu1zUiGiUZ1qQdMgNzArwBIgbcuMsbjiaFA30qugHmJUqmJWwjvP4MpkISuA3rNzOE28yHdRrQIk0mYnt6/fz/ScPiOX7U8Jub1ZouWjtbqfXQnM5aB86dvfmQyxuxlr+HcsnZ1bNrKikLczn62aHJdt6W+zNSkj7uXx5+qB4vky9OXRemqPywlU+fB31XDialfL+DpXZbm9Wftpw8bvod6Ht2bGF3IyQiaJeF82skMFbn7rdYgy955f628Ks1LxETbDXelcqMi1IOuQGZgV4AsQNubGPG2WZFPSq6A+YlSqYleS5eTxh1nohvns2hE8Wp4Q+L6nYZhIcoeFg9maFkvGyrmVUl0W24yhZp0nt0eNW2bZX1qy83qCrbRhVcc4eft00JIvWaWaFekBo+9LIDL5sP4Fe693YtenQJWalvL9DZbbbm5XVMQW2IV72f4ePH+hvMTAp22xmhXpotO0LR6/k67q+N97jZmXY50PV4NU0CJTG+61ebGZAZI0z9O0u1galKWtvxZlpQdIhN17vtRZS/sxI+tJ1wpOVmgJxQ27o/+vMpLR3aE+onRFd71DPYVZKMTUojie+378QXmo9zenQegi0dWQ0qEeC5oFopqJDi5G2hJqGeJG5sId6R+zNSlm9Khpx09fyHoPXb+pm+w6a02FvVrT5H2WZFZqrop1va+5e3lNBw8HszQqZFHuzQusrY1bK+ztUZru9WVm1ZCP//PH9/Uv9Dd6+tTtfn5tYXGrOirY9anR6jZmVAS/6XXLXBeiDi0alaan1vPeldRvhDSPwYNLxdCvh5c8sUCIjOlmBWQFuiRtqu3Bp73xTh/bEnOi5nsOsqMTPzLH1AtCQJVpHE93JeND6Md0W83U0uZuGOG1avZMv80T7Mi8+/IuGK1FPCE38pmP59ugNbNAPs9jcYSmVMis07IvOP6LzIm4qiMg+y/gx7V8ZxvehOTC0nLlsM1/Whng5GwaWvmgjX0ffz58Q9rjlCWHVNSvl/R0qs93erOzMP8DnovBelOSttr8bLdP+1IMk2qygZ0WfPSuOd8KITvX107MybNgw/gjPgIAAQ57fGR07duTfOWXKFPFJB3pWPM7gF9vpPomBWakYelIX1dvnnnvO5XM8/vjj/BxFRUV8mV4ySS+CPHv2rPDfr0pxw75npT56VoxSz2FWtlqeRkVP59ISZHoaFU1O1yZ90zAqfof9W0uS/UHjPqzvl1NZm+dC+XK7ly1GQptH8cWjQXxfGopFBihxdl6lzApB30370NCpvq2n8u+yn2z+Y7OhfJnMxLfPhNgmzzszKzQ53/u1Ufx3ouXosavcYlYq+jtUtN1xgn1Iu7m2OTNkPqhXiJZpSBxtF21WanjOyliVNSoNa/A7XZLoOStlmRS9JB0wK55POkQ3oLJDdYrqF/0UfS01hei44QncYVboHSrNmjVju3bt4svt2rXj55w+fbrw38/VuFGWaaGf3Ru1El4WUc8vArNihe7wU28ADVsiA/Buo56sx8cTbb0DxE8FB3lPCT2KlyaFkxnp9v54tiXTYj6oF2C430LeI0MGofWTwWzF1Czb8ZUxKzSBnObIkEmi76Bj6Clj2hyVnIQiPgeGzk9PDFswMs2pWSGj0OU/47npoqd7zQxJtH1Hdc1KRX+HirY7fXRx4BL+t6ffi4aElfXoYsnNyo0q/1M5otK5hr7TZeniaWBOTIqG6KQDZqXmkg7gGYyQxLgb0XHDE7jDrDgig1nRcGZaCLM8DcwI9RxmBYAKqEGz4qXyk0qoytoa+k6XJfQ9K+WYFA3RSYdmJqhRb9WqFbv++uvZ888/z1atWmXbJz8/n73++uvshhtuYNdeey174YUXWGpqqm37vn372BdffMFuu+02/tbpDz74gG3fvr3U+TWzMnHiRL5M33H8+HE+TGPw4MHs/vvvZ9dccw178cUXS303vfGa9l+0aBF74oknWL169VjLli3Zzp07bfukpaWxpk2b8mv/9NNP+d1VBWbFNBghiXE3ouOGRqdOnXhdCwsL48vjxo3jyy+//DJfppc50vLDDz/Ml0tKSlibNm1Yw4YNeX398MMP2Z49e/g2zaw888wzrGvXruxf//oXe+ihh9j48eNt30cviqSbEXT81VdfzR577DE2bdo023b7YWB+fn62t9YToaGhfJ/FixfzeEHx5oEHHmCTJk0S/nesStxwNC1m6V0xQj2HWQGgAmrQrKxUiVB5WbE0Anc4bP9WZaTKAyqxKietn0lXqPRUOaByTGWWSm27Yz9QmaFSz3qOgyr7VL5y+I4GKoEqSSq/qxSqfGhd/4n9jvZmJWTUFPbQo0+qjdw1rNFdjVn3/mG2bW19Atj3Xv5OAxCtL2ubI/wN9pUwKXpJOjQzcdlll7HGjRuzFi1a8OU6deqwbdu28bHemmEgw/Kf//yHfybjQmPByWw8+uijfF3z5s3ZSy+9xD/TOtpmb1YyMjJY7dq1+fnI4ND39+rVi29/8skneRJz3XXXsQYNGrCtW7fy7dp30/WQwSGzRMufffYZ30770Tnp+l977TXWqFEj/lmBWTENRkhi3I3ouKGxdOlSXtc++eQTvvz999/zZbqpQPV/6tSpfNnX15dvJxNDyxRHyKjUqlWL1+uTJ0/azArVX7rp8fbbb7O6devydbNmzeLHd+7cmS8/9dRT7Ntvv2U333wzX05MTOTb7c3K+vXr2RtvvMGXybgUFhay+Ph4vkxmh27Q3H333fz76GaI6L9lVeOGvWkxQ++KEeo5zAoAFVBDZuVmxWJQ3lS5TOU3lQCHffqpbFIpUolWCVIshqSWygrFYlQ6qvyockglyu5YWn9aZbfKfJVPVdar/KPS2G6/qSpx1v1bqUy37nOn9Rpt0sxK70EjWJMHHmFLknJY8YFz6s9cdu/9D7GBYeP4dnealcqYFL0kHZqZIINw7Ngxvu67777j6+ju5oEDB3hPRY8ePfg2SirojidtJ6OgJStkFLRzkmGhZIWSBe38dA5KEMiM0N1W2u/06dP87ijt+/PPP/N1ERERfP8ffviBL2tmhZIeWqakhJbvvfdevqwN+fL39+fLhw4d4kZKgVkxDUZIYtyN6Lih8csvv7Arr7yS3XnnnXyZejo0A7Fx40bm7e3NP8fExPAeU/r86quv2o6nnlBaN2PGDJtZIdasWcO3a2aHeltomeaj0DLFCYpFCQkJ3IisWLGCb3ecYO84DIxuuNBycnIyX6ZrpOX77rtP+N/S1bhB7Q3Mij6AWQGgAmrIrPionFIsxoNEvSDrHfYhs0LX8o3DeuoJKVEsvR+a7lcsJkPrefG2Hvuj3T6Nreu87dZd73DuuirnVbo5XjAFj/Xbj7Fr61/HkrKKSwWW6QsT2bvvf8Y/u8usVBXRSYdmJrQ7owTdZaR1dFeSlsmUdOvWjb3yyiv8jqf1/8ETgpCQEP45KCio3PNrvR133HEHH/5F2+hOp3YuR2g4GO2jmRWtJ4bMEy3ffvvtpZKXlJQU23fS76LArJgGIyQx7kZ03LBH602lOHHFFVewwMBA2w0G6jUhM0M3IyZMmFBmfaebIZpZoZsh2tO76ObD5ZdfzntWad2gQYNsx1Av6/vvv1+qV6Qis0I3TJx9P/XwnDhxQvjfEnHD2PUcZgWACqghs5KhMsdumYZt0fc2sltHZuW/Klc6HLtRZYqTc9JE/c+snzWzUtdhnz9Uhjg5lnp3HlEsQ89OqIxz3IGCx6zoFPbgw4+XG2RgVi6aFRrTTevefPNNtn//ft5TQckCXeu8efP4OHLFmhDQfBP6HBwcXO75KeF45JFH+Gc6hrbRvBbF2ktCCYc9dMeU9tHMysGDB/ky/VTszIqWnNC8Fe07ac6MArNiGoyQxLgb0XHDnn79+vH6Rjc06OfatWu54Wjfvj0fxkVmhvaj+kjb33vvvUvqOxkVe7OinfvIkSPcSNB5NANDQ7mo5/WWW26xmQ1tzkxFZkWLJ7Nnz77kGqinRvTfEnHD2PUcZgWACqgBs0KPKabv2KVYHltM5FrX9bDbj8zKBSfHlyhl3FVT8bXu42Ndvsbh2OMq4XbL1DszTbEMQ6PhZrMVyxyY6Y5fSsEjeMQk9krLt8oNMmY3KzfddBOfvErrKBFQrMlHVFSUbYy5ljzQ3VPFmhBo2+2HgVEPDE2eLSgosJ2/bdu2fFgYmZb69etzE0Rj2unuKJkh7buzs7P5kK6ZM2eWSi7KMisff/yxbcgaLdOwFDq/ArNiGoyQxLgb0XHDnvT0dFsMoZsap06d4vNNaGgprSczQ/tlZmbaboJox86ZM4fXd5rPZj8MLCsri2+n4WG0/Oyzz3Iz0bNnTzZw4EBuXIgRI0bw7W+99Rbfvyyzog0jpetS7IaZHT58mHXp0oUNGDBA+N8RccP49RxmBYAKqAGzQo8p/kuxzEGxp8CKprLMyk6VmRV8R2XNSo71O++yW1esWAxMKVHwoOFeznpWNu89zQYPi2RbD/1perNC0JNxtAmpNJeE3lVA5oGWaRL7Rx99xG699VbbkC4a703zTuhJXrRMT+mi8eiK3Rhzx6eB0VPDaFn7vXv37s2Xn376aT4Jl+6qkhnShnVVZFa0IWtkgigRoYcEaL8PzIo5MEIS425Exw17KAZoD76gJwXa12vC/ul+2gR7mlxPD9SgIWIUU6he25sVmvdCTyekJ3bRMt0UoeNpTgwt0w0R+htQzFLsenYdzQqZEMU6rJSuQ5vzRvGDJutrDweh4WWi/46IG8av5zArAFRADZgVekzxCifr2yiWBuY+63JZZmW8Yhny5TjEy16VMSu3Wfd5z2GfrUoZPSt5xUfVRq8eS8osKhVYJsyMYQ3vuJN/NrtZeeedd3giQUkH3cWku6DaPn379uVzVWgS7ZAhQ/hdTDqG1tP23bt38x4OMhp0N/Xzzz+3PY7U0axs2bKFD+sgQ0I9L/REMbrzSkPBKDGhMe6xsbG2767IrNDd1ZEjR/IhZtSjQkPAvvrqK5gVE2GEJMbdiI4bjrz77ru8ztGjjGlZG0pKdZLMjLYf9WS0bt2aD+GiHlUaEkYxgbZpZoUMCN3UoJjTpEkTNnnyZNvx9IRCehIgGRztyYL0REGKI7Td0azQ/mRsKLaMHTuWr1uwYAHfj27I0Pmpd0b03w9xQ456DrMCQAV42KzQnBQ6/3dOttVXLHNU+lmXyzIrNIzsjEqKynOKZZL+CyoD7fapjFm51vp9wYplzspNKiGKZaK+U7NCQaRbnyHsvvsftjwN7OAfbHHiWnZ7I7WhGziMbzerWQFIOoyOEZIYd4O4ITeIG8as5zArAFSAh80KPZ6YDMK1ZWxPVyxzR0hlmRVSM6X03BUyGMNULrdur+wwMHpa2HnrvvtVBiiWRyCXaVZ2Hv2b9Rsymj+uuG7dq9ndjZuwHv3D2Y6Sv/h2Mit0x792nTo27rz7Xr4NZgUg6dAvRkhi3A3ihtwgbhiznsOsAFABNfhSyOqKhoG1sOL4QsmqiF4c+XhFO4l4g31VQNIhN0g6PI8Rkhh3g7ghN4gbxqznMCsAVICBzEqNCmYFIOmQGyMkMe4GcUNuEDeMWc9hVgCoAJgV54JZAUg65MYISYy7QdyQG8QNY9ZzmBUAKgBmxblgVgCSDrkxQhLjbhA35AZxw5j1HGYFgAqAWXEumBWApENujJDEuBvEDblB3DBmPYdZAaACYFacC2YFIOmQGyMkMe4GcUNuEDeMWc9hVgCoAJgV54JZAUg65MYISYy7QdyQG8QNY9ZzQ5iVOUHLF4pOWIF5mT1o+V7RdUCP0rtZCRs6XHjDCDxHaPhw4WVMdoyQxLgbxA25QdwwZj03hFmZ1CMq4acNB4QnrcB87Mzfzyb3jDohug7oUXo3K127BbCjR48KbxyB+ykpKWHdAgKFlzHZMUIS424QN+QFccO49dwQZmVW0LIRhRk/CU9cgfnYvGo7m9F/SaLoOqBH6d2sREyYwrZt2ya8gQTuZ+vWrSwicqrwMiY7Rkhi3A3ihrwgbhi3nhvCrEzqvqB10vSM86ITV2A+EqdlnJ8QMN9fdB3Qo/RuVubHJLH5CxYIbyCB+5k7bx5buCxFeBmTHSMkMe4GcUNeEDeMW88NYVaCWgRdMTFgwX9FJ67AfER2W/APU9hlouuAHqV3s7L98Hnm7e0tvIEE7qdDhw5sZ8lfwsuY7BghiXE3iBvygrhh3HpuCLNCmtI7ulv6/NxfRSevwDysnJf767Q+0ehVKUN6NytE9Ip0FhsXL7yRBO5jeWwsWxy3SnjZMgNGSGI8AeKGfCBuGLueG8askKb3i5mdOjfnnOgkFshPyuy152b0XzJddJnXs4xgVojJM+azJTFLhTeWoPpEL17CpsyKEl6mzIIRkhhPgbghD4gbxq/nhjIrpJn9YxamL8g7IzqZBfKycl7OyVkDl84WXdb1LqOYFWLS9LksNhZ3So3M8tg4NeFYKLwsmQkjJDGeBHHD+CBuVIwR6rnhzAppSt/obpGBC/+On5rx+5bVO/jjZUUnuMC4UPnZvGoHU8vTGZqjgqFflZORzAoRHZvOfHx82Nx58/nTfugxlqIbUlA29P8pLi5mc+fO52PNMYSj5jFCEuNpEDeMBeJG1TFCPTekWSEFBQVdriaWXab3WxJH78GYFbRsD71pHICqQC98pPJD5Yie+oXJ9JWX0cwKsaPkL7ZgaQqLmDCVP2+fXhBGbzR2K0+3cv85TUbY0BH8/0P/p4XLUjEpVhBGSGJqghqJG6KQKF4hbriGEeq5Yc0KBEFiZUSzUhNQ0Bd9DQC4AyMkMaB6IF4BI9RzmBUIglwSzIpz0PgDWTBCEgOqB+IVMEI9h1mBIMglwaw4B40/kAUjJDGgeiBeASPUc5gVCIJcEsyKc9D4A1kwQhIDqgfiFTBCPYdZgSDIJcGsOAeNP5AFIyQxoHogXgEj1HOYFQiCXBLMinPQ+ANZMEISA6oH4hUwQj2HWYEgyCXBrDgHjT+QBSMkMaB6IF4BI9RzmBUIglwSzIpz0PgDWTBCEgOqB+IVMEI9h1mBIMglwaw4B40/kAUjJDGgeiBeASPUc5gVCIJcEsyKc9D4A1kwQhIDqgfiFTBCPYdZgSDIJcGsOAeNP5AFIyQxoHogXgEj1HOYFQiCXFLfKbn7RAcwPYLGH8iCEZIYUD0Qr4AR6nm/qXl7Rec8EAQZUF3HZpzatO8P4UFMb6DxB7JghCQGVA/EK6D3el6w9xzrOjbzpOicB4IgAypwfPbu7G2nhAcyvYHGH8iC3pMYUH0Qr4De63nW1pMsYHz2LtE5DwRBBlSPCdlZKRt/ER7I9AYafyALek9iQPVBvAJ6r+fJG35hgeOzVovOeSAIMqC6jM8MXbRmv/BApjfQ+ANZ0HsSA6oP4hXQez1fuGofDQMbJDrngSDIgPIZsebZ/tPWnRIdyPQGGn8gC3pPYkD1QbwCeq/n/abkne40MuMp0TkPBEEGFSbZXwoafyALek9iQPVBvAJ6rucbLZPrT4jOdSAIMrACJmQNXZFzRHhA0xNo/IEs6DmJAe4B8QrouZ4vV/OLgAnZYaJzHQiCDKzA4SnX+I/JuCA6oOkJNP5AFvScxAD3gHgF9FzPO49e83ensYm1Rec6EAQZXF3HZYXNSd39u+igphfQ+ANZ0HMSA9wD4hXQaz2fmbzrbNexGcGicxwIgiRR78m5W7cf+Ut4cNMDaPyBLOg1iQHuA/EK6LGeFx+6wHpPzikWndtAECSROkdkNOk5MQdPBvsZjT+QBz0mMcC9IF4BPdbz7pHZZ/yGZ9wjOreBIEgyBU5c+2XYvI2mNyxo/IEs6DGJAe4F8QrorZ6HzN14KmBC5qeicxoIgiTV8OhN/wmdW3BSdLATCRp/IAt6S2KA+0G8Anqq56pROT0qeuu/RecyEARJLuph6TUp5+y2wxeEBz4RoPEHsqCnJAZ4BsQroId6vvXQBdYjMvtswKS16FGBIKhmRHNY+k9dt3t2yu6/RAfimgaNP5AFPSQxwLMgXgHR9XxWyq6/BkxbtwtzVCAIEqKACVlh/qMzLixfe/hcwd5zwoNyTYDGH8iC6CQGeB7EKyCintOb6ZepeQG9RyUgMjtEdK4CQZDJ5TV5w9X0rHSVE/2nrzu9aM3+f5I3/MKytp5kMhoYNP5AFmBW5AfxCni6nlM7T+09tfsLV+//p9+0vDNdx2Ye7zo2KxgvfIQgSHfyHrHq6V6Tcob1mpSb231C1l7VwJzqNzVvr9+o1UwWKOiLvgYA3IH32714eaafoq8FeAbEK+DJeq4aE97OU3tP7X7vyblDO43MeEp0LgJBEGRqUdAXfQ0Q5A55KU2DqDzTT9HXAnlGiFcQ6jkEQZDJhMYfkkVIYuQX4hWEeg5BEGQyofGHZBGSGPmFeAWhnkMQBJlMaPwhWYQkRn4hXkGo5xAEQSYTGn9IFiGJkV+IVxDqOQRBkMmExh+SRUhi5BfiFYR6DkEQZDKh8YdkEZIY+YV4BaGeQxAEmUxo/CFZhCRGfiFeQajnEARBJhMaf0gWIYmRX4hXEOo5BEGQyYTGH5JFSGLkF+IVhHoOQRBkMqHxh2QRkhj5hXgFoZ5DEASZTGj8IVmEJEZ+IV5BqOcQBEEmExp/SBYhiZFfiFcQ6jkEQZDJhMYfkkVIYuQX4hWEeg5BEGQyofGHZBGSGPmFeAWhnkMQBJlMaPwhWYQkRn4hXkGo5xAEQSYTGn9IFiGJkV+IVxDqOQRBkMmExh+SRUhi5BfiFYR6DkEQZDKh8YdkEZIY+YV4BaGeQxAEmUxo/CFZhCRGfiFeQajnEARBJhMaf0gWIYmRX4hXEOo5BEGQyYTGH5JFSGLkF+IVhHoOQRBkMqHxh2QRkhj5hXgFoZ5DEASZTGj8IVmEJEZ+IV5BqOcQBEEmExp/SBYhiZFfiFcQ6jkEQZDJhMYfkkVIYuQX4hWEeg5BEGQyofGHZBGSGPmFeAWhnkMQBJlMaPwhWYQkRn4hXkGo5xAEQSYTGn9IFiGJkV+IVxDqOQRBkMmExh+SRUhi5BfiFYR6DkEQZDKh8feIrleZplKiclQlWeVZN3/HByqL3XCe21UOVfMcz6vku3hsT5Xh1fx+LiQx8gvxCkI9hyDIbHpEhRq/v62cV9mo8nI1zkkJ5CfVvzS3KqGsDWj8PaK5Vu5SuVzlHcViXO5243foyazUV3nOxWPpb9Skmt/PhSRGfiFeQajnEASZTWRWfrdbbqAyWrEklpe5eE49mpW/y9qAxt8j2qXyH4d1g1VaWD83Uiy9Lb+qrFQu9rpQecxWma/yi0quSkvrtjoqU6zHFKoMVZybldtUUlVOq+xT+di6vq9KsN1+Pa3LZFYOW6+vxHrtWvml6ymwXuNxlbUqb1qv64hKb+t+TysXe1bK+v6y1gcoF3tWHrV+x0mVPJWnKvF3sQlJjPxCvIJQzyEIMpsczQrpTsXS23KrUnaCR6Lel0Lr8ZSoPWRdTwnkAMWSUFESOFHlCifffbdKisoJlWMqA+22tVYsCd0e6/dlWdfXsZ6PhhZtUvnW7hhKYrsqlrvku1V8retjrb9PkcpVjheBxt8jGq9Y/nc+isWYOCpHsZQl6nWhHhL6n12nXOzp81csZrm/cvF/H6SSoViGmDW2HuPMrNB3T1KprfKpcrHXpDyzQt85UuVKlbdUzqncYXc9H6rUtV43ne9Glces+12tlDYrZX1/Wes1s0J1hIxSe5VaKt+p7LdeU3l/F5uQxMgvxCsI9RyCILPJ0axQwjhMsST+lDCVZ1aKFUtCRQaAemPmWddTArlTsSR01FNDd6TfcPLdMxXLnXJKAh9U+UOxGKR7FIsZuV/lBsVyZ1tLzEJVlluPuU+x3Al/3rrtV+t3U9L3qmLpTalt3YaelZoVJdTfqCQqlvK1Q+V763oyGtS7UNdufyovrRRLebygUs+6/mHFYjIV688WdsdQ2XRmVoIUS6/N/Q7ryzMr/7X7ThIZ3HbW6zmqXOxlpPI3xm6/g4plGJe9WSnr+8tar5kVOsduh23bVF5Uyv+72IQkRn4hXkGo5xAEmU3aHds/rVBSTwlSC+v28szKGsVibG5yOCclkCF2y0sV58PC6DjqKSFTRMNdKIF9QCVQsdyF1kR3mjWzQslhM7ttk1VGWD+TWXnLbhv11jSwfoZZESfqGfhMsQybaqPSXLEY0yIH3lcs5XGH3bEPKBeTcvr/3mW37SvFuVkhk0wmmEwy9e54W9c7luVeykWzcszhHGOs+9P1bLdbH2xdr2mfcqlZKev7y1qvmRUaNrfK4TqSFEvdKe/vYhOSGPmFeAWhnkMQZDY5GwZmr7ISPBINg4lXLInnOsWShJIogfzM7piy5rA8az1ur8oKxZLEURJGvTS97fZ7V7GYFbq7/T+VrUrpJFe7Hkpmb7U7ju6Iw6zUvCh5J+PpOPSP/k/TFUsv2k8O28isXqtcag7sk3IactjcbhuZVGdmhXodrlEsQ8xaWq+F5otQWbY30bOU0j0r19htW6ZYjJUrZqWs7y9rvX3Pyi6H34V+92ZOrgNmxaRCvIJQzyEIMpsqY1acJXjUG9LUuo56R2gs/VbrsqM5Kcus0NCf75WLQ2zobjMlYWRUxtnt11a52LPys0pDu200pOgO62cyK7fYbYNZESearzRVsZhH+v9Sok49A58rlmSdEu0OiqUcUY8CTSinIU7lJeU0p4l6HujJW/Q/J6PgzKyQgQ5XLMaAjBGV77tVOikWc0zraR7Nb0rpOStDrddDRoLmUd3k5HoqY1bK+v6y1tvPWaFhYD9Y/2Y0b4t6EmtX8HexCUmM/EK8glDPIQgymyoyK2UleJRw0p3hjxRLkvW1YkncSJU1K3Su16yfaTs1wtRbQxP1aS4KGZH61u/XzEqkYjFMNN/hXut+2t32isxKbcWJ0Ph7RNRLQmaFes3OKpahhX522ynZXqNYTAEl3Vo5KC8pp/859czQkC2aL0Vl05lZoSdqkXE4o3JApaN1/Y3W/elpWtSLN0e5aFbIONOcq5+t368NJ3TFrJT1/WWtt38a2OOKZRI/Xd8663kr+rvYhCRGfiFeQajnEASZTRWZlbISPBIN9aJklJIvejLXK9b1lTUr9CQvMhR0x53mvtCTktZbt/2oWOY4UEJGd9STrevrW6+BroeeNNbZ7nzlmRUa1kNPX8LTwCBphSRGfiFeQajnEARB4kW9K3SnWRseFqGUvpvtVqHxh2QRkhj5hXgFoZ5DEASJF80boLH91MtCPTbU41LHU1+Gxh+SRUhi5BfiFYR6DkEQZDKh8YdkEZIY+YV4BaGeQxAEmUxo/CFZhCRGfiFeQajnEARBJhMaf1OJ3uHjW8E+9Mjgr2vgWtwuJDHyC/EKQj2HIAhyv+iJY0MrsV9P5eIjXGtMaPxNpcqYFXqYw8AauBa3C0mM/EK8glDPIQiC3K+XVFZXYj96X0UTN32n03eqOBMaf6l1p8pKxfLY7RSVhcpFs0KPvab3pNCjt/MUy7tL/q1YHotNdClnP10KSYz8QryCUM8hCIIsekKxJGb00j56x0kj6/obVKIUyztNflL5yrqeek+yVeYrlkSP3mBObwKn95xoLwacb923rOTP/uV4dP6uiuXdKPRWb/u74fQSyM2K5T0qixTLu2BI/orlKWL0pvDxlf1F0fhLrTUqIxTL+3XIiPxPsZQlMsZ/KpYXNZKxnahYnjpHsu9ZKW8/3QlJjPxCvIJQzyEIgiyJ3X6VjxXLW8Mp8Y+zbptphRK3JxXLHesHFYtZoUaUDAO9H6W/cvGt8/Y9K+Ulf45mhV4meYXKq8rFN9CT+Tmp8rJiecQx7R9rPYa+m8xVc+XiO1oqFBp/aUVlhcpaXbt1aYrFrFAZ/5d1HZndsYql14Vkb1bK2093QhIjvxCvINRzCIIgS7K/0W6ZkrSPrZ+pN+QOu22RKr0Vi1m5oFLPuv5hxfL2eZK9WSkv+XM0K2/Zfc8xxZJ80pvtU+3W365Y7pZfq1jMyvLK/YoXhcZfWlGZ3OewbopiMStkgqnH5aBieZ/PKsW5WSlvP90JSYz8QryCUM8hCIIsT0Ja6mT9NYrFGNj3WtCk+HGKJTHcYbeehnY5MyvlJX+OZuVWu/PRkC8yKwOt24ocuE2xmJUJlf4trULjL63IDP+hlH6h6AbFYlboiV9kyBtY13+rODcr5e2nOyGJkV+IVxDqOQRBkKK8oVjmkmiiRC3Q+vl3xdKboYmMSh/FYla2260vy6yUl/w5mpVb7M6nmZWOiuXuuCYyP82sn/2t11MlofGXWlTu6El0NGSQegz/q1jMip9KusqVKtcpliGLMdZjyKyEWT+Xt5/uhCRGfiFeQajnEARBinK1SonKu4plngg97lWbFzJbZZpiSd5o3slv1p8VmZVc6+fykr/KmBWa6E8T+F9QLEPKghVL7wwJZgVyFM2RovJB5ZTKHZUvMitU9mj+ys+KpQzSgyKojH2k0kKxlP+ACvbTnZDEyC/EKwj1HIIgyKLnFUsPCE1mp2TvLut6GloTrVjmkOxS+ca6vjyzcoN1XzIl5SV/lTErpFYq26zXlmZ3bTArkKmFJEZ+IV5BqOcQBEEmExp/SBYhiZFfiFcQ6jkEQZDJhMYfkkVIYuQX4hWEeg5BEGQyofGHZBGSGPmFeAWhnkMQBJlMaPwhWYQkRn4hXkGo5xAEQSYTGn9IFiGJkV+IVxDqOQRBkMmExh+SRUhi5BfiFYR6DkEQZDKh8YdkEZIY+YV4BaGeQxAEmUxo/CFZhCRGfiFeQajnEARBJhMaf0gWIYmRX4hXEOo5BEGQyYTGH5JFSGLkF+IVhHoOQRBkMqHxh2QRkhj5hXgFoZ5DEASZTGj8IVmEJEZ+IV5BqOcQBEEmExp/SBYhiZFfiFcQ6jkEQZDJhMYfkkVIYuQX4hWEeg5BEGQyofGHZBGSGPmFeAWhnkMQBJlMaPwhWYQkRn4hXkGo5xAEQSYTGn9IFiGJkV+IVxDqOQRBkMmExh+SRUhi5BfiFYR6DkEQZDKh8YdkEZIY+YV4BaGeQxAEmUxo/CFZhCRGfiFeQajnEARBJhMaf0gWIYmRX4hXEOo5BEGQyYTGH5JFSGLkF+IVhHoOQRBkMqHxh2QRkhj5hXgFoZ5DEASZTGj8IVmEJEZ+IV5BqOcQBEEmExp/SBYhiZFfiFcQ6jkESaKg1T71guLbPjoorsN7QbFe7UISvIeFJfrNDkvqlBSa6JcfmuCzR/25e0i890mVs0PiO54PjvP678jUHnsHx3kxYB4o6Iu+BgDcQWDrVrw800/R1wI8A+KVF6N2mtprarct7bf3SbV9/8narudTO0/tPbX7g2PbtuN5gJoPDE/59hrRuYk7BLMCQQZT6NLvGgyK92o5KK69/5AE7znDkwOS1cD1uxrELoxIDTw1MWPw6egNUy/EFMxicYVRLHX7crbmp2SWuy+D5R/IZRsPrWebDm9gW45sYkUlW9jWn4uByaCgL/oaAHAH0wODeXmmn6KvBXgGxCsL1F5Tu03tN7Xj+QfyeLtO7Tu189TeU7tP7T/lAZQPUF6gGpgzw1MCk4ITvGcPjvXqHBzXrgXlEaJzmaoIZgWCdK6guLbPDY5r3y0kwSd+WFKXfPXn2Yj0Pj/PzRt7IqFoEcves4oVHM4XHkiBcUDjD2QBZkV+EK+qR8GhfJ4nxKv5AuUNY1b2/oXyiGHJXdeFxPvED4r16kp5huhcpzzBrECQzhQU69V0WIp/2KjUwNWD4zr8b9TKnifmrRt/JnX7Crbx0DrhgQ8YHzT+QBZgVuQH8cozbDi4jvfIUH4xKrXnCZ5vpHZPH5rUJTQoof2TonMhe8GsQJBgRUd/VmtQQrsPQhN9F1N37ai0HqeiN0z5O3NXKis+Wig8oAH5QOMPZAFmRX4Qr2oGyjcy1LxjUf7kv1XTcjokwed0aFKnRcHx7d9nTLlMZJ4EswJBgjQ4tv3nQ5P9V9HdjDm5Y35JLF7MCg6tFx6wgPyg8QeyALMiP4hXYqB5MQnF0WxO7uhfBsd5/aPmKyuD4zp8KiJfglmBoBrUoLgOr4cm+o2jp3tMzhhyLHX7in9EByRgPtD4A1mAWZEfxCt9kLpt+T8TM4KPqfnL/0LjvUcHx7Z7raZyJ5gVCPKwQhN/uHlIgne/kATfn8eu6ntUNSgXRAcdYG7Q+ANZgFmRH8QrfVF8tIiMy/mx6X2Phib4HB0S793H008Xg1mBIA8pKL59s5EpAVGhCb7nFuZPOrv+QI7wIAMAgca/ZhmZ2v2S9yYMT+nG5ueNY1uOFLjlO6ZlD+XnTd+ZUGO/15iVvfl35guMbTAr8oN4pV/WH1jLKL9R85w/RqQGLgyKbfeCJ/IpmBUIcrNCE30+DU/qsnNsep9TK3fECw8mADiCxr9m0cxKxMo+bMKaIDZuVT8WHN+Rr5udO8ot3wGzArMiK4hXxmDljjiKCaeHJvnvCI33+dideRXMCgS5ScOSu/iGJ3U6PiUr9Fzm7jThgQOAshjc7Gvh12AmNLNCT9rR1mXvSefrQhJ81eWian8HzArMiqzArBiLzF1pbEpmyLmwpE6/UV7kjvwKZgWCqqngOO8fQhN8T8zKGfUHhnoBI4DGv2ZxZlbW7lnF141e2dO2Lm37CjY2vS83MEOT/Nl01YDkH8y1bacXu0WuGczCEjvxYWQL1keywiOb+DZHszIrZyRfpn1oefORjWxO7hh+HB1P+2vvbSKzQfuS+YgtXMivV000+P5FR7fYvj+ucAEbldaDDUvuypZsnM7GpPWCWQEeB/HKmKzbv5bi0B+hiX6/DYn3blOdPAtmBYJcVHBc2w/VSlgyfe2wU/kHcoUHBgAqCxr/mkUzK2REJq4ZxMavGsCHgZEh0Hph8/Zn8XUhCT7cSIxb1Z8fMzUrjG8nQ0DbaB815nDTQNvnrRvPt9ubleVb5vHPU9Rji629NpHq92rno32D4zqwCasHsqKSLTazYvl+X3X9AL6d1sWp5oWOT9oaw5dD1e1TMkP5T23+DcwK8CSIV8aGbuJOyxp6KjTR9wi9s8WVfAtmBYKqKHrDvGpSCufkRRxatz9beCAAoKqg8a9ZnE2wJ6iHQ+ttoZ+zc0arpmAJX167d7VlIn5qAF+Oyp/El5cUzOTLmw7ls/Bkf95TQsPINLOyaMMUbjoi0vuwLSWWXhcyRLSNjJJ2TTPWDufrklUTopmVwapBWX/QYjwWb5zG183Ni+DL2pAvGpdOy6t3JcOsgBoB8UoOKF+ivCksyW9zUEL7J6uSd8GsQFAlFRTndXVYUufokamBx7N2r8T7UYBhQeNfszgOA6M3RafviOe9F9STQb0btD5jV4pqDsbyCfjUi6I9NYy2UW8GP8fuVKffoZkVjenZw23b4osWOTVLRLRqbjSzYj8kLXXbMr5uVs4ofn10rUMSvFlhyWbbPkOTusCsAI+DeCUXmbvT/qE8KiyxU1TQ6u/rVCb/glmBoEooNN4vMDTR73RCcfR50RUdgOqCxr9mcTZnhRiX3s+6PoWt2pnAP9N8kMUF0/n8FXuzMilzCF/O2rPS6XdoZoXmutA56LM2xCyheDFfpn3ovPZQD479nBXtfCnbltvMCs130R4GoBkrGl5GPTswK8DTIF7JSXzRovOhCX6nQxN8u1WUg8GsQFA5Ckpof79ambbPzRt7QnTFBsBdoPGvWZyZlU2HN/Dkn9av3buGLVg/gX9etnku307DrezNirY9ZpNlGFjBoXxuTOjc9sPAkrct5ZPk6TPNSaF9s3Zbnjw2OTPE9v0p6n5R+RO5+anIrNAyfRefE2N9HPsa1WBhGBioCRCv5GZO3piTYYmdtgYnet1bVi4GswJBZSgsyXfYsOQuJ7P3pGPIF5AKNP41i+ME+8g1QbZhXvTuFXri1rLNcyw9I8lduPHQjAwNtaJzrDuwls9FIWi+CQ3Zou00l4W220+wp96PEakBfDll2zK+XZtgT/vRU77oPNQDQ3NfKmNWFq6PtEywT/Tj56CHA8CsgJoA8Up+stQ8S419p4Ykeoc4y8dgViDIQUHxPzYeltJ1U/SGqWdEV2AAPAEa/5rF2QR7MiH0aOJ1BywP6dhyZJPNpESopoF6MDRDs+anZL4PDesio0OGgSbe03wT7dHCjo8uTiiO5ssjUwO5eaGeHHqcMZkhMhq0v/aAkMqYFRoKRoaFTBD1stB31/SjixdHTFSZVGpdWWbFsu9E4f97UH0Qr8zDog1TTqrxZWNQUse77fMymBUIspNaSbqrScSZdfvwlC8gL2j8gRHZuHMd61T/FRbY6G2baXE0K2RQaDvtR/uLvmZQfRCvzEXeviy6IXJmaLJ/gJabwaxAkFXDUrrmz80b+7voigqAp0HjD4yKZk4IMiXh/27PP4f/ux1f1rZhWJg8IF6Zkzl5Y84OS+6ynvIzmBXI9Bq3ul+LUWk9ftGGTwAgO2j8gVHRelc0U+IM9KrIBeKVeaHhsJSf+TdpOQNmBTKtaNjXmJW90JsCpCZpURTzq/eSbeiM1vjTsq+6PjFqofBrBKCyaL0r7ZWmHO0zelXkBGbF3BQfLWK9v/rkPMwKZEoNS+oSOzt3DCbRA1PQ8arnmc/VL7LONzbnjT/99Kn7Iut45fPCrw2AqmDfu6IZFs2soFdFPmBWgHaDIvDdd7eJzh0hqMY0PLlrTkJR9AXRFRCAmmJWnzDmrRoW++EytDxTXS/62gCoKva9K/Y/0asiHzArQKvvIzr4/T0iJSBXdA4JQR5VyIp2twTHd/grd18G3p0CTId37RcuMSuirwkAVyg9dwW9KjIDswLsn/qXszfjn+D4jn8GxXndJDqnhCC3a0isz8thiZ3+KCzZLLziASAC+94V9KoAo2P/ZDD0qsgLzApwfET55iMFLDTB948hid4viM4tIchtGpYU0HrMyj4nRVc4AESj9a6gVwUYHfveFfSqyAvMCijr5a+jV/Y8OSyl2xeic0wIqraGJnftOD172HHRlQ0APUC9Kx2vfA69KkAKykpigDzArIDy6vmUrNBjI1ID2onONSHIZQ1P6dp9+loYFQA0Cg9tZqM+68wKD2I4JDA+1JsS0Ogt9KpIDMwKqOimxLTs8OMjUwO7ic45IajKikjv1XF2zmgM/QIuseXwZjZnyWw2avwo1rVbVxYaHsq8vLyAzqD/C/1/Ro8fzebEzGGFh7cILzt6ROry3LqN+GtAefYYMCugMj2oM9eOPBmxsncb0bknBFVaZFRmrB2Olz0Cl1iwYgHz8fVh8xfMZ9u3b2dHjx5l586dAzqF/j/0f6L/V0fvjiwqFi+5RHk2LijPpYFZAZUd7jkta+ipiFV9vETnoBBUocJTugTOyhmFoV/AJcZPHc/i4uOEJyzAdWLjYlnk9EjhZUkPoDwbH7OXZ5gVUJW5aTNzRh4fmtyli+hcFILKVFhiZy/VWf8qumIBYzJBTeyWL18mPDkB1ScmJsbUCR7Ks1yYuTzDrICqPkhjambYb6FJvhgSBulPwfE+H0/NDisRXamAMVm4fAGLjY8VnpQA97EidgVbaNIhNCjP8mHW8gyzAlx56t/kjJBDwfHe74vOTSHIpqD49s1Gp/X8RXSFAsaEJh/7+vkKT0aA+/H29mZFJYXCyxjKM0B5dg2YFeDqI8pHpfY4FhTX9jnROSoEKSEr2t0SmuiHyfTAZegpSQsWLBCeiAD3M2/ePDZv6VzhZQzlGaA8uwbMCqjO+5RCEnzOhS79roHoXBUyuYLjO1woLME7I4Dr0GNCd+zYITwRAe5n27ZtbMyEMcLLGMozQHl2DZgVUB2zsvlIARsS3/FP0bkqZGKNSOmWm7sv83+iKxIwNvReAzzOVU5KSkpYt4BuwssYyjNAeXYNmBVQHbNC5Oxd878RKYE5onNWyIQamuy/LKEo+pzoSgSMD72ITXQSAjxH6NBQ4WUM5RmgPLsGzAqorlkh4gqjzg1L9l8iOneFTKSQZD//2TmjToiuQEAO6M3RohMQ4Dno/yu6jKE8A5RnF8szzIrpcYdZIWbljDwRnuzrKzqHhUygwfHtnh6V1uM30ZUHyAOSO7kxXXKH8iw1pivPMCtuY8PefDZr6UyWtTVL+LVUBXeZFWJkauDxwXEdnhCdy0KSa0Ry132iKw6QCyR3cmO65A7lWWpMV55hVtzGoJGD2FVXXcXadGwj/FqqgjvNSvHRQjY8pdte0bksJLHCkjrlrNqR8JfoigPkAsmd3JguuUN5lhrTlWeYFbfx4qsvsu+8vmW33HaLmrQXCb+eyuJOs0Ks3BH7V3iSf5bonBaSUKpR6T4nL+K06EoD5APJndyYLrlDeZYa05VnmBW3QEO/qFcl76c81uDmBmzuijmltvcc3JNlFmWwiBkR7NXXX2Xxa+P5+pUb05h/b3/W/M3mrGO3jmzjvg22Y4ZPGs5iVi7hx7z74TvsnQ/+zebHzy913si5E9i37b9hL7V8iX3d9muWYD1vVXC3WSFm544+HZrQqbPo3BaSSEHxPzYemtwFL34EHgHJndyYLrlDeZYa05VnmBW30D+8P2v+xqv885fff8GNg/32hnc0ZG/85w32Zqs32cgpI1j+nvXciFx/w/V82FjE9DHckDRr0cx2zGv/fo01ebAJa/39l9yw0LF16tRmuTtz+PbVm1exBx99kAUMCGAT5oxnH3z+PrvpXzexTQcLqnTtnjArRHhS598HxnrdKTrHhSTRiJRuxev2Zwuv7EBOkNzJjemSO5RnqTFdeYZZcQvPvvgMNyz0eeL8SN67Yj8U7Lbbb+Nmw/4Y6g1p37m9bZn2v73R7WzZqqV8ucVbLdjb771t275x/0ZW64paLHJepNNroF6Zyy677JLel4rwlFnJ25fJRqQGFIrOcSEJFJ7YZcySgunnRVd0IC9I7uTGdMkdyrPUmK48w6xUG+rhUNMp3mNCTwObumgqu/zyy/lnbZ9bG97KJ+DbH1enbh3W6pNWzCfQx8Ydd93BQiKG8O0t327JWv/QutQx/7r1X7btBD2BbFjkUPZNu695Twx9L/XSVOX6PWVWiOgNU84NS+46QnSuCxlYQQnt7x+e0u2M6IoO5AbJndyYLrlDeZYa05VnmJVq0yekN7vxpht574oG9aR80eZz2z6OZoV6UdQ0jA/9sjcrRHTKIr4P9aw4MyvBoy2mIjkviU/mpx6asHFhLG1DKru2fj02etqoKl2/J80KoZqVszTdQHTOCxlU4UmddmXvSRde0YHcILmTG9MldyjPUmO68gyzUm2efOYJ1n1gYKl1IyaPYPWvq88Kj2zhy856Vhrd3YhPqi/rvBWZFe8Ab/Zss2dLbdejWcncncaGJvnvEJ3zQgZUeFLnXvPyxmJSPfA4SO7kxnTJHcqz1JiuPMOsVIv0gpW8hyQ1P6XUenoqWK1al7OpUVP4sjOzQsPGyNAsSVvMl8nYTIueattekVlp69eWPfnsk7ZtNJeFvlNvZoWYkzvm99BE3y6ic1/IQAqK87o6LMkPRgXUCEju5MZ0yR3Ks9SYrjzDrFSLwAGBrHGTxk63Ua/Hx60/4p+dmRWCemTqXVuPP/Xr2uuuZY83fZwVHrb0xlRkVlZtSudPA3vosYf445C79evKzYsezQoRmuh3Lij6s6tE58CQQTQ02X9ZQnH0/0RXcmAOkNzJjemSO5RnqTFdeYZZEQ71qCxKjrI9BawqFJUU8uO04WauUFNmJb4o6n9Dk7rEiM6BIQMoKNar6ai0nqdEV05gHoya3H322We8e98Zr732Wql9p06dyl599VV2/fXXsyZNmrAvv/ySbd261bY9MjLS6Xlo/9atW7Njx44J/32R3Ikvz7NmzWLPPfccLxc33HADe+aZZ3jZctyvqKiIffrpp+zee+9l9evXZy+88AIbNmwYO3v2rEvnc/X8MmK68gyzYnpqyqwQI1O7nwpa0e5xQSkwZBSFJ3feRpOdRFcOYB6Mblbuuusu1qxZs1L4+fnZ9qPPitV83HHHHaxu3br884033shWr17N99HMCiWN2jmefvppVqtWLb6+d+/ewn9fJHdiy/P06dN5WaD3JDz11FPcKGjlatSoUbb9kpKSWL169fj6a665ht199922/d566y2boajs+Ryp7PllxXTlGWbF9NSkWcnYlcrCkjptruncFzKQgld0+Hj+uvG/iq4YwFwY3ayEhoaWuU9OTg5PBuvUqcOWLl3K11EvyVdffcWPff755/k6zay8+eabpY7v3r07X//yyy8L/32R3Iktz82bN+dlYfLkybZ1Cxcu5Oseeughvnz69Gn24IMP8nV0HbRM6/Py8thtt93G12s9J5U5nyNVOb+smK48w6yYnpo0K8TsvNGHB8W1fU9MJgzpXqEJfj/jTfWgppHZrPz44498n3bt2pVav3v3bm5M3n33XX4nuiyzsmjRIr7+7bffFv77IrkTW54feeSRS8wAlR3qIaHhXLQcFRXF96HeDs1IaNBxtO3RRx+t9Pkcqcr5s7Oz+TL1Emr7aOVc63n8/fff2eDBg9n999/Pe2lefPFFtmrVKtv+Wg/OmTNn+DINP6Plxx9/3LbP4sWLWdOmTfnxDzzwAJs0aRLKszvLM8yK6alps5K3L4uFJvgeFpEHQzrXkHjvNjPWDscLIEGNY3Sz0rhxYz4fxZ7ExES+D32mfeiOdXnncmZWTpw4wdq2bcvXBwcHC/99kdyJLc/e3t68LNAbqF955RXe60bl6ujRo7Z9+vfvz/fp0KHDJceXlJTwbVdccQU7efJkpc7nSFXOXxmz0qtXL7785JNPsjZt2rDrrruONWjQwDafqyKzEh8fz5cbNmzIbwiQiaKeTDL5KM9uKs8wK6anps0KMTUr/HhIvPc3NZ8NQ7pWaKLvb/kHcoVXCmA+jG5WnDF79my+jzYPID09vdxzlTXBXnEYbmNETJfceag8//rrr8zf35/961//KlU+ateuzYYPH873+e677/i6gQMHOj2HNl+quLi4UudzpCrnr8isUJm++uqruSH5+eef+faIiAi+/YcffuDLFZmV119/nS8nJyfz5Y0bN/Ll++67D+XZXeUZZsX0iDAr6w+spUcZH6uJ/BcyiELiO/44K2fUadEVApgTo5uV8oaB0VwT2oeGqpR3LmcT7Bs1amSblL9r1y7hvy+SO32UZxqqtWHDBjZx4kQ+PFCx9o4UFhayfv36Oe352Lt3L9uxY4dtQv3x48crdT7H767K+SsyK3R+pQyDTsPBaP+KzAr1qDg7nh5MQT2TKM9uKM8wK7rkzsZ3sptvufmSRxLf0OAGXv6ph5O4vdHtLGj4QL5t3Kyx/J0rVf0uEWaFmJE9/DSN+qmxZBjSt0ITfI+tP5AjvPIBcyKzWaGhLbQP3cG2X093nm+//XY+hIzuMJc1Z4WG59D6cePGCf99kdyJK880t4MeDUw49rLRZHgqIzSfRJsgf88999gSfBoqRfM5tLJIvQ6VPZ/jdVT2/LReMyua8SDszcr27dv5Z+p9pGFb9iQkJPD9NbOiXaOjWaEn8SnWnkzHc9BQNJRnN5RnmBXdQe9coZdIkhGZsWR6qW1kVqJTFvHPmw4UsGGRQ/nNh9iMFdys0Esiq/p9oswKzaEOS/Q9WvNZMaQ7Bcd3+HhSRvBx0ZUPmBeZzUpGRgbfh95FQZ9pHd3J1obTaE/5Ksus0N+G1tMdbdG/L5I7seWZ3s9DZWHKlCm2dTSUS1tPT+Q6deoUn6xOyzQnhQwF9cqRKVasvQ4jR46s9Pkcr6Eq51+/fj1fvummm7g5onVauSezQuuuvfZa/n6X3377jW8ng0PGfubMmXyZ5q/Q/uvWrePL2iR+zaxoPUFr1qzhy4cPH2ZdunRhAwYMQHl2V3mGWdEdbTq2Ye06tWNt/dqyT7/5tNQ2e7Oiccedd7Dhk4YbzqwQE9cMPhEc3/79ms2MId0pLLHTVrxXBYjE6GbF2QT7li1b2vZr3769bWgNPSlJG95FcwNyc3P5PmWZlY4dO/L1AQEBwn9fJHdiy7OWqCvWoYFUzmjOBy3TS0g1Q0C9Etp6MslkPmholnas9vSvyp7PkcqenwwITZindWRwHnvsMXbllVeWmmBP7w+iZXqnkK+vL58/Q0NXUlJS+Ha6DsVqeMjYa3NiNLNCD7KgZeql7Ny5M69ftDxo0CCUZ3eVZ5gVXVF8tIj3qsRmxrKY9Bh2/Y3Xs82HNtm225sVWj9qykheP2NWLjGkWcF7VyAlKL59s4j03idEVz5gboxuVpxBCZf9vmRGaOw+JXeUGH700Ud8noD9dsWJWQkPD+frn3jiCeG/L5I78eWZhjdR0n7zzTfzoVc0ZKtPnz62CeoaW7Zs4WWMno5FCT6ZBeqdo3JE67T5HJU9nyOVPX9MTAwfFkbl/p133uFPtVPszAr1zNBxNBSMvp/eOxQbG2v7ns2bN/NhZLSNXlw5Z86cUmaFWLBgAV8mA0XGacSIESjP7izPMCu6YvayWeyxpx6zLTducg+bNH+ibZnMypVXXclq16nN26EGNzdgfUJ6821GNCvE6LQevwXFtX1OVK4MCdbw5K5z0nfE/yO68gFzY1SzApDcGa080+OFtccCG/H8esB05RlmRVd8+f0X3IiQKdGMyQdffGDb7mwYmIZRzUra9ri/hyZ1nio6Z4YEKDTxh5tDE3zPia54AOg5uQNI7lCeganLM8yKbthyeDO7scGNLD47zrZu2eqlrN619fhkelqW0awQIQk+f4TFe98gOneGalhD4jr0W5Q/GWYFCAfJndyYLrlDeZYa05VnmBXdMHnhZHb3vXdfsr5ho4bciNBnWc3KwvUTzw1J6NhLdO4M1bDwuGKgF5DcyY3pkjuUZ6kxXXmGWdENH37xIfvR54dL1n/d9mv27ofv8M+ymhV6jHFool+J6NwZqkENiuvw+rhV/TGxHugCJHdyY7rkDuVZakxXnmFWTI8ezAoRkd73+ODY9s1F59BQDSk8yX9S2vZYTKwHugDJndyYLrlDeZYa05VnmBXToxezkrpt+T9Dk/0nis6hoRrS4DhzBVugb5DcyY3pkjuUZ6kxXXmGWTE9ejErRUcLWXCc139F59BQDWhQvNdnUzJDToou/ABoILmTG9MldyjPUmO68gyzYnr0YlaIyZlDTg6Ka/+R6Fwa8rCGJvmvTN2+XHiBA0ADyZ3cmC65Q3mWGtOVZ5gV06Mns5KybRkLT+6UKDqXhjyo6OjPag2O6/A/0YUNAHuQ3MmN6ZI7lGepMV15hlkxPXoyKwRNZRCdT0Me1KCEdh/MWTcWQ8CArkByJzemS+5QnqXGdOUZZsX06M2szM4ZcyI4tn0r0Tk15CGFJ3SKSSxeLLygAWAPkju5MV1yh/IsNaYrzzArpkdvZiWhaBELT+q8SHRODXlIIQneZwoOrRde0ACwB8md3JguuUN5lhrTlWeYFdOjN7Oy4eA6FpLgc0p0Tg15QEGxXk1HpfU8JbqQAeAIkju5MV1yh/IsNaYrzzArpkdvZoUYmdr9VNCKdo+Lzq0hN2tIfIcBi/Kn/Fd0AQPAESR3cmO65A7lWWpMV55hVkyPHs3KwvxJfw5J9O4jOreG3KwRqYHpmbtShRcwABxBcic3pkvuUJ6lxnTlGWbF9OjRrKz5KYWNTOmWIjq3htwsemRx8dFC4QUMAEeQ3MmN6ZI7lGepMV15hlkxPXo0K4Ulm1lwfMe/RefWkBsVFNf2uTFpvU+LLlwAOCN0aKjwBAR4jtDwUOFlDOUZoDy7BswK0KNZIWgeNs3HFp1jQ27SoBVeAQvXR/4tumAB4Iyu3bqyo0ePCk9CgPspKSlh3QK6CS9jKM8A5dk1YFaAXs3K/HXj/hgU195fdI4NuUnhSf7pqdtXCC9YADhjzIQxbNu2bcITEeB+tm7dysZEjhFexlCeAcqza8CsAL2alZRty9jQZP9U0Tk25CaNSuuxbeNBvF8F6JM5MXPY/AXzhSciwP3MnTeXzVs2V3gZQ3kGKM+uAbMC9GpWNhzMo6FgW0Xn2JAbFLr0uwahCb5/iC5UAJRF4eEtzNvbW3giAtxPhw4dWHFJkfAyhvIMUJ5dA2YF6NWsECEJPufD07yuE51rQ9XUoHivluNX9cfLIIGuWbhiIYuNixWejAD3sTx2OYuKixJetlCeAcqz68CsAD2blbHp/U4Pjm/3iuhcG6qmBsd6dZm/bsJfogsUABUxcUYkWxKzRHhSAqpP9OJoNnnWJOFlCuUZoDxXD5gVoGezMnfd2POD4rx8RefaUDUVntR5UULRIuEFCoDKEDk9ksXG4o60kaE70GZN7FCe5cPs5RlmBejZrMQVRrGwpE5zROfaUDU1Iq17WvaeVcILFACVJSo2inn7ePPJrPRUJXpcqOiEBZQN/X+Ki4vZnLlzmFcHL7bIhENlUJ7lAeW5NDArQM9mJWvPSjYqrTveZG90hST4nC04nC+8QAFQFYpKCtm8pXPZ6Amj+XsN6EVs9OZoKXi6lfhrcBP0AkT6/4xR/0/0lCSzTT42fXl+r7WlPNNP0deC8uwRYFaAns3KxkPraZL9GdG5NlQNBa32qTckvuMF0YUJAHARNP5AFmZYk5gZOkxigHtAvAJ6NitEcHzHv4NWf19HdM4Nuaig+LaPjkgJOC26IAEALoLGH8gCzIr8IF4BvZuV4ckBZ4LivB4UnXNDLmpQXIf3JmUE47HFAOgINP5AFmBW5AfxCujdrESuGXR6UGz7d0Tn3JCLGhzr1W7RhqlnRRckAMBF0PgDWYBZkR/EK6B3sxKVP/nsoLh2P4jOuSEXFZzgPSymYJbwggQAuAgafyALMCvyg3gF9G5WlhTMYGq+Gyo654ZcFD17mp5BLbogAQAugsYfyALMivwgXgG9m5XYwgUsLKHTTNE5N+SiwhP9UlO3LxdekAAAF0HjD2QBZkV+EK+A3s1KyrZlLDy5U6LonBtyUUOTO29a81Oy8IIEALgIGn8gCzAr8oN4BfRuVlb/lMTCkzqvF51zQy4qLKnTwdx9GcILEgDgImj8gSzArMgP4hXQu1lZu3e1alY67RWdc0MuKjyx84H8A7nCCxIA4CJo/IEswKzID+IV0LtZWX8ghw1N6rxfdM4NuaiQBJ/TGw+tF16QAAAXQeMPZAFmRX4Qr4DezcqGg3ksJMH3pOicG3JRQ+K9z206vEF4QQIAXASNP5AFmBX5QbwCejcrBYfzVbPic1Z0zg25qCHxHc9vObJJeEECAFwEjT+QBZgV+UG8Ano3K5uPFLAhCR3/FJ1zQy4qOM7rv0UlW4QXJADARdD4A1mAWZEfxCugd7NCeW5wfIe/RefckIsamdpjr+hCBAAoDRp/IAswK/KDeAX0blaIUak99onOuSEXNTjOS3gBAgCUBo0/kAWYFflBvAJGMCuU74rOuSEXBbMCgP5A4w9kAWZFfhCvAMwK5FHBrACgP9D4AyOyOGKiyqRS68oyK5Z9Jwq/ZlB9EK8AzArkUcGsAKA/0PgDI7Jx5zrWqf4rLLDR2zbT4mhWyKDQdtqP9hd9zaD6IF4BmBXIo4JZAUB/oPEHRkVLWggyJUP/3Z5/Dv93O76sbdNzUgOqRkXxqmvfLqzR3Y1Y/evrs6eefZKFjg2t8JyrNqWzWxveWq3r6tqvK/vB53uXjn35tZdZ5LwJwv+2RgFmBfKoYFYA0B8wK8CoaL0rmilxBnpV5KK8eDV41GD2wCMPsCVpi1nx0SIWlxXL7rnvHjZ2ZkS553SHWUnLT2WJOQkuHRuzcgnL3pol/G9rFGBWII8KZgUA/QGzAoyMlri0V5pytM/oVZGT8uLVp19/cknvxsgpI1jf0D7884uvvsimL55m20Y9GrRMZuWW225hHbt1ZDffcjO785472ehpo/k+fcP6srfee4s1bnIP76358IsPWdi4UL5MRkjrEek+MND23XNXzGH3P3Q/u/qaq9mjTz7CYjNjy13f4s3mtvMsX7OM9wjVv64+e7zp49x4adfx2befqcc9yhrc1IC1fLslSy9YKfz/IQKYFcijglkBQH/ArAAjY9+7ohkWzaygV0U+yotXo6eOYvWurcc6dPFiy1Yv5b0r9tvLMytqisLadGzDNh/axKZETWF169blZoBMApmLlRvT2Jotq/n6Fm+1YIVHtnAT9GyzZ/m57M3KfQ/cx4efbT64iX3n9S1r9UmrctdrZmXL4c3cKAWNCOLnp30bNmrIr4muo1atWmxxajQr2L+RvfL6K6xj1w7C/x8igFmBPCqYFQD0B8wKMDr2vSv2P/WczADXqChezY2dy9796F3W4OYGvAfCy789y9+znm8rz6yQEdD2I8iQDBo5iJuEdz74t239k888aRtWlrwuid3e6Hb+2d6skIH50eeHS4Z2lbVeMyvRKYv4fBv7bY3vb8zmx8/j10Hfra3vF9aPffXjV8L/HyKAWYE8KpgVAPQHzAowOqXnrqBXRWaqEq/mxc3lQ6po6BYtO5qVl1q+ZDMrNza4sdSx37b/hnXu1ZmbhC/afG5b3/T5ptwQ0Weap+LMrFCvTvM3XmV16tZhjz31GJu1dGa56zWzQjz30nOlroMMFQ1Jo+v4/LuL1zFw2ACYFZgVyBOCWQFAf8CsABmwfzKY3hMZ4DrlxSsyDlFJUaXLhWpGGt11B/9MZmXqoim2bTTEqlTPyt6LPSuvv/M6C4kIqbJZoeFbNFSL1tFwrV7Bvdi9999b5npatu9ZoWFg9tff5MEm3HQ5XgfMir7rOMyKgQWzAoD+gFkBMmDfu4JeFXkpL1619WvLnnj6CRabsYIVlRSyjKI17M1Wb/6fvfMAj6Ja/zAqigKCiApSxF6xF9TrxY4F9W9BiqAUr3RFpEsRQbp0AQEJkITQWxJ6h1BDJyQBAoSW0Dvqtdzvv9+XzLgbZpJNdk+m7O/3PO/DzpnZ2Zmdyex5OefMUM16NWT+61Vfozr/qS3zRkQOl3Eq3mNWPm/WQKQibHqYDKbn7lq5lRVeN4+bGRw2SMag9BnWW5YxK+f3eo9Z4W5gPwzqLuNt+o7oS6XLlqYtBzZDVryArCBKA1kBwH5AVoBbcEIlBgRGdtcrruDz8074jlvXFb5OKvosJxv3xct8bnXhcSPFSxSXu3k9++9ndVm5/a7bZcA7j3XheTzInt+Tl25gA0b1p3K3laMiRYvQ/RXvp/BZ47Mt974b2Iyl02VsCm8jdxXj1haj7YCs2PvvHLLi4EBWALAfkBXgFrg1pVX5KmhVcTG4XgHICqI0kBUA7Ad+/EMP7m4SPm08DfhpALX8piX17N2TGjZs6A5q1bV+G4IEHxc+PgN/Gkjh08Np++Ftlp87VoPrFYCsIEoDWQHAfuDHP7SImh1FTZs1pQlREygpKYnS09Pp0qVLwKbw8eHjxMercZPGNCl6ouXnkJXgegUgK4jSQFYAsB/48Q8dfhr9E8XExlheAQd5JzommoaPGW75uWQVuF4ByAqiNJAVAOwHfvxDg2EeUZk1a6bllW0QONOnTw9ZYcH1CkBWEKWBrABgP/Dj734mzoqi6NhoyyvZIHjMjp5NE0OwS5hV16t1u9dSiZIlclyu8quVLf+O3A5kBVEayAoA9gOy4m54MH2z5s0sr1yD4NOkSRN5fofV51h+YndZKViwoOXfkduBrCBKA1kBwH5AVtwN3/UrKirK8oo1CD6RkZEUOSPC8nMsP8nP61W7bu2odJnS8iwVfn6LJisL4xfQv156Xh4ceWPJG6lZ66ZS/lKVl+ThkvzU+a0Ht5guBwIDsoIoDWQFAPsBWXE3fNvb5ORkyyvWIPgkJibSoGGDLD/H8pP8ul6NnTGWbrrlJopeMZvi924Q6dBk5f0a71O1OtVo0/6NFLMqmq697lpasX25zPNuWcluOZB3ICuI0kBWALAfkBV3w8/pwO2J3UlaWhp90+oby8+x/CS/rlf8dPimXi0h/NR6TVbidq6izambaPuRbTRt0VQqen1Rio2LkXnespLdciDvQFYQpYGsAGA/ICvuhh8saHWlGqijZ5+elp9j+Ul+Xa+qvFuFegzuoU8v27pUl5VJ8ybRw48/TOVuK0cvv/EyFS9R3FBWslsO5B3ICqI0kBUA7Adkxd3wk9CtrlADdfDxtfocy9fzOZ+uV7U/r+0zxmRYxDBdVm6/63aPyPxACek7ZLp8hXKGspLdciDvQFYQpYGsAGA/ICvuBrLibiArahg3YyzdXOpmmrM6VrpyvfT6izJInufdcOMNFDZtjLwe+MtAGVQ/c9kMmWZZ2XJgc47LgbwDWUGUBrICgP2ArLgbyIq7gayoo23XNvrdwLr06Sz/cnmvoT1l8P0dd99BDZrWp+qfVaeKj1WUea++9aq8h+8Glt1yIO9AVhClgawAYD8gK+4GsuJuICsg1ICsIEoDWQHAfuDH391AVtwNZAWEGpAVRGkgKwDYD/z4u5tgycrHH38sfe6NeOWVV/KlYn7+/HnBbP6YMWMu27YiRYrQU089RdHR0dmum28DzMuXLVvWdJkJEybIMnXq1LFcUiArIFSBrCBKA1kBwH7gx9/dBFtWKlSoQM8//7wPzZs3z5eK+X333SfbsGfPnmxlpXjx4vq23XrrrVJWqFAh2rRpk+m6jx07Jsu/9957kBUbg+sVgKwgSgNZAcB+4Mff3QRbVnr2tO65Lf7KStaWnrffflvKe/ToEdDnQ1asB9crAFlBlAayAoD9wI+/u8kvWalevbrMHzp0qF72xhtvSFlERARduHCBunXrRvfee690zXruuedo6dKl+rIsALxs//796bXXXqPrr7+eHnzwQZo3b57Mf+SRR3y6d8XFxfktK1WrVpXy8PBwn8/i5Xm7a9WqZdgNLCUlhd566y1pqalUqRJ9//33l8nKlClTRKLKlCkj+16qVCkqWrSoPn/z5s2yPzfccIO08rRo0SLbrmyQlRzOZ1yvQh7ICqI0kBUA7Ad+/N1NsGXlzjvvpMqVK/swd+5cmjhxoszXulGdO3dOhOO6666j48ePU/v27WX+Y489RnXr1hUBKFmyJO3cudNHIK655hqRlHLlysl06dKl6eLFiyItLARcNnz4cDpy5IiprJQoUULftvLly0sZCwlvk/dn3XXXXfJvtWrVLpMVFor7779fyh599FF6/PHH6YorrvCRlfXr18tzNa699lqqUqWKSMpVV12ly8rBgwdlW1jO+D0sPPz+r776CrKS1/MZ16uQB7KCKA1kBQD7gR9/d5MfA+zHjx9PJ0+elEp6sWLFRAq41aRAprzwdOHChWX+0aNHZX2DBw+W+fXr1/cRiM8++0ymeX0sAQW8un352w3MCN7+s2fP+nwWD7zftm2blGWVFa3L15NPPimtQgzLTwEvWfnwww9lul+/fjLNLUg8rcmK1hLTsWNHXeA04TLbB8hKDuczrlchD2QFURrICgD2Az/+7iY/x6xwCwUvs3DhQvruu+/kdVhYGG3fvt1UIrg7mLdAaF21GG5h4bIdO3bkSla8u4FxVy4WJi7v2rWrz2cNHDhQXy6rrLRr106mO3XqpC8zaNAgH1nhLm08zV29eJoH6V999dW6rNSsWdN0v2NiYiAreTmfcb0KeSAriNJAVgCwH/jxdzf5KSuRkZGyTNu2bemll16SLl3p6emUlJSkd7uaPHmyD3PmzPERCG7R0Nb30EMPBSwrzIwZM6Sct8nss7LKCt/hjKe7dOmiL/Pjjz/6yIrWxSwhIUGmT506Jd3eNFnRPofFJ+t+s0RBVvJwPuN6FfJAVhClgawAYD/w4+9u8lNWTpw4Id29WDK4CxcPTudy7kLF41d4/AZ37+IyHiDPg83Hjh2ba1lJTk7OlaywPHH5u+++67escKsLTz/99NMyZobLWHYKeMnKq6++6nNTgenTp/t0A+O7j/F09+7d9c/hmwzwfvN4FshKHs5nXK9CHsgKojSQFQDsB3783U1+DLB/+eWX9eU++OADvavTyJEj9fIOHTroY0CaNWtGt9xyiwxOX7Bggd+ywp/D09y9yqhlwmiA/T333KNvT9a7gWUnK/v375dnsxTIHNuiDY4v4CUrU6dOlWkeQP/OO+/IeJ0CXrJy6NAhuQsYr6dRo0YyCJ/ns+QE45hAVkAoAllBlAayAoD9wI+/u8mPAfYsHdpyLARaGVfWtXK+uxaP/+CuYFy558q/91Pl/ZGVmTNnShm30vCduMxkxRtu4eEWGR5vkt1nGd26mMeV8IMi+fNYsjp37uwjK8yQIUNE4Fi+evXqJf9637p4w4YN0iLDIsO3Lm7atKmMbYGs5PF8xvUq5IGsIEoDWQHAfuDH390ES1bA5fAdz7jr1759+2SaW3v49sbcmpNf2wBZAaEGZAVRGsgKAPYDP/7uBrKijiZNmkhLy7/+9S95zsz7778v061bt4asqDqfcb0KeSAriNJAVgCwH/jxdzeQFXXwDQX4AY98VzDubsbdwXhszpkzZyArqs5nXK9CHsgKojSQFQDsB3783Q1kxd1AVkCoAVlBlAayAoD9wI+/u4GsuBvICgg1ICuI0kBWALAf+PF3N06VFX4mSoEsd/YqU6YM1a1blw4fPizLaA9uHD58uOXbC1nJp/MZ16uQB7KCKA1kBQD7gR9/d+N0WeFxIHz74AceeECXlurVq8sy/fr1k3nTpk2zfHshK/l0PuN6FfJAVhClgawAYD/w4+9unC4r/BwTrWz8+PFSxg9ZvHDhguXbaAcgKyDUgKwgSgNZAcB+4Mff3bhJVo4cOaK3rvADJ7N2A+OHMfI030aYHwRZunRp+uKLL+j48eP6OjZv3kyvvfaaPFmeH9LYokULeWCl1fsLWfHzfMb1KuSBrCBKA1kBwH7gx9/duElWIiMjpYyfKM/TZrLC/1apUkVkpYBXt7GDBw9SiRIlqEiRIvIU+kqVKsl8vv2w1fsLWfHzfMb1KuSBrCBKA1kBwH7gx9/dOF1W+GnwlStXpocfflhvVeGHMWYnKz179pTppKQkeaL8VVddJYPyv//+e5nfsWNHmX/u3DkZtM9le/bssXyfISt+nM+4XoU8kBVEaSArANgP/Pi7G6fLije33HKLdOvihzFmJytbt27V11OxYkUpW758OdWsWfOydWrExMRYvs+QFT/OZ1yvQh7ICqI0kBUA7Ad+/N2N02XFuxtYVsxkZfv27foyjz/+uJStXr1aun7x63bt2tHkyZN9SElJsXyfISt+nM+4XoU8kBVEaSArANgP/Pi7m1CUlT59+sg0d+268sor5e5hx44dox49esj87t276+vo1q2bDLLn8SxW7zNkxY/zGderkAeygigNZAUA+4Eff3cTirLC/1atWpXKli0r019++aXM5zuI8V3AWF4aNWokg/B5/quvvmr5/kJW/Dyfcb0KeSAriNJAVgCwH/jxdzehKCt817C7776bSpUqJXf64oH02ns2bNhAL730EhUrVkxuXdy0aVNpdbF6fyErfp7PuF6FPJAVRGkgKwDYD/z4uxunykpe0GTFyc9NgazkcD7jehXyQFYQpYGsgFClRMkScvvUggULCmXLl6Wu/b7L8X3tu7enzxp+Kq+LFS9G63avDfq24cff3UBW3A1kBYQakBVEaSArIFRhWZmyYLK83nJgM/Ud3kcG/kavmJ3t+yArIODjG0Kywl3HXn/9dbpw4YLl2wJZUXQ+43oV8kBWEKWBrIBQxVtWNMrdVo76/dyPIqIj6IlKT+jlE+dG6dOQFRDw8Q0hWQlFICsg1ICsIEoDWQGhiresbD20hQaM6i9P1p6+eBpkBSgFsuJuICsg1ICsIEoDWQGhCsvK1ddcTYWuLSRjVkreXJK+7dFB5kFWgEogK+4GsgJCDcgKojSQFRCqGHUD08gqK1FzJkBWQPCOL2TF1UBWQKgBWUGUBrICQpWcZOXxpx/Tp3sM/gGyAoJ3fCErrgayAkINyAqiNJAVEKpkJyszl82ga6+7lhZvWkSbUzfRU889BVkBwTu+kBVXA1kBoQZkBVEayAoIVbKTlYT0HdSgaX0qXaY0FSlahGrWqwFZAUGjZ5+elleogTp69u5p+TmWn+B6BSAriNJAVgCwH/jxdzctv2lJ6enplleqQfBJS0ujb1p9Y/k5lp/gegUgK4jSQFYAsB/48Xc3g4YNosTERMsr1iD47Ny5kwYNH2T5OZaf4HoFICuI0kBWALAf+PF3N+HTw2lC1ATLK9Yg+ERERlDkzAjLz7H8BNcrAFlBlAayAoD9wI+/u9l+eBs1adLE8oo1CD6NGjWihLQdlp9j+QmuVwCygigNZAUA+4Eff/czcfZEio6JtrxyDYLHrOhZNClmkuXnVn6D6xWArCBKA1kBoczsFbPo82YNclyuZaeWVL9pvXzbLvz4hwYjwobTtOnTLK9kg8CZMnUKjRz3s+XnlBXgegUgK4jSQFZAKMMPf3zm+adzXG5R/EKau2ZOUD5zy4HNOS6DH//QYfiY4RQdjRYWJ8MtKqEqKgyuVwCygigNZAU4jelLptMjTzxCxW4oRv96+V/y4EYun7V8pjx1np99wvOnLZoq5dx68vgzj1PVD6tSyZtK0qNPPkph08NodWIclbutHF1X+DqZx8t2+KE9lS1fVp6twuuIjYuR8jbftdZbVvj5LG2/byvPYCl/e3nq2Kujvm3jZoyl+x66j2665SZ68703aU3SainnZ7N83vxzevG1ylSrfi1avm0ZPf/ic1T0+qLyeYPG+N49CD/+ocWk6EnUpGkTGZzNdwnj299aXQEH5vDxSUhIoPCIcGrYqCFNDsGuX97gegUgK4jSQFaAk9h6cAuVKV9GKveb9m+Uiv9Lr79I2w5vpdvuuI26/tiVth/ZRj2H9JTlth7aIrLiOdVFGPhhj83bNtcf8OjdssKtJ4WuLSTSw60fNepWp+qfVZd5WWWlyrtV5DPHzxxHBQsWlOVZfliUImaHyzbw8i9VeUnew5/NcsUyw9vA283r5vcNHD1AxMd7P/HjH3rsSNtOkTMiaOCwgfKcDn6wID8J3fG8W4saPvlOxr9Wb0sQ4Ad68vEZ5DlOfNevUBtMbwSuVwCygigNZAU4Ca7sP/jIg/o0t1ywuPCT6LmVw3vZO++9kybERoqsXH3N1RS/d4OUR6+YTffcf4+89pYVFqGVCSv09db+vDa9/f5bMp1VVkZNGqV/zo0lbxRR6T6wm7SWaOVLtyyhK6+8kjakrBdZeeXNV/R5TVs3lVahOatjDfcTP/7ALYRlVmLCbFyJAYGB6xWArCBKA1kBTqLPsN702tuvXlY+PHIYPfOvZ3zKXnjlBRr4y0CRlTvuvkMv565dRrLCLSX1mtSj0mVLU8XHKsr6zGRlxfbl+vq4yxfLSjOPgPA8Xrc33OWLZaVWvZr6e1iGqtWpRsVLFKfyFcpR596dfbYdP/7ALUBW3A+uVwCygigNZAU4iV+mjJaxJNo0S0LrLq2kZYW7gXkvy6IQGRMhsnLnPTnLSt8RfaXVhtfJ072G9jSXlR2Xy0qXPp1FQLRylh/+fH7NsvJJg0/0edy6E79vg3T94fEzPHaFpUabjx9/4BYgK+4H1ysAWUGUBrICnMTGffF0c6mbaUTkcBnv8VnDT2VcCIsBdwP7YVB3GRPC4sEtJLxMTrLCA+75dcee31KlFyrJOJd1u9fKuJbXq74m8/yRFR7ozwP4o+ZMkC5ljVs20lt7ssoKD7TnAfcsLDGroqlwkcK0MH6BPh8//sAtQFbcD65XALKCKA1kBTiNiXOjpAWEB7OzDPDAeC6fsXQ6PfbUY9K16uHHH5bWFi7PTlbWJK+WFhmWEhaU5yo/RyVvLimi0nd4HxGRwWGD/JIVfj0sYpiMleFt43Vp25ZVVngQf8XHHpK7jt1a7lZplfHeR/z4A7cAWXE/uF4ByAqiNJAVAOwHfvyBW4CsuB9crwBkBVEayAoA9gM//sAtQFbcD65XALKCKA1kBQD7gR9/4BYgK+4H1ysAWUGUBrICgP3Ajz9wC5AV94PrFYCsIEoDWQHAfuDHH7gFyIr7wfUKQFYQpYGsAGA/8OMP3AJkxf3gegUgK4jSQFYAsB/48QduAbLifnC9ApAVRGkgKwDYD/z4A7cAWXE/uF4ByAqiNJAVAOwHfvyBW4CsuB9crwBkBVEayAoA9gM//sAtQFbcD65XALKCKA1kBQD7gR9/4BYgK+4H1ysAWUGUBrICgP3Ajz9wC5AV94PrFYCsIEoDWQHAfuDHHziRqYNHePjZp8xMVjKWHWH5NoPAwfUKQFYQpYGsAGA/8OMPnMimXevpy2L/ptbl39ClJaussKDwfF6Ol7d6m0Hg4HoFICuI0kBWALAf+PEHTkWrtDAsJX3e/EJe937zPzKtzbNzpQbkDlyvAGQFURrICgD2Az/+wKlorSualBiBVhV3gesVgKwgSgNZAcB+4McfOBmt4vJFgScE7TVaVdwJrlcAsoIoDWQFAPuBH3/gZLxbVzRh0WQFrSruA9crAFlBlAayAoD9wI8/cDrerSve/9q5MgPyBq5XALKCKA1kBQD7gR9/4HR8x66gVcXN4HoFICuI0kBWALAf+PEHbsD7zmB2r8iAvIPrFYCsIEoDWQHAfuDHH7gB79YVtKq4F1yvAGQFURrICgD2Az/+wC04oRIDAgPXK+CEv3PIioMDWQHAfuDHH7gFbk1pVb4KWlVcDK5XALKCKA1kBQD7gR9/P0jfRjtT5tHOnZGUuGkQJa3pRMmrv6WkJY0oaVF9Spxfm/bEtaHEudWBxawb+4Hl2wCqZ/w9eP4u+O+D/07k72VNZ/n74b8j+XtK347rFcg1kBVEaSArANgP/PibsCeWdm7+iZJXtqLEeTVp76pWdHhjNzqZOIzO759Iv6XPo/8eW0R/nlxOf59ZQ3R+IwDAC/674L8P/jv5LX2u/N2c8Pz98N/R3lWtPVJTQ/6++O9s5545uF4Bv4CsIEoDWQHAfuDH34t9iygxvh8lLviUUuJa07Edg+nSoVmWV/oAcCuXDs2Uv7MUbolZ8Bklbuwvf4e4XgEzICuI0kBWALAf+PFPoKSdEbRrVRvas/xLOpk0kv46HWd5JQ6AUOOvU6voRNLPnr/D5rQrrp3n7zIS1ytwGZAVRGkgKwDYj1D+8U/cEUZJC+vR4Y3d6ff0+ZZX1gAAGfyePk+6iyUtauD5Ox2L6xXQgawgSgNZAcB+hOKPf1LSZNqzuj2lbelNf55cYXnFDABgzB8nl9ORzb3k7zUpeUpIXq+AL5AVRGkgKwDYj5D68T+4mpJWtaUD6zvTX6dXW14RAwD4x5+n4yjV83cr16sDq62/lgDLgKwgSgNZAcB+hIqsJG7/hZKXNKSLB6dZXvECAOQNvl4lL25IiTvGWH5NAdYAWUGUBrICgP0IBVlJXt2Rjmzpa3lFy4n87+w6OrFzKKUsb0JJ8z+h3Yvr04G17ejXw1nuknZuQwbKtiWejm7pQ7sW1qV9K7/Kv+8gy37x7Xf5OSJH4r+3/NiEIny94n8Pb+5DyWs6W35tAfkPZAVRGsgKAPbDzbKSmLqCkhbUoXP7J1leyXIqaZt+kMo5i8r+uJYiC/Lgv3k16be0ObLMX6dWZDwIcGlDZdvxe/pc+YxdCz+j08mj8m3/U5Y1ls/988Qymb50eKZ8DycShlh+bEIRTVaYc/ujPH/fn3n+zldZfq0B+QdkBVEayAoA9sOtspK4J5b2rm6HsSmBcG6DR1JqecSkhjzYL6M8no5u7SsV+PQtvaQsP2Tl0qEZ8hncqpOf30FWWQHW4i0rDN9mfC8/oyVlruXXHJA/QFYQpYGsAGA/3CgriUmTaO+qbyyvWDmdv06vzGxFqUF/HFusl/NTyc+mjKdLB2fQ3x4ZlGUySVpQW5bh8rRN3Wn34gaUvPBTOrS+k7yP5/12JFaW1Voodi2qJ1JwKnmE4XZoXa809iz9Qsr5s3ha66bF28jTe1c0l+mzKeNkOm1zD49Y9fR8Tl3ZnlPJI/9Zv+e9x3cMpJSljWR9+1d9LQ8q5Hm8Hu/P5e026gZ2MXWKvC95QR0RNpa5/51Zm7FNx5dkbNPypnR612jas6yh5/v4TL4btd3m3ElWWdHYu6ql5+9+iuXXHqAeyAqiNJAVAOyH22Qlcf9S2r+2g+WVKrewd0VTXUIOrvuWTib+JJJC59ZnLOP59+yesRldtDzScSE1o8tdalwrKTu4roOISuLcGlKh/9/Z9bqscKsNd+s6uLZ9RguOp+zM7l8u2waWnBM7h8j8fSub08UD06TcX1nhLmu8bd7y8d+jC2SZ9C29ZTplWRPZVl6W18uSwa05LDeyXXvCPAIWd5ms8LZo3eQObeist8RoLUCarMh6uSsdV6o93wWXsbxYfXydhpmsMPtWt6PE1GWWX4OAWiAriNJAVgCwH26SFW5R2b8GohJMuLJ9aEMnqWh7tzJw5Z8r87xM1m5gvx6ZLdOpq1vp6zkc30XKzqWE67KitVbwfE0s9q380nA7jLqB+SsrKUsb68toEsUtQ9IqNK+GtPz8fWaNzOdWFl6vJhJZu4FllRVuHdJkhqf/d3attPxk7FvMP7LiERR+LZ+RMCijxWfTD5YfX6eRnazI8VjTHi0sLgeygigNZAUA++EWWZExKqta5UuFKRThu4L9eiSaTiWN0Ftbdi/5XOZllZUzu8f4iI03x3cM0GWF7yymrV/rcsZSxONisn5+ILLCXcC092gtKSwXLBOyzjVtTPc7J1lJXlhHpv86tVJ/D9+1TPsMTVa45Uabf37fBNxRLI/kJCtyzFa2xBgWFwNZQZQGsgKA/XCFrKQul8H0Vlek3MafJ5bSqeSf6dzecN/yk8ulRYIr3Nw1KqusaJJwaH1Hqdx7w3f1+kdWGujrzBj7UkPGfRhtS/ayktElzVRWtvbS38OvNZFg+cpp0H5eZOVIfNfMLm1jfMasaPMhK3nHH1lheND9ztQV1l+bQNCBrCBKA1kBwH64QVYS59fBXb8UIFKS2dqhjfFg/ntsYYZYLPxUpv+RlYyB73qLhZcEnNsbSce2/SiC4NMNLPP2x+dSIvRB90bbYiQrPN6Fy35PnyfTmpz4KysZrTk1ZMD7P93ABsh+sWjwtCYrf3jEjadz7ga2TgbycxnvK2QluPgrK3+dWiW3Nbb62gSCD2QFURrICgD2w+mywg98xHNU1HFkU3ddLFgC9q1qoQ8Q1541whV0aeWYV0PGY3CZNjaEB9fzna94gDl3+2JB0GVFBr7XlRYYrZXkQupEw+0wkhXuvpXx7JW68nnaIH1/ZYWn0zL3jx96ydvK62BZ0VpSUjM/43B8V5G3ywfYT9VvFnB443ciJd5dyyArwcVfWWHO7YvCgyNdCGQFURrICgD2w8mykrhtNJ5Mrxi+exffUnjvimbSRYtbIfgJ8nwHMO+xJXyXMO7WtWfJf2T671Nx0h2KB+Lze1hI/nt8oczzvnUxy82uRfVlELwmEEYYyQq38PA6WHR4YD633uRWVli0uMWHW4V4PXxTAG4Z0pa/kDpZRIP3nVtwjG5dfOHAFNq/skXmrYu/oKNb++gtNZCV4JIbWWEOb+5NidvHWH6tAsEDsoIoDWQFAPvhWFk5uJqSF39heeUJ5B5vWbF6W4CzyK2sMMmL/+O5Xqy1/poFggJkBVEayAoA9sOpspK0qi1dPDjN8soTyD2QFZBX8iIr3PKVFNfe8msWCA6QFURpICsA2A9HykrSZEpd39nyihPIG9wdjLtzHd3Wz/JtAc4iL7LCpK7r5Llu4PkrbgCygigNZAUA++FEWdkd1x53/wIgBMmrrPx5ahXtXt3B8msXCBzICqI0kBUA7IfjZGX7GDqypbfllSYAQP6TV1lhDm/qSTt3jLX+GgYCArKCKA1kBQD74TRZSVpYn/48ucLyShMAIP8JRFb+OLGMkhY1sPwaBgIDsoIoDWQFAPvhKFlJCKdDG3+wvMIEALCGQGSFORjfjXbujLT+WgbyDGQFURrICgD2w0mykryqDf3u9SR1AEBoEais/JY+j3bFtbP8WgbyDmQFURrICgD2wzGysm8R7VnxpeWVJQCAdQQqK8ye5c1o5/4l1l/TQJ6ArCBKA1kBwH44RVYS4/vRyaSRlleWAADWEQxZOZk4ghI39rf8mgbyBmQFURrICgD2wymykrTgU/rrdJzllSUAgHUEQ1b+PLWSkhbWtfyaBvIGZAVRGsgKAPbDEbKyO5ZSVrWyvKLkFv44vZ4WRI+hUSN+pFatvqZ+fXtQw4YNgc3g48LHZ7TnOPHx+tNz3Kw+d6wmGLLC7I1rRTv3zLX+2gZyDWQFURrICgD2wwmykrh5KB3bMdjyipIbWDI3nJo1a0oTJ06gpKQkSk9Pp0uXLgGbwseHj9PEqEhq0qQxLZ0Xbvk5ZCXBkpVj2wdS4pZhll/bQO6BrCBKA1kBwH44QVaSV7aiS4dmWV5RcjrhYYNpbmy05RVwkHfmeI5f1Pihlp9LVhEsWbl4aIbcXdDqaxvIPZAVRGkgKwDYD9vLSvo2SpxX0/JKktMJDxtCs2bNtLyyDQJnxvRpNGFcaApLsGSFSZxb3XN92WH9NQ7kCsgKojSQFQDsh+1lJWUexqsEyOK54WhRcRmxMbNo6bwIy8+t/CaYspKyqiXt3LvA+mscyBWQFURpICsA2A/by8rOSDq0sbvllSSnwoPpmzdvZnnlGgQfHsPy99kNlp9j+UkwZeVQ/Pee60uU9dc4kCsgK4jSQFYAsB92l5XETQPpxM5hlleSnMr86DE0MWqC5RVrEHwmREbQwtgwy8+x/CSYsnI8YSjt3DTY8mscyB2QFURpICsA2A+7y0rymk50fv9EyytJTmXUiP6UnJxsecUaBJ/ExET65ecBlp9j+UkwZeXcvgmUtKaL5dc4kDsgK4jSQFYAsB92l5Vdcd/Sr+lzLa8kOZVWrVri9sQuJS0tjdq0bmn5OZafBFNWfk2bQ7vWdLT8GgdyB2QFURrICgD2w+6ykrSkEf332CLLK0lOpV+fHpZXqoE6+MGRVp9j+UkwZeX3owspaWljy69xIHdAVhClgawAYD9sLyuL6tOfJ5dbXklyKvwkdKsr1EAdfHytPsfy9XwOoqz8cWK55/rSwPJrHMgdkBVEaSArANgPu8tK4vza9PeZNZZXkpwKZMXdQFbyzl+n13iuL3Usv8aB3AFZQZQGsgKA/bC7rOyJa215BcnJQFbcDWQlMPbE4Sn2TgOygigNZAUA+2F3WeGnTFtdQXIykBV3A1kJDHmKvQ2uc8B/ICuI0kBWALAfkBV3A1lxN5CVwICsOA/ICqI0kBUA7Adkxd1AVtwNZCUwICvOA7KCKA1kBQD7AVlxN5AVdwNZCQzIivOArCBKA1kBwH5AVtwNZMXdQFYCA7LiPCAriNJAVgCwH5AVdwNZcTeQlcCArDgPyAqiNJAVAOwHZMXdQFbcDWQlMCArzgOygigNZAUA+wFZcTeQFXcDWQkMyIrzgKwgSgNZAcB+QFbcDWTF3UBWAgOy4jwgK4jSQFYAsB+QFXcDWXE3kJXAgKw4D8gKojSQFQDsB2TF3dhJVvr27cs/4D7ccMMN9Oqrr9LGjRsDWvfHH3982bo1XnnlFVmme/fuMl2nTh39fWfOnKHnn39eyj/66CO6ePEinTp1irp27UoPPPAAFS5cmEqXLk1VqlShxYsXW/4dQlYgK6EOZAVRGsgKAPYDsuJu7CgrN910kwjCk08+SQULFpSy22+/XSQhUFmpUKGCrNub5s2bm8rKp59+KmXPPPOM/vn16tWTsmuvvVbez9vL09dccw2tXr3a8u8RshK89UFWnAdkBVEayAoA9gOy4m7sKCssFlrZ7t27dWFZsmRJwLLSs2dP02WyykqvXr10Udq/f7+UnT17lgoVKiTbtH37dim7cOECffnll7Ksnb5PyErgQFacB2QFURrICgD2A7LibuxUuTaSFeaRRx6R8qioKBo1apS8bty4MX333Xd0//33yzJpaWlUt25dKlOmjHQde//992nv3r15lpWZM2fSVVddRcWLF6dNmzbpyxw8eFCWYVnZsWOHXr5v3z4aM2YMzZ071/LvMTeykjg7wvJzMKjnM2Ql5IGsIEoDWQHAfkBW3I3dZYWF4+qrr5Zy7mKlycpdd90l/95yyy2y3AsvvCDTVatWFVFh0ahUqZKMOfGWlTvvvJMqV67sgyYYmqzw+4oVKyavp0+fftl2VqxYUeYVKVKE3nnnHerWrZus49y5c5Z/h/7Kypwu3ajJ1c9Qi+IvWH4OBvV8hqyEPJAVRGkgKwDYD8iKu7GjrLCAsEQ8++yzuqg8/PDD0t1Kk5Xrr79eBrTzgPelS5dKGb9HW1e1atWkLCwszEdWjBg/fryPrHjTtGnTy7YzKSmJPvjgAxlc771sqVKlaP78+ZZ/j9nJCktK02sqUZNCz1Dzws/RutHDLD8Hg3o+Q1ZCHsgKojSQFQDsB2TF3dhRVrwpWrSo3GkrMTFRltFk5cMPP9TfN2zYMFMRadu2rY+s+NMNjOncubMIEb+eMWOG4fKnT5+mZcuWydgWrbWlXLlyln+PWWXlr1PrfSSF/6aZb2560fLzL+jnM2Ql5IGsIEoDWQHAnG7P19YrGQAEjSffsbxCnVVWso5Z8cZ7zErWsnfffZcmT57sw7p163ItK9yNjKdHjBgh0zfffLOMSeGyXbt2yXaOGzfO570pKSn6jQCOHDli+XfpLSujqzWWLl+Wn2v5QP9/14KshDiQFURpICsAmMMX31D6XH9By0qA/xNtw5aV3MrKypUrpez111/Xy8LDw6lFixa0YsWKXMuK962LeQwMl/GzXrjLGY+h4WnuAuY98H7r1q105ZVXyuB+q7/HrLIiLSudu1GTa56R1hWtYu/GlpVgA1lxHpAVRGkgKwCYA1kxBrISGG6QFUYbYM+tInxXMB7rwg9r5Lt3ecuK0QD7l19+2VRW+JbF3LLC5dzdi8u0Z69cccUVMpaGnwfDA/oLZHYfs/p7zCor3sfbW1qaFX7WdWNWgg1kxXlAVhClgawAYA5kxRjISmC4RVYOHz5MtWrVkkHuJUqUkC5h27Zt0+dnN8Ceu2+ZyQozadIk/aGPa9askTuM9e7dW8ap8LiWG2+8kZ566ikaOXKktL5Y/T1mJysaIi18N7Bi7robWLCBrDgPyAqiNJAVAMyBrBgDWQkMO8kKyD9Z0dg5K9zyc9DOQFacB2QFURrICgDmQFaM8VdWHnvkPpo1sX+2y6xbOo6eeuJBeR01pgdFju4ur3t//yW1/urTHD/jhhuup7OHlvu9vBEJ6ydT268/u2x7VAFZcTeh9gT7YANZcR6QFURpICsAmANZMSaYsnLu8HJa7xEEfv1D5ybUtUNGRS81IYZ2b5mR42dosuLv8kbELfyFXvr3k5dtjyogK+4GshIYkBXnAVlBlAayAoA5kBVj8iIrN5W8gQb0aknlypaiu+4sRz/92FbKN66IkJaMedOH0C033ygM7P0N/djja72lZP+OaKry6rNUokQxuvmmErrQMJqseC/P6+PPYXj+44/eJ+VLYkbQow/fS0WLFpZt4G07mbqY7ri9LBUpch19Uv1NfXt4+b/PbqBObT+nsmVuEdq1rEt/nVkv86q9/yp169hY3ntr6ZuoyX+q6fMgK6ENZAWyEmpAVhClgawAYA5kxZi8ygpX8P88vY5WzBtFBQteRb+fWOMjB94tK97yUa/2u/RFvQ/o12NxlLRxGl13XSFK3zPfVFY0/ji1TtY9dsR3Mn17hTIUNryLbEPE6G503z0VpNy7ZcV7e8b93FXk5mjKAjqxf7GUjxrSUZeVu+8sL+XH9i6kUreUpMXRwyErALICWQk5ICuI0kBWADAHsmJMXmVlwcyf9HncQsKtGv7ICgvBb8dXS8vF5lWRVKxYEUreNC1HWeFxKNU/fF2fPpw8l/53Ll6kh2WldKmS2crKO2/+W5bT3j95XC9p4dFkpUOr+vq8jz94jaZF9IGsAMgKZCXkgKwgSgNZAcAcyIoxeZUVrTWEYVHwV1Y2LBtPzzz5kHS5eu/tynRjieI5ysqi2cOowm230pmDy/QyblW59+4K9NADd9GH772So6zwv9wKpL2fB99XfPAuXVYmhvXQ59WsVgWyAiArkJWQBLKCKA1kBQBzICvG5FVWuDtVXmSFBYO7cnGrCE/feUfZbGWFW2J4vMryuSP1z0vbPV+6jyXGT5Xpg4mxfrWsaHcnY1hGXn+lki4rk8b2hKwAyApkJeSBrCBKA1kBwBzIijEqZaX9N/Uuk5WSNxaXwfGaMHguXbR97SRTWXn3rcr0besGPtuyY90kWfZU6hLpTtaiSS1podFk5dmnH75MVrglhgfn83aePrBUWneGD2gPWQGQFcgK8AKygigNZAUAcyArxqiSlWVzRsqdtVg8vOUjfNT3sjwPiG/T4jNq1OBDetojDkaysnfbLJEZblnhAfWMNpD+q8Y1RXx40PyYYZ3picfup1Zf1hER4cHy3DUs693AWHq0u4HxZ/PgfMgKgKxAVsA/QFYQpYGsAGAOZMUYPME+MCAr7gayEhiQFecBWUGUBrICgDmQFWMgK4EBWXE3kJXAgKw4D8gKojSQFQDMgawYA1kJDMiKu4GsBAZkxXlAVhClgawAYA5kxRjISmBAVtwNZCUwICvOA7KCKA1kBQBzICvGQFYCA7LibiArgQFZcR6QFURpICsAmANZMSY/ZYVvZazdptgtQFbcDWQlMCArzgOygigNZAUAcyArxuSnrLz28jM+D3fMid9PrLG8spUTkBV3A1kJDMiK84CsIEoDWQHAHMiKMSpkZcTADvJslOLFi9L/VX2RLh2No24dG1ORItfRHbeXlQc38oMdn6/0qDxbpdJTFWnzqkh579bVUfIE+o5tGtCTjz8gZYP7tpZnrFx/fRFZVnvi/ZmDy2T9/LwV/pdlaHH0cJnHT7V/47Xn5Jkwr770DG1YNl5JZaxf3x6WV6iBOvr16WF5hd/JQFacB2QFURrICgDmQFaMCbasHNu7kAoXvpaSNk6j80dWiJCMGtJR5mktK/wwRn5wI5fzE+jHj/yeKtx2K/1xap3ICktN3+5fyXRqQgxde20hkRtuaWn8+UfyIEleX4NP36OWzT6R9Y37uas8QFKTleeeeYR6f/+lPAySH2bJ8sQPnAx2ZaxVq5aUnp5ueaUaBJ+0tDRq07ql5RV+JwNZcR6QFURpICsAmANZMSbYsnIxfZW0qEz45Qf67fhqn3marPCT5e+6s5zPvAfuu4PWLA4TWSlRophIBpf/9+RaESB+fSp1CX3ZqIY8YZ6nixYtTCf2L9bXwU+mZ1nhJ98XK1aEfj0Wp8+79+4KFDNlYNArY6NH9KfExETLK9Yg+OzcuZN++bm/5RV+JwNZcR6QFURpICsAmANZMUZFN7DpkX3p6ScfkhYR7p7FXbK4XJOV2KmD6OXKT/m8583Xn6dpEX1EVh68/069nFtNWn1Zh8qXKyXr5PexrHArydVXF/RZB89nWeHPuO66QlTxwbt8mD0p+BXPBdFhFBU1wfKKNQg+kZERtCh2rOUVficDWXEekBVEaSArAJgDWTEm2LLC40h2b5khr7nVo06Nt6npFx/7yAq3rHA3MO/3sUysXjRGZIVfa+VRY3rQE4/dTydTM1pQwkd9L7Lyv3PxIkNaOcNCw7LCXdDuues2n/XzmBjulhbsytifp9dTkyaNLa9Yg+DTqFFD+vtsvOUVficDWXEekBVEaSArAJgDWTEm2LISvzycbi19E21bM1HGmLCo1Kv9rsxjWZk/Y6i0lnA3sLDhXUQ6WEhYNHj5rLIytF8beuXFp2X8CremvPDcY/The6/IvFofv0Ftv/5Muoxxt7MrrrhCZIWneR0/D+ogY2K4JYcH8l9IW6mkQrZ0XjjNiZ1teeUaBI+Y6Jm0fEGk5ZV9pwNZcR6QFURpICsAmANZMUZFN7AOrerLXbhYEPiOXEd2zZNyHjRfulRJWrXgF5EZHgR/Y4ni9MyTD0lrCy+TVVZYUFhySt1SUkSFpYTXMWNCPxnLwuu/5eYbqVnD6vT4o/fR2iUZ3Xb4jmEvvvCkjH/h9S2JGaG0UhYVPpRmTJ9meSUbBM60qVNocuQwyyv6bgCy4jwgK4jSQFYAMAeyYoyTn2DftUND6TrGrw8lzZE7fqno6uUvE8YNpdgYtLA4mZjoWTQpYrjl57ZbgKw4D8gKojSQFQDMgawY42RZ4buHVX3jBXr04Xvp2acfpqWxP1u+TcvmR1DTpk1owoQIuUsY3/7W6go4MIePT0JCAk2IDJcxKuj6FVwgK84DsoIoDWQFAHMgK8Y4WVbsCo+ZWRQbJre95ed08IMj+UnojufdWtTwyXcy/rV6W4LAj57jwseHj9Pi2LEYTK8AyIrzgKwgSgNZAcAcyIoxkBXgLzEdvpPzmf+1eluAM4CsOA/ICqI0kBUAzIGsGANZAf4CWQG5BbLiPCAriNJAVgAwB7JiDGQF+AtkBeQWyIrzgKwgSgNZAcAcyIoxkBXgL5AVkFsgK84DsoIoDWQFAHMgK8ZAVoC/QFZAboGsOA/ICqI0kBUAzIGsGANZAf4CWQG5BbLiPCAriNJAVgAwB7JiDGQF+AtkBeQWyIrzgKwgSgNZAcAcyIoxkBXgL5AVkFsgK84DsoIoDWQFAHMgK8ZAVoC/QFZAboGsOA/ICqI0kBUAzIGsGANZAf4CWQG5BbLiPCAriNJAVgAwB7JiDGQF+AtkBeQWyIrzgKwgSgNZAcAcyIoxkBXgL5AVkFsgK84DsoIoDWQFAHMgK8ZAVoC/QFZAboGsOA/ICqI0kBUAzIGsGANZAf4CWQG5BbLiPCAriNJAVgAwB7JiDGQF+AtkBeQWyIrzgKwgSgNZAcAcyIoxkBXgL5AVkFsgK84DsoIoDWQFAHMgK8ZAVoC/QFZAboGsOA/ICqI0kBUAzIGsGANZAUasHjGE1vw81KfMTFZ4WcbqbQb2A7LiPCAriNJAVgAwB7JiDGQFGHHp4EpqUfwF6lChii4tWWWFBYXn83K8vNXbDOwHZMV5QFYQpYGsAGAOZMUYyAowIzpTThiWkuHvNJDXw6o2kGltXjS6hQETICvOA7KCKA1kBQBzICvGQFaAGVrriiYlRqBVBWQHZMV5QFYQpYGsAGAOZMUYyArIjkE1P5dz+IsCTwjaa01WBtb43PJtBPYFsuI8ICuI0kBWADAHsmIMZAVkB7ea1CvwmI+waLLC5WhVAdkBWXEekBVEaSArAJgDWTEGsgJyou1L/+fToqL92/bF9yzfNmBvICvOA7KCKA1kBQBzICvGQFZATni3rjREqwrIBZAV5wFZQZQGsgKAOZAVYyArwB+01hUNtKoAf4CsOA/ICqI0kBUAzIGsGANZAf7g3bqCVhXgL5AV5wFZQZQGsgKAOZAVYyArwF+01hW0qgB/gaw4D8gKojSQFQDMgawYA1kB/nJ231L6T5Gn6czeJZZvC3AGkBXnAVlBlAayAoA5kBVjICvB54/T62lB9BgaNeJHatXqa+rXtwc1bNjQHdSqa/02BAk+Lnx8RnuOEx+vPz3Hzepzx21AVpwHZAVRGsgKAOZAVoyBrASXJXPDqVmzpjRx4gRKSkqi9PR0unTpErApfHz4OE2MiqQmTRrT0nnhlp9DbgKy4jwgK4jSQFYAMAeyYgxkJXiEhw2mubHRllfAQd6Z4zl+UeOHWn4uuQXIivOArCBKA1kBwBzIijGQleAQHjaEZs2aaXllGwTOjOnTaMI4CEswgKw4D8gKojSQFQDMgawYA1kJnMVzw9Gi4jJiY2bR0nkRlp9bTgey4jwgK4jSQFYAMAeyYgxkJTB4MH3z5s0sr1yD4MNjWP4+u8Hyc8zJQFacB2QFURrICgDmQFaMgawExvzoMTQxaoLlFWsQfCZERtDC2DDLzzEnA1lxHpAVRGkgKwCYA1kxBrISGKNG9Kfk5GTLK9Yg+CQmJtIvPw+w/BxzMpAV5wFZQZQGsgKAOZAVYyArgdGqVUvcntilpKWlUZvWLS0/x5wMZMV5QFYQpYGsAGAOZMUYyEpg9OvTw/JKNVAHPzjS6nPMyUBWnAdkBVEayAoA5kBWjIGsBAY/Cd3qCjVQBx9fq88xJwNZcR6QFURpICsAmANZMQayEhiQFXcDWQkMyIrzgKwgSgNZAcAcyIoxkJXAgKy4G8hKYEBWnAdkBVEayAoA5kBWjIGsBAZkxd1AVgIDsuI8ICuI0kBWADAHsmIMZCUwICvuBrISGJAV5wFZQZQGsgKAOZAVYyArgQFZcTeQlcCArDgPyAqiNJAVAMyBrBgDWQkMyIq7gawEBmTFeUBWEKWBrABgDmTFGMhKYEBW3A1kJTAgK84DsoIoDWQFAHMgK8ZAVgIDsuJuICuBAVlxHpAVRGkgKwCYA1kxBrISGJAVdwNZCQzIivOArCBKA1kBwBzIijGQlcCArLgbyEpgQFacB2QFURrICgDmQFaMgawEBmTF3UBWAgOy4jwgK4jSQFYAMAeyYgxkJTAgK+4GshIYkBXnAVlBlAayAoA5kBVjICuBESxZ2bJlC//4mrJ48WJZ7vXXX5fpUaNG6e9NSkqim2++WcoHDhwoZStXrqQ333yTSpcuTYULF6YHHniAOnXqRMePHzfdhrJly172uVdddRXdd999NGPGDGVCwNukfV522+fNu+++K8vPnj0bsmJjICvOA7KCKA1kBQBzICvGQFYCI9iycuWVV9Lzzz9/GevXrzeUlWPHjlHFihWlrHnz5lK2detWKlKkiJTdfvvt9MQTT8h6efqDDz7IUVZ4ffyZzz33HJUpU0bKihcvTocPH4asgFwBWXEekBVEaSArAJgDWTEGshIYwZaVokWLZruct6xcvHiR3nnnHZmuWrUqXbhwQZbhFhQuq127tv6+xMREEQ4u379/f7aysnz5cr2MZahQoUJSPnfuXMgKyBWQFecBWUGUBrICgDmQFWMgK4Fhpay0bt1aXj/66KM+lfzGjRtL+aeffurz3ujoaBozZgwdPHjQb1lhHnnkESnnrmU8zdvI0+fPn5fpHTt2yDQvx9O8bTz9+eef0xdffCFd1LiF5scff/RbVtLT0+W93DLEksUtPfPmzbtMVnr06EGPP/44lShRQsr27dsHWbERkBXnAVlBlAayAoA5kBVjICuBEWxZ4TEilStX9uGTTz65TFa0f7kin5KS4rOuqKgovfL/4IMPiryMHDmSdu/ene02GMnKpk2bZMzL9ddfT+fOncuVrFxzzTVUqlQpXXauuOIKWZ8/ssJd0Apkdkl7//33qWDBgvL+pUuX+sgKl1WqVIkeeughmb7//vv1FibIivVAVpwHZAVRGsgKAOZAVoyBrARGfgyw5wHuWWXFG5aTrOsbMmQI3XvvvT7LccW+Vq1aunSYyUpWWDhWr16tL+evrNxzzz36Mi+88IKUcctOTrISGxsrr++44w46e/asLDN06FApe+ONN3xkhb8PnubltP2dOXMmZMUmQFacB2QFURrICgDmQFaMgawEhlXdwLhFpXPnzvL6xhtvNG012bVrF0VGRlL9+vXp6quvluVHjBiRraxoA+yfeuopeQ9LDo+Dya2scDcu7T2NGjWSsuHDh0tXLW692bZtm6Gs9OnTR15zi5D2fh7cz2Xly5f3kZVBgwbpy/ANBrisW7dukBWbAFlxHpAVRGkgKwCYA1kxBrISGFbJSv/+/WWaW0p4mruLad2fIiIiqG/fvjKo3vu9LA+8bLNmzbKVFe9uYDyonsv4FshZZUVroTGTFW/Z0MbRsKwMGDBAXv/f//2fzONB/AW8ZKV3797yukmTJvr7ExISpOzWW281lZWvvvpKyrp37w5ZsQmQFecBWUGUBrICgDmQFWMgK4Fh5QB7nk5LS6Ny5cpJWdeuXaWsQYMGMl2vXj299cNbbFhk/JWV1NRU/ZbKWlnJkiWlTLud8ujRo3MlK9zSUyCzmxgLFj9DRtt3vsNZTEyMTN955526EPXs2VPKXnvtNR9Z4WfJ8DTvJ49X4bJZs2ZBVmwCZMV5QFYQpYGsAGAOZMUYyEpg5McAe+aXX34xlBWGx3hwVy0ehM6isXHjRv05K9xd7OWXX6ZbbrlFb5kwu2OWkazwncMKZLZ6nD59WspeeeUVmb7ppptkLMp1112XK1nhz7/hhhv08TDarZGrV68uy7Kw8KD5Apl3OqtWrZreHU17OKYmKwxvgzaIn5fn90NW7AFkxXlAVhClgawAYA5kxRjISmDk1xPsv/vuO1NZYbhrV4HMQelHjx6ldevWyV20uNWFZYDL+VbG3J3KbBuMZIVbLPi2wFw+ZcoUKeOHTvLduliI+LbB4eHhuZIVnl62bJmMi+HWFBYoHlPj/dDJI0eOyK2Pb7vtNipWrJh8nvdzXjRZ4VakBx54QKSMy8yeIQNZsQbIivOArCBKA1kBwBzIijGQlcAIlqwAewJZCQzIivOArCBKA1kBwBzIijGQlcCArLgbyEpgQFacB2QFURrICgDmQFaMgawEBmTF3UBWAgOy4jwgK4jSQFYAMAeyYgxkJTAgK+4GshIYkBXnAVlBlAayAoA5kBVjICuBAVlxN5CVwICsOA/ICqI0kBUAzIGsGANZCQzIiruBrAQGZMV5QFYQpYGsAGAOZMUYyEpgQFbcDWQlMCArzgOygigNZAUAcyArxkBWAgOy4m4gK4EBWXEekBVEaSArAJgDWTEGshIYkBV3A1kJDMiK84CsIEoDWQHAHMiKMZCVwICsuBvISmBAVpwHZAVRGsgKAOZAVoyBrAQGZMXdQFYCA7LiPCAriNJAVgAwB7JiDGQlMCAr7gayEhiQFecBWUGUBrICgDmQFWMgK4EBWXE3kJXAgKw4D8gKojSQFQDMgawYA1kJDMiKu4GsBAZkxXlAVhClgawAYA5kxRjISmBAVtwNZCUwICvOA7KCKA1kBQBzICvGQFYCA7LibiArgQFZcR6QFURpnCgrCYe2UPycibRmRH9a1bktrWjRhBbXr0Nxbb+m+dXeBxbDx4GPBx8XPj5rfu5P8XMnUsLhrZafO7kFsmIMZCUwICvuBrISGJAV5wFZQZTGSbKyfuZ4WtmxNS2o+RHFd/mWDoSPpSOTJ9KJOTF0buUy+n3zRmAT+HjwceHjk+o5TvFdOtCCGh/Syk6t5ThafS75C2TFGMhKYPTr28PyCjVQR78+PSw/x5wMZMV5QFYQpXGCrMTPjqBFdWtTwpABlDZtsuUVcZB30qZOph1D+tPienUoPjrS8nMrJyArxkBWAqNVq5aUnp5ueaUaBJ+0tDRq07ql5eeYk4GsOA/ICqI0dpaVLWvn0rJmDWnz953p/KoVlle0QfA4v3I5beraiZY1b0Rb1s23/FwzA7JiDGQlMEaP6E+JiYmWV6xB8Nm5cyf98nN/y88xJwNZcR6QFURp7CorG6eOpQ1dvqVTC+ZaXrEG6jg5fw6t79SeNs6wZ9cwyIoxkJXAWBAdRlFREyyvWIPgExkZQYtix1p+jjkZyIrzgKwgSmNHWVk7qBdt+aGr5RVpkH9s7taF1g3pY/m5lxXIijGQlcD48/R6atKkseUVaxB8GjVqSH+fjbf8HHMykBXnAVlBlMZusrJh3DBKGjrQ8sozyH8SBw+gDREjLD8HvYGsGANZCZyl88JpTuxsyyvXIHjERM+k5QsiLT+3nA5kxXlAVhClsZOsrBncixIhKiHNziEDaM1PfS0/FzUgK8ZAVoJDVPhQmjF9muWVbBA406ZOocmRwyw/p9wAZMV5QFYQpbGLrGyYNlbv+nVy3pzLnt2xsFY1imvWiI5MjrK8Qp3vbNxAv3n4fVN83t7veZ+8n7F6X/xgU/cuFG+T2xtDVoyBrASPCeOGUmwMWlicTEz0LJoUMdzyc8ktQFacB2QFURo7yMqmNXNow3ff6pVVTVYWVP+Q1rb8ktZ+3ZwWfVI9s+yDkBt0v71HN9l3fq5MXt5/MGK8vH+bg8YBre/cgTavm2f5uQlZMQayElyWzY+gpk2b0IQJEXKXML79rdUVcGAOH5+EhASaEBkuY1TQ9Su4QFacB2QFURo7yArfnthbQDRZWVqvtl726/q10rLC5buGDrK8Mg1ZUcvJebG07KvGlp+bkBVjICvB5++zG2hRbJjc9paf08EPjuQnoTued2tRwyffyfjX6m0JAj96jgsfHz5Oi2PHYjC9AiArzgOygiiN1bKyYVa4PEfFt6J6uawwCX16SfmO3j/I9OmF82l9m29oce2atKxeHdrZr3dGdyfPvNRxYRnL9vrBIzcDaWWj/0j5kk9rZQrPQHnNn5E8eAAdj5ktMsQtOOs8P0TnViyT5S+uiaOt3b6T5RbWrEYrG35O+8eM0rdp+ef1ZH2HJ0X5vP/ssiX6Mv5s57Ye39P2nt1pyWef0LL6n9LeUSN89lljz4ifDCv3vPwKz7bxNi7/Tz1K6t+PfotfL9vl/f749m30/eLP42UX164hLVhHZ07X12f2/bFUrm/r2Zc6NWVf17ZoTkdnzdDfJ99X104yf32blvLd+my3Z793/TSYVjRqQItqfSytZsdiZhnu06bvOlr+4EjIijGQFeAvMR2+k/OZ/7V6W4AzgKw4D8gKojRWywo/mT7rAx+NZIUr3qubN9YrvhfiVmZUmD0VXpYJrjTzvJ19e/lUtld8UT9jXXVr+8gKV+rlPdU/1LuXsWxo87f98L0sv/X7LjId17QRbe7yLS2qndEd7cScGB9Z0dandVfjZXm+v9u5oMZHsr9xzRrrYsGSc2r+XBEdnmZxObNk4WWVeh7Hw/OX1f9MWk9YLHiaReHcymUiRzy9vvXXdCw6QwxYErhsVZOGtKlje9l/ntbEwfD72xSv7y8LS3yHNvKa90+Tr82dv81c7xcZ+5L5/WqykjzwR5nmY7m1e1cRJf7Ozy5ddNl+sTAu9oiblecnZMUYyArwF8gKyC2QFecBWUGUxkpZ2TBjPCUO6m/QBWiOXoFf16oFrfumhbRKaAPtzy5fKv87r1XINZnhFgkuO7diqV7ZZnk4NnuGPjhdk5H0aVNkekvXThly0TlDLtKnT5FprszzNFf0WTK4xYCnN37bVuanjv3FR1ZSx4fJ9NEZ0/RKPk/7u53cKqJV+Ne1/Mqn21dO3cCSMgUgYztXS6sOi43WOpO1G1j6jKkyza0qv21YL2X7fxklZRvatfKRFe/v78KqlfIZSQP66fuy9LPashzLxqmF8zKkqW4d+nXDOtkfliFNVnh5ljpe56W1q2Ud+34Z6SOHWUkY9CNtmB1u2TkKWTEGsgL8BbICcgtkxXlAVhClsVJWVn3bitKmTTaVFW94sD23fLAMeEuGESwcWmV7U+cOPuvWZEWrLGutDikjh+vdnHh6zVfNZPrSujW0Z/hQqcQvb/CZ/hn7w3xlRWsd4gq91sqRm+3kLlnaNu7o+YPPZ+QkK0dnz6T5H3+gtxCx3PH+aCKSVVZSfh6md/HS1nFh9aoMgWnwmY+sZP3+WEoSf+wjn6F9l8yZxYvoQOQ4H/ETkfKIjSYr3Cpk9l1ocnhZq9GUibSqc1vLzlHIijGQFeAvkBWQWyArzgOygiiNVbKScGgLLaj5kWEF1WzMijf8P/y8DLcq8LgMb7j7kPeYC0NZ8UiIt6xorRBZZYXHcvD0xm/bSWvKlu86GsoKd/fSun15y0petpNf50ZWZLsXzhMxWNn4P5eNT8kqK3t+/sln7I9ISKZI8Jgab1nx3q7zcSukyxe3jmzv1Z0OTYjQP49lhb8faeHxCJr2Hu8xK9zio7U6Zf0ujk6farpv8z0ClnBkmyXnKWTFGMgK8BfICsgtkBXnAVlBlMYqWYmfM5E2dvnWsHLqj6zsHjZEluF/tTLucsXywcIQDFnhrl8yJqN2Db0b2ermTXIlK3nZTjNZ0bqaZWXf6JEiQ9pNAU7MjdHH0XjLCouTdAPL7Oq2/D/1pWuWCMyIDIHh8TFmsnJ44oQMCerwzyB9bawLywqPd8lonfk0Y72e72zNV03/GbOycYN0AWPh4bu7ybbOiZHv4oBnG82OdXyn9hQ/f7Il5ylkxRjICvAXyArILZAV5wFZQZTGKllZM+JHSg0fl2dZubB6pYxj4XEt3G2Ku2lpA7/NKtu5lRUec8GiolXieZC91mrBguCPrORlO7PKSvLQQXpXKaM7ZyX06Snz+U5l3J2Mx/nI+JO2GeNPpJtYpkRI64xHIrSB/ty1jrttLcgcCC/jU0y2i8VCupp59mWTRyB4bIr2ffDNALxljgfQa6Kiywrvy6D+GfO/bCrbzQP3WXiOzppueqx5W9b+3N+S8xSyYgxkBfgLZAXkFsiK84CsIEpjlazwOIQjkyfmWVZELObP9VTMv5Y7dHH3pR29e+gSEqxuYIcnTRAh4fdxy4R2NysWAn9kJS/bmVVWzi5dLGNE+I5i+8aMvOx74FYK3g8eMC93FfMIAHfF0u+y5pETvjsZi5fWRYtbRfh2ycsb1JXtYhHSxgNl9/1xty7+Lvh9u4cP0eVLu4HAuRXLKb59a1nnuq+/lFsoe8sKCyAvy13B5NbFHmnSbnZgBh+DuO/aW3KeQlaMgawAf4GsgNwCWXEekBVEaaySleUtmui3/wXugEWNBdS7lYSFSMbbZNPNKydOzImm5V83teQ8hawYA1kB/gJZAbkFsuI8ICuI0lglK4vr15FngFhdwQbBg8fM8DgZvjMZ33GMB9xzCwuPUQnkWFv5vBXIijGQFeAvkBWQWyArzgOygiiNZd3A2n5teeUaBB/uSsZdyjRJ4QdRHo+dHfB64zznixXnKWTFGMgK8BfICsgtkBXnAVlBlMYqWeGuQVZXrIFz4PPFivMUsmIMZAX4C2QF5BbIivOArCBKA1kBTgCyYi8gK8BfICsgt0BWnAdkBVEayApwApAVewFZAf4CWQG5BbLiPCAriNJAVoATgKzYC8gK8BfICsgtkBXnAVlBlAayApwAZMVeQFaAv0BWQG6BrDgPyAqiNJAV4AQgK/YCsgL8BbICcgtkxXlAVhClgawAJwBZsReQFWDE6hFDaM3PQ33KzGSFl2Ws3mZgPyArzgOygigNZAU4AciKvYCsACMuHVxJLYq/QB0qVNGlJaussKDwfF6Ol7d6m4H9gKw4D8gKojRukJWUhfNp5uhRNHJAf/q2XVtq3qwZNWzYEOQz/L3z98/HYZbneOxduACy4rDP9RfICjAjOlNOGJaS4e80kNfDqjaQaW1eNLqFARMgK84DsoIojZNlZevsWTS4Tx/q2qULTZs2jXbu3Empqal0+vRpunTpEshn+Hvn75+PAx8PPi5DPMdnW/QsyIpDPtdfICvADK11RZMSI9CqArIDsuI8ICuI0jhVVsb9NIT69+tL+/fvt7ySDszZu3cv9evbh8b/NBSy4oDP9RfICsgOrXXliwJPCNprtKoAf4CsOA/ICqI0TpOVc+vX0jdff03btm61vCIO/Gfrli3UumVLOr9hHWTFxp/rL5AVkB3erSuasGiyglYVkBOQFecBWUGUxkmyctYjKn179KCjR49aXvkGuSc9PZ36/PBDnoQFsmIvICsgJ7xbV7z/RasKyAnIivOArCBK4yRZ4RYViIqzSUtLkxYWyIo9P9dfICsgJ3zHrqBVBfgPZMV5QFYQpXGKrIwbMoS2b9tmeWUbBM6WzZtzPYYFsmIvICvAH7zvDIZWFeAvkBXnAVlBlMYJssJ3/erft6/llWwQPPr17k3bY2ZDVmz2uf4CWQH+4N26glYV4C+QFecBWUGUxgmyMrh3L9z1y2WkpKTQkD69ISs2+1x/gawAf9FaV9CqAvwFsuI8ICuI0thdVviBj9936WJ55RoEny6dOtG+xQshKzb6XH+BrAB/4daU9re9jlYV4DeQFecBWUGUxu6yMnPUSJo2darlFWsQfKZMnkyzfxkFWbHR5/oLZCVv/Lp/HJ3a1IaOzH+D9k25j/ZE3krJYdfSgZlPUtLoAq5lfa9rLN8GlfDx4+O4Z0JZ2jf1Pjm+fJz5eFt9zjkRyIrzgKwgSmN3WRk5oL88Ed3qijUIPgkJCTRq4ADIio0+118gK/5zKWUUpS1+Tyq0+6c+RCdXfUVn43+g35Ii6c/UxfT3wVVEaRuBw+HjyMeTjysfXz7OfLwPzHzKc/zf95wHoy0/F50CZMV5QFYQpbG7rHzbri2lpqZaXrEGwYfHIXVq1w6yYqPP9RfISs6cT/xR/pf9UOzLdGZdZ/r70GrLK9Qg//n7UJzn+Hekw7GveM6H++l8Un/Lz027A1lxHpAVRGnsLivNmzWj06dPW16xBsHn1KlT9GXz5pAVG32uv0BWzPn90FRKnfEoHZ7zhvwvu9WVZWAffkuK8JwXVSh15mP0++Hplp+rdgWy4jwgK4jS2F1WGjZsaHmlGqiDjy9kxT6f6y+QFWNOrm0mXX8uJfxiecUY2JdLCaMzugSu+9Lyc9aOQFacB2QFURrICoCsmANZMQaycjlHFrxFx5bWs7wiDJzDsaWfec6bdyw/d+0GZMV5QFYQpYGsAMiKOZAVYyArvqRElaOLO0ZaXvkFzuPi9uG0d2IFy89hOwFZcR6QFURpICsAsmIOZMUYyMo/HIp9iX5LnmJ5pRc4l1+To+jw3FctP5ftAmTFeUBWEKWBrADIijmQFWMgKxlwi8rvu4xF5Y89s+QZHMlhhfKt0nt+Ux/5zLR57+Z5HadXt5J1HLdBl7ZA92ff5Pvk/XwsgrNN8URH1nvYEPR9/S0pCi0smUBWnAdkBVEayAqArJgDWTEGsrKRDs9/K9uuX5AV6/cn2LJybmNPWV/6/PeV7O/FbcMxhgWy4kggK4jSQFYAZMUcyIoxoS4rfNevnAbTQ1as3x+nyQpzbMmndHL9V5af45AVkBsgK4jShLKsfPDBB3zi6lx77bVUsWJFatOmDZ05c8byinwgDBgwwGffrrrqKrrrrruoZs2atG/fPn25MWPG+CzHFClShJ566imKjo6GrEBWDAllWeHnqPBtZ3OqdPojK38fWE5p8/+P9kTcQrvGXU+HY16hP/fN1+df2NJfKtzJY66l3eNLZMzfO0ef/+e+eXRo9r9p19iilDrtETq5splv5f7IBjq5qjntjarg2Y7rPMs8Sr/uDNPfnxJZRpbnstTpj9OZte11WUlf+BEdin5RtovX7f0+Xu+puJa0b9Jdst59k++l02vakXSTylzm5MqmlDKhrGfbr6E9kaXo6OJPiA6vk3m8ffwZ5+K705E5b9CRuW/7tz+GAtEj4zvybMfeqNvpzLpvDWWFn3HCr1OnPabPP7O+s5TJtmmytqZt5vdVSLb/+LIGnv1dJ8eCl9Xg7eTl/7t7Gh2c9Zx8T3sibvbIRp2MrmKeeWc3dM1Y/8Lqnn1pQnsn3uGfZE15IKSfwwJZcR6QFURpICsF6I477qDnn39eRIUr9Vz23nvvWS4cwZCVkiVLyr6xfBQuXFjKypQpQydPnvSRleLFi8tyzK233iplhQoVok2bNkFWQuhz/SWUZYUf+OjPc1T8kZXU6U9kVnwri4gk/XKVVNL/d3itpxI83TNdUCrhPI8FSVs2QxjWS+WXy7hSvt9TwU0afYVP5f7E8v/I9P7J94sUsQTsHlec/kiZ7SMrKVHlPf9eKRV1TVZ4XSkTytGBmU/r+/FHSrS8jyvwXLYn/CY6ElvFs84bZJrFSCrp67/LmO+RFJYR7XNOrW7pIysZn1tAHpToz/6YtbyIyMW+JvvG01yeF1m5sGWAvt3ceqJtz4kVDenP/fNFRHj6wIxnPPI2lv5KXeyRlGJyjHgb+djx/GOLa/vIirafu8NL+iUrl3aMpNSZT1h+rkNWgL9AVhClgawUkIq9VhYXF0dFixaV8rVr11ouHYHKCu+jVnbw4EF66KGHpLxv374+svLKK6/4vP/tt9+W8h49ekBWQuhz/SVUZeX8zh89leI3/Kpw5iQr3FKRUfF9Ui/jSru0OGz8gX71CBFXgM/Fd5N5vydNyKhIR5T2qajvn/JQxoBvD7wuvXJ/ZJ20yCSHFaa/D67IqJyv7ZDZjekDH1nhaa54S8tCpqxwxf9/h1ZlysV7GZXwJZ95yuKktcS7e9V/d08V0do1tohsx5n1nWQbfksKl/mnVn+TuV1VfWSFBey/e2b4tz8G3yEvKy1DmfJ4cdsQ2V8WpLzIyvFln2d83vz3pNXrz72xMo8lLqMVx7cbmNbyc2J5w0yBXCetZFz25965uqzw95KxjfGG+2EEy9f5pAGWn/OQFeAPkBVEaSArvrLC1KtXT8rbtm1Lq1atktc333wzXbhwQeYnJSVJ2Z133inTFSpUkOnJkyfTo48+KrLz8ssv065du/R1du3alW6//XZprShbtiw1b96czp4967MdLVu2pNtuu42KFStGH374Ie3cuZPeeOMNuv766+nBBx+khQsX6utLT0+nL774QtaptYrMmzcvW1nxlpPnnnsuW1mpWrWqlIeHh0NWQuhz/SVUZWXflPs8ld7IoMgKV+i9uxV5I12PWGgSRlP6gg89lfIHPYJQSP9ff++K9Ynljf5Z59r2euX+jz0zTdfP3cG8ZeW/u/+5o5kmK4djX9fLtC5Q3N1JkybuAubTdWnyPRliIK028dLFi+Vr78Q7pdWG52ndvTRZyeg6ttGv/TH6DllMksZcbSoBuZUVFgptW1m+Dkx/0rONrfXua1ll5cict0y/44vbhumywuLhr6ToMps4nvZPe9Dycx6yAvwBsoIoDWTlclkZPHiwlNeoUUOmWUp4euXKlTL9008/yXSrVq18ZIXHvFSqVEnkgqc//vhjmT9y5EiZZkmpXr26vnzv3r19tuOKK66gp59+Wn9/wYIFRV7uuecemb777rv1bWTZ4DLuuvb+++/Lsvz+pUuXZisrmzdvlnLu6uUtKyVKlKDKlSsL5cuXl7JatWrRuXPnICsh9Ln+EoqycjFlFB2KednvymZOsqJVZA9FvyQy4M3vyRPp4vZh0g2Kx0FwNyRNGDRZ4Qp2RhelJv+Ixpo2/8jK3hi9C1LW9V/aPsJHVrRWFXNZGZApK8+LrGXIyt0++7MnolSG+OyZoYsHdz/j9XH3MCNZ0bpr+bM/l3+H8fLdZtfNzlhWHjWVFYbF7fjS+pmSlTk+Jbqyoaxo+8H7m/U75vE33mNWcisrzKGYF+nSvjDLz33ICsgJyAqiNJCVy2WFWxO4nCvuPM0tLDzdsWNHmWY54Ok1a9b4yMro0aNleu7cuTLNA9p5etiwYVSnTh1ppeHpPn36yPxPPvnEZztat26tL18gc2zJ+fPn6dixY9Iiw2XcGhMbG6uPtdFaZ4YOHSpl3BKTnazs379fyq+88kq6ePGi4QB7DZYtbf2QldD4XH8JRVlJW/QenVnXOWiy8lvieF0AtLLzG3vJ3aB+SxxHRxfV8hnncWHLQB9Z4VaJjK5UFfWWBW18SUY3sA3S/YjHVHDXLflMT4Wd18+D0nOSFR6Hor2Pu4lJpXxJXekaxq0ZGa0os/T1ZuzrdTL2hAfc87TWCqWN9chOVnLcH0MZuTezG9gYmeZuYDzQPW3eO5fJyu+7Jun7pT0nRevepskKt+SweLBoZOxXpAgjd6fzlhXuJsbTp1Z9RRljdb7Ut4nFjL9j/k4DlZXTaztQ+pIPLT/3ISsgJyAriNJAVi6XlSFDhvi0rGzYsEGmeZA6y8MNN9ygdwHzlhUWAZ4+cOCA3pLC05oUVKtWjR544AERhQKZLRfe2zF16lSZnj59+mWD/G+66SYpO336tC47jRs31ucfPnxYyrhVJDtZ2bJli2HLinc3sJSUFPlsLufua5CV0PlcfwlFWeEBz38fWp1rWeFuRTz2whvuPsTLaAPseQA9D4DnAfU8aJ0ruqfivtYHZfN86fIkg8lvlPf+tX+hPnaEx35og7u9K/cnln+hjwNh+eF1cfemSwmjcpQVhu+uxV2/REQ8FXYeh8HL8G2NM8bP3CICwtsklfaVzTJaBGb/W299OTjzWflM79YaI1nxZ3+ywuN5Mr6TEp7v9E19oP+FrYMukxUWL77BQMZ+VcgQHc/37S0rmiDyfqcvrKaPmdGEMqObWAFpReJubn+lLhE54u0+uqi6LCfLe/aZlw9UVv46uNIjbE9Zfu5DVkBOQFYQpYGsXC4rDRo00MesaGU8ZoS7WfG4lAJerSDessID2Hma/y3gJSvt2rWT6ccee0wGtnfr1s1QVlhSvGXFWzS8ZYW7j/HrJk2a6PMTEhJ8JMRMVsaOHevXmJUZM2ZI+UsvvQRZCaHP9ZdQk5Vf94/z63bFxrJyOdw1i5f5O3VpRmXfIxHcAsJdwrQB51y51iSFx4Nc3DpYWi74/ZcyH0bJ4yJ4DAa3oLCQnFjR2Ldyf2S9jAHhz8u4dfEj0r1M28bsZIWFg2VK1j21orQE6fvHty5e1UK6SrHEsJR437qYb+fL3xdvO985i28YkNHyUlhaZoxkxa/9MeDs+i7y+bwdeyfeJRLxT8uL73NWWGJSom6T9fP+cYuIt6z8zyOj3Cqi3XKZjwsfHxapjHXGy93PWHq0ViJuseEWIF4nd9k7uqgm/e2RjGDIiuzDlPvpt9QIy/8GICsgOyAriNJAVnxlhe8Apo0Z0bp5MV26dJEybfyI97ycZOXhhx/2eU+LFi0CkpWYmBh9gL82pqRnz55S9tprr5nKCre+8BgXLufWmexkRev69u6770JWQuhz/SXUZOXUxjaeiu1Xea5wApBXTqxsRqc3t7f8bwCyArIDsoIoDWQlY+A6j0/hlo+rr77a8Dkr27Zt08dyaGNR/JWVt956Sx8M/+qrr+rPcvnoo4/yJCvcrYwH8vM0332Mu5fxdnPLz+LFi31khe9ixvv27LPP6hLGrS8nTpzwkRXvAfaakBXA3cAgKyaEmqwcmf8GnY3/wfKKKwg9zm74no4sfNvyvwHICsgOyAqiNJAV3yfYc3cv7uJl9AT7xx9//LIuYP7ICo8T4fEufEtjbsEICwuT+Tx9/PjxXMsKTx85coQ+//xz/VbH3K2LB/Zryxs9wZ4H5PPdyPbu3asvZzTAnr+H++67jwYNGqRUVCAr9vtcfwk1WcnNLYsBCCaheAtjyIrzgKwgShPKspJbtEHnTn5YpN2ArNjrc/0l1GRlT2Rp+tNrXAcA+cWf++ZTSlQ5y/8GICsgOyAriNJAVnKGu4DxYPZrrrlGngBv9fa4CciKvT7XX0JNVpLDrqW/D66yvOIKQo+/Dq6gXWMLW/43AFkB2QFZQZQGspIzM2fOlK5RjzzyiD4mBEBW3Pi5/hJqsnJg5pOWV1pB6CLnnw3+DiArwAzICqI0kBUAWTEHsmJMqMkK337W6gorCF3k/LPB3wFkBZgBWUGUBrICICvmQFaMgawAkH9AVoDdgawgSgNZAZAVcyArxkBWAMg/ICvg/9k7D/AoqvX/g/TeqyhIl6J06SCiqAgqFhQVqdKbdEF6IARCC72bQq/pjd5CEjokSJfeu3rv9d7f+8/76ux/A5uwSXb2zGy+7/N8nuyZMzuzuzM5ez57mtGBrCB0DVeRFV7L5MyZM2mqOI8aNYq++OILh1TCtemLL1y4kKbj8ID+X375xSniMHbs2OdWvE+KJ0+eCJAV1zqvvUBWAHAekBVgdCArCF3DFWQlLCyM2rdvn+aKsyNl5e7du1L553VU0nIcLy8vio2NNZys9O3bl7p16wZZcbHz2gtkBQDnAVkBRgeygtA1XEFWeEHE3bt3G0pWzAhk5XkgK7aBrBiDK4fDyGfJHJrmPikBN/l/AimDP7fpCZ+fb8LneOVImPJrClmBrJgRyApC1zC7rLCklCtXzpLmrkkDBw6kEiVKUK5cuah58+Z04sQJyePuVDz9sPXzuXLOkqLJymeffUaDBw+m4sWLy+rwI0eOtHR34u3ffvstNW7cWKYyrly5skxlPGHCBFmtvmDBguTm5ib7Xr9+PVE3sF27dlH9+vUpZ86csq+234vy+PVq3cDu3bsn673wPkWLFpXWpCtXrkger2zP51uzZg298sor8vrq1q1Lhw8fTvKzW7FiBVWpUoUKFCggksafmyYrDx8+pOHDh8uq93ys119/nfz8/CRv0KBBlCVLFsqcOTM1atRItu3du5eaNm1K+fLlo0KFCtHnn39ON2/ehKyY7Lz2AllRT0zEepruMYX27duX5hbc9A5/flyG8ed5aPsm5dcWsgJZMRuQFYSuYXZZGT9+PL3//vuWNHeb4sq3v78/7d+/nxo2bEgffvih3bLCCz9+/fXX0vXK29tbKt+TJ0+2yErCR0Zz586lU6dO0bvvviuV9u+++47Onj1LQ4YMoZdeeomuXr36nKywPHXp0oViYmJo/vz5ksdfji/Ks5aVzp07WwSJKygsTc2aNUskK5UqVRKBi46Opho1atBHH31k83MLDQ0V2Zg2bZoIDb83fu2arMyZM4dy585N69evl8+if//+Ii0PHjyQ/GdbVlju+HOLioqioKAgKlmyJP3888+QFZOd114gK2phUVm4YL7ySr4rsmD+XIrdtkH5NYasqC/ngP1AVhC6htllhSvIXHHW0gMGDKDatWvT48ePJX369GkKDw+3W1a4xYIr/lr+xIkTLS03XKHnFgYtb9WqVZQxY0b69ddfJc2tHAkfqUiHtazcunVLHnPFX3suV+jPnz+fbB4/1mSFWylYLlgytP3i4+NFMPh8mqwsW7bMks/C8ez71fj444+pQ4cOibax3GiyEhERIYthanlxcXFyfJYyTlvLCgvMjBkzZFIBbf9vvvmGOnXq9MKKAWTFWOe1F8iKOq4cCZUWANWVeldmmvtkuno0XPm1hqwAswBZQegaZpeV9957j9zd3S3pAwcOSDck7irVs2dP2rhxo0Vc7JEVPp51/vbt2ylTpkz06NEjkRXrMS2BgYEiN1qaz5PBhqxwXseOHeU43BrDLTUsUdrzksvTZIVbLFiMuCuY9evjFgzu+qXJysGDBy15tt6vBnf/4lYc6219+vRJNGaFW3fGjRsnUsNdyzIkISsMS9eSJUukBebtt9+WFifIivnOay+QFXX4LJ4lLauqK/SuzJ49e8hv6Rzl1xqyAswCZAWha5hdVr788kv68ccfE21jUeCKM1eyuSsTj1t5+vSpzco7d5OylpVWrVolyt+5c6d0DeNxK7ZkpVixYpZ0crKiVf55DEzNmjUpW7Zs0lXtRXkvkpVSpUrJWBJNVo4cOWLJS05WqlWrRgsWLEi0jT9HTVZmz54tY3C4pYqPw1/eGZKQlWvXrkmLE3/O3K2MP5euXbtCVkx4XnuBrKhj2pSJGKOiM/zji6f7JOXXGrICzAJkBaFrmF1Whg0bJl2atDS3FgQEBFjS3NKS8DalyxRXunnAuJbHAlO+fPnnuoFp4zIYHuzOFXt+nFpZ4XPzeBbrdUlYkniwfnJ5/Ni6Gxi3vvA0zdp+3P2Mu4Hx+JSUykq7du0s59Bo0qSJRVa45cW6xYrXsMmQhKz4+vpS4cKFE31u33//PWTFhOe1F8iKOnj2KtWV+fTANMgKZAXYDWQFoWuYXVZYGDSZYLglgAeZ79ixQyru/HzuFsazW/HA9IS3TAsXLqRLly5JSwanrWWF0zxg/tixYzImJX/+/JbuUqmVFR7LwYPTx4wZI2M/uNWkSJEiIgPJ5fExrQfYswDwIpHc2sPdvXhwPc/AxXkplRVtgP3MmTNltjSetphnI9NkpV69evKYx86wDLVo0UKOz/LH+f369aM2bdrIejJbt24VkeLPg9/PvHnzKEeOHJIPWTHXee0FsqIOexfKBWmDP2fV1xqyAswCZAWha5hdVngsScWKFenkyZOSvnHjhnQNY0HhLmA8tS5X7rX9eXpe7t6U8Naly9VXX32VSFZ4YDhPCcwtBdwKo80ElhZZ4bzVq1dLVykWEx5Pw12utLE0yeVZywqLQY8ePWScCguNramL7ZUVZvny5TK7GAsZiwmLiyYr3C3tzTffFIHhCQt40D/LB3+unB8cHCwzgPGMZJxmeeHPlbdpY4V4Xw8PjxdWCCArxjmvvUBW1AFZgay4OpAV8wFZQegaZpcVZuXKlTI4PCVfRDy9sHXXK6CuQgBZMc557QWyog7IivPKJtXXGrICzAJkBaFruIKs8NgTbkHhVhXVX3Ag5RUCyIpxzmsvkBV1QFacVzapvtaQFWAWICsIXcMVZIXR1jNR/QUHUl4hgKwY57z2AllRB2TFeWWT6msNWQFmAbKC0DVcRVaAOYGsGOu89gJZUQfKROeVTaqvNWQFmAXICkLXgKwA1RUCyIpxzmsvkBV1pLZM3L17N73//vsyCQZPnMGTeowePTrRmi08IUfC14LMEKjH/7s28QhPJGLvc3iyEW3CEWeXTaqvNWQFmAXICkLXgKwAlUBWjHVee4GsqCM1ZeLRo0cpV65cIgplypShWrVqyRpNnNZmAGR47aWGDRta1lNyNCmVFe7ey/uXK1dOSdmk+lpDVoBZgKwgdA3IimPgNVx4umNnnIt/ZeRJBZLK56mDtQUbU8tPP/1E69atc0qFALJinPPaC2RFHakpE7kFJaG4l6nZtW28rlO+fPlk+8WLF51SdkFWUgdkBRgdyApC14CsOAZnyor12iu24EUaN2/enKZzcCWB16HRe3pnyIqxzmsvkBV1pKZM5B8wMvyz4K31dl6EdtmyZbKYq1a2ZPinGxivF8WPedvXX38tLTO8ptXatWtp7ty5VLZsWVmjqVOnTpZuWh988IE8h9eg0s7BYsLbWFRsyQofT1vTideP+vjjj+nMmTOWfTV43Szen8ukKVOmyAK5/JqqV68ua0RpP+AsXrxY9uf3zIvd8lpSqS2bVF9ryAowC5AVhK4BWXEMRpGVe/fuOew83CVk6dKlur4XyIqxzmsvkBV1pKZMXLVqlaXSX6VKFanIL1q0SKTg2bIlwzOywhQtWtSSlzlzZsqUKRPVr1+fsmXLJtt4gVl+fkplhbunZcmSRaTjk08+oTp16kh+69atZcFffo2c5sV3N2zYIM8ZOnSobOOxN7xIL5e7nJ4wYYLka7LCrTHaa09t2aT6WkNWgFmArCB0jfQqKw8fPqThw4fLKvW8cjwPNvXz87Pk16tXj2bNmiWtCzly5JD9+BdALf/AgQPUoEEDyps3r/Tx5l8ak5IVbungXw65a1aePHmoRIkSNGPGDNqyZYv86se/GH722Wfy5aw9h7/8q1WrJr82cv9yliHe/tZbb0lfc64k8Jc2D45NuIy0f/9+OQf/kti3b99E3cB49Xk+Bp+bKxi7du2S7fwL5cCBA+X1cGWhefPmiQbW8q+u/P4hK+nnvPYCWVFHasvEOXPmSMtIBqvWiowZM0qriVb22JIVLmt4DStuuShVqpRsmz17tuw/bNgwSfPf1MhKREREoh9FuFzl/FdeeUXSz3YDu3PnjkWQtLLq0KFDIk9cvnGZpskKp7ncTK7LLGTFmEBWzAdkBaFrpFdZ4S9uloT169dTbGws9e/fX6TlwYMHFllhEfHx8aHTp09LX2/u8sBffNeuXaMCBQpI9wd+7pIlS+RYyclKwkdN33//vQxcHTJkiFQSateuLV+4a9askXxNhnisSMGCBUWeOH/q1KmS5l8htQqF1rKiyQovirlx40a6evVqIlk5fPiwfLl7enpSdHQ0de/eXcTkypUr5OXlJe+DpYRlh6Xrww8/tLzu+Ph4ESPeF7KSPs5rL5AVdaS1TPz111/J19eXOnfuLK0aXH4sWLAgSVmpUaOG5bn8owdvi4qKkjT/6MLpwYMHp0pWmPDwcOrSpYscm38Yss5/VlY0meEuYNbviX/Y4e2nTp2yyEq7du3SXDapvtaQFWAWICsIXSO9ygr/omc9roMHmyZ8HJZZcFhWWEa0/CNHjli+cKdPny4z6lhPp8myk5ys8C9//MXLaa7887G4r7j1ly1/8fPjxo0bS59s62NwJWDAgAFJygoLk7avtaywnFjP9sPdxLiLxd69e+V4LEza+2Ap44qDti//SskCt2PHDshKOjmvvUBW1JGaMpF/dPHw8JByzno7lw9cfvTp0ydJWWGJeFZWOC85WQkICLBLVviHEv7hhlt3eVIP/sEmQzKywj+qcJrLS+v3obX4HDt2LNGYFciKOYGsmA/ICkLXSK+ywnCFfdy4cdShQwfpdpDhGVlhKdH21b40+cu2R48e0nXC+ljcOpKcrHCfay3NcsDH4lYPbRu3amiywn2sufWDW3I0smbNSu3bt09SVrRfOp+VlSZNmtDkyZNtvi7+lbJQoUJSMeAvdm6ZeXY9gwoVKkjrE2QlfZzXXiAr6khNmcgtF1xOWA+GZ7gc4+0sMo6QFR53wmmt7OSWDv6hJkMSssKSxGl3d3dJ87iUDDZkhX8c0so7Lgt528mTJy3lOKe5zOT3BlkxP5AV8wFZQega6VVWuM81d63i1gWu+O/Zs+c5WeGuYrZkpXfv3s/JCo8/SamscGuNLVnhXxGtx8c8iy1ZsR5rYi0rPEaFu5EldSx+P9wqw8LGXdl43Ip1H2/uCmfd2gJZce3z2gtkRR2pKRO5u6q2zgpPV/z222/LjyKc5lYNrdU3rbLCP/5wmltkmzVrJuNGeEB+hiRkhX9IyfDPAHoWHS6DMlgNiueWYH7dfIwRI0bINj4X71OyZEkph7X3MX78eMmHrJgfyIr5gKwgdI30Kis8I472ax7Ds+JksFNWeJpMHnBvPa0vd2FwlKzwuBEe+K7l8Xl4Os/Vq1enWFY6duxoaZFheGIB7oPOr2n+/PmJumto/cF5rIr1e352xiDIiuue114gK+pIbZnIra8sBNxlisexcRnGUxlrLRSOkBUuj7788kv5kYN/dGFxSK4bGA+Y1ySFu3Zx11xNqkJDQ2WfSZMmiVC9+uqrlvLQzc1NJkXhCUj4eUlNXQxZMSeQFfMBWUHoGulVVlhGeCzH+fPnZeB5ixYt5AuOK+wvkhWGu2Z17dpV+kjzYFWWEUfJSnBwsAx85QHwPNMNywf/QqmJFM/6xWNaeDKAF8kK9/HmbhN8LD4f5/Ggel5XgVuVKlWqJGNSOI8/a+4WxkLDz+VxPeXLl9dNVCArxjuvvUBW1GGW6dzNDmRFHZAV8wFZQega6VVWuJ+zthAZDzLn6X3btGkjlXXOT05WOM0SwF2sWCJ4OmEWEkfJCuPt7W2ZuphfX1hYmCWPf1XkXy65W8SLZIXhfuC8cBr/YsnHYgnh7TwdKf8Kyu+Zf9nkGcV27txped6gQYNo4sSJulcIICvGOa+9QFbUAVlxDpAVdUBWzAdkBaFrpFdZAcnDEsRd5bibht4VAsiKcc5rL5AVdaBMdA6QFXVAVswHZAWha0BWgC24D7i28JveFQLIinHOay+QFXWgTHQOkBV1QFbMB2QFoWtAVoAteD0GbVVrvSsEkBXjnNdeICvqQJnoHCAr6oCsmA/ICkLXgKwA1RUCyIpxzmsvkBV1oEx0Xtmk+lpDVoBZgKwgdA3IClBdIYCsGOe89gJZUQfKROeVTaqvNWQFmAXICkLXgKwA1RUCyIpxzmsvkBV1oEx0Xtmk+lpDVoBZgKwgdA3IClBdIYCsGOe89gJZUQfKROeVTaqvNWQFmAXICkLXgKwA1RUCyIpxzmsvkBV1oEx0Xtmk+lpDVoBZgKwgdA3IClBdIYCsGOe89gJZUcc0dzfl/7fpAf6cVV9ryAowC5AVhK4BWQEqgawY67z2AllRx3T3SbJoq+r/XVfmxo0b5DkVsgJZAfYCWUHoGpAVoBLIirHOay+QFXX4Lp1D+/btU/6/68rs2bOHVi/zUn6tISvALEBWELqG0WWlb58+dP/+feVfXsDx3Lt3j/r17QtZMdB57QWyoo6rR8LJ02OK8v9fV8ZjihtdOxah/FpDVoBZgKwgdA2jy8pPw4fRpUuXlH95Acdz8eJFGj18OGTFQOe1F8iKWg5t30gL5s9V/j/sisyf50VHdmxSfo0hK+rLOWA/kBWErmF0WVk0w5NOnTql/AsMOJ4TJ07QkpkzICsGOq+9QFbUE7ttI3m4T5YuSzdv3lT+/2xm+PPbvXu3fJ5GExXICjADkBWErmF0Wdm8eBFtWLdO+ZcZcDzr1q6hrUuXQFYMdF57gawYg0OR68ht/BgaPWoU/Tx6tIwBAymDP7fRo0eR24QxdGTbBuXXFLICWTEjkBWErmF0WTkfHkbjfv5ZecUaOJ4xCRWsi5HhkBUDnddeICvqiYlYT9M9pshge8wOljb489u7d698noe2o2VFNZAV8wFZQegaRpcVZrb7FDp//rzyLzTgOM6ePUteU6fafQ9AVowFZEUtLCoLF8xX/n/sivBYoFiDtbBAVoDRgawgdA0zyMox/y00PaFiq/pLDDgOjylT6ESgP2TFYOe1F8iKOq4cCZUWANX/w67MNPfJdPVouPJrDVkBZgGygtA1zCArzC9ec+jo0aPKv8RA2jl86BB5z52bousPWTEWkBV1+CyehXVWdIYnLfBbOkf5tYasALMAWUHoGmaRFWbIoEGysrDqLzKQeq5evUrDBg9O8bWHrBgLyIo6pk2ZiDEqOnPr1i3ydJ+k/FpDVoBZgKwgdA0zycrj6CiaOmkSXb9+XfmXGUg5LCp8/Z7GHISsGPS89gJZUcc0dzfl/8vpgWmQFcgKsBvICkLXMJOsaMIy5Mcf6eiRI8q/zID9HDl8WFpUUiMqkBXjAVlRB0+3q/r/OT3An7Pqaw1ZAWYBsoLQNcwmKxre8+aSh7s7nTt3TvmXGkganvVr6pQp5DNvXpquN2TFWEBW1AFZcQ6QFXVAVswHZAWha5hVVpjjAVvJa5oHjRk9mtatWycrol+8eJHu3bun/IsuPcKfO3/+fB34evB18fLwSNGsX5AVtee1F8iKOiArzgGyog7IivmArCB0DTPLisaFyHDaumwpLZ45g0YPH079+vZVvipyeoQ/d/78l8ycSf4J18PeBR8hK8Y5r724mqyc2uINWQGQFYMAWTEfkBWEruEKsgJcH8iKsXA1WemfuxH1zvoWBY+bCFkBkBXICkghkBWErgFZAWYAsmIsXE1W9i/0oj4561OvrPWod7bnpQWykv6ArKgDsmI+ICsIXQOyAswAZMVYuJqsMIMKNpXPnbGWlv/eO5iuZeXx48dUpEgR/pKnli1bKhEHfg0MZCV9AFkxH5AVhK4BWQFmIL3JysSG31gqzkAdvbLUo+Vf9UnXshIUFCSiwmTJkoWuXbvmdFmpVKmSnJ9nF4SsuD6QFfMBWUHoGpAVYAbSm6wYnXTTsjJ2Iv11Nypdy0q3bt1EFHLlyiV/ly5dClmBrEBWQCIgKwhdA7ICzABkxVi4mqw8N2ZlLMasME+ePKGiRYtSxowZafz48SIMbdu2TbTP06dPacyYMVSsWDGqUqUKLVq0SPb74IMPLPusX7+eatWqJcLD4rFw4UJL3rfffiv7e3p6SjezPHnyyHFCQkIk/4033rC07DB79+6FrLg4kBXzAVlB6BqQFWAGICvGwtVkpX+eRiIqz0pKepeV0NBQEYQ6derQpUuX6KWXXqIcOXLQnTt3LPvMmjVL9mFZadGiBWXOnDmRrAQGBkq6ZMmS0kpTpkwZkZ+1a9cmkpWsWbOKpJQqVUrSxYsXFxFiaeHn8rb58+c7rRsaZEUdkBXzAVlB6BqQFWAGICvGwtVk5dRmrLNiix49eogkjB07VtINGjSQtJ+fn2UfbnnhbVFRUZZKfgYrWXnnnXckzeLD6UOHDkm6fPnyiWSlY8eOkr579y5lz549UbcvdAODrABjA1lB6BqQFWAGICvGwtVk5UWkR1nhLmDcupHBSkQmTZok6fbt20v6woULkmZh0Z7n7++fSFa0VpFnyZQpE92/f98iK97e3pZjcAsLbztx4gRkBbICTABkBaFrmFFWnsYcpKDly2jh9Ok0eNBA8nBzU756O3gevi58fRZ5TpfrxdcNsuIaQFbU4SxZiYiIsCkZTN68eenBgwd06tQpSb/88suW52ldxzRZKV26tKR/+eUX6fplDR9DkxXr1pqqVatCViArwERAVhC6htlkJdzHm/r07k2rE77Y4uPj6caNG0778gIph68PX6dVvr7Uq2dPCvf1hqy4AJAVdThLVnonlLMJXxFUtmxZatiwoYWCBQvK9s2bN8vaJzlz5pT00aNH5XkDBgxIJCutWrWS9M6dOyV99epVGjhwoAzK53RKZOX06dNOK7sgK+qArJgPyApC1zCTrKycM5uC/P2VV8BB6uHr5zPXC7JiciAr6nCGrPDAdq371u7duxPlDR8+XLZ36tRJ0v3797e0rrCY8CD8DFayEhwcbMnnfatVqyZpnl2M8+2RlbffflvSX331FZ07d84pZRVkRR2QFfMBWUHoGmaRlZVec2jL5s3KK9sg7WzasIG8UygskBVjAVlRhzNkZfv27Ylm5LLO27Vrl+QVLlxYWla4K1evXr1k3AoPmtdmB7OeunjVqlUyBTG3wlSoUIGmT59uybNHVrgVh7fxtMYHDx50SjkFWVEHZMV8QFYQuoYZZCXM2xstKi5G4JYtFO7rA1kxKZAVdTh7UcgXsXHjRuHhw4eSXrlypYhGly5dlL+2tABZUQdkxXxAVhC6htFlhQdl9+3TR/kXF3A8PIblj9hoh8hKyLq1utynkBXbQFbUYTRZ0bp1cbew1atXW2by2rp1q/LXlhYgK+qArJgPyApC1zC6rAQuXyaD6VV/cTkS/uWxXr16lD9/fipQoIAsuLZkyRLlr8vZ+Pn4UPDK5WmSlRUjJ1PPLPWob97GutynkBXbQFbUYTRZOXnyJH366afSDYy7eXF3r+XLlyt/XWkFsqIOyIr5gKwgdA2jy8rCGZ5OnQFGb5YtWya/OvIKzjVr1qRy5cpZpgOdMWOGZT/+sm/cuDHlzp2bKlasSLNnz1b+2h1NXFwcLU54z6mRFZaUXlnfEnrnaEAb5y7W5T6FrNgGsqIOo8mKqwJZUQdkxXxAVhC6htFlZfCgQS41PXGzZs1ETBYtWmTZxl0neNvrr78uaR5MyjPqlChRQn6x5DUNOJ/3U/36Hcn169dpSML1tVdWjl85mkhSuGBkBhRqrtt9ClmxDWRFHZAV5wBZUQdkxXxAVhC6htFlhRcWVP2l5Ui0WW6su33xbDvc4sLdwzjdrl072Ydn3eH01KlTJd2jRw/lr9/RTEu4vvbKyvRPe0uXL01SnIXqAtaIQFbUAVlxDpAVdThbVkKiQuQ7NnPmzEKmTJmoUOFC9HXnr+n4tWOpPu7WXVuoa58u8nh18CqqVqOq8rJbLyArCF3D6LLial/MPMVnwscuLSdNmjShoUOHSouJdetRbGwsRUZGypSgLDIdO3aU5yxevFj569ejQpCilpURPEYFLSuqgayow9XKRKMCWVGHClnJlj1bom3B+4MoZ66cNMVrcqqP6+PvQ/Ua1pXHB89G0ZqQ1crLbr2ArCB0DciKc7lz546s8MyDUTP8M1aFyZYtG02bNi3RvjExMbKWAed/8cUXyl+7XhWCVI1ZsZIWjFlxPpAVdbhamWhUICvqMIKsMM3fbUb9R/SXx9ziYt3KwvtzmltPatarSa3btZbWmDdrv0nLNy6nfXF7qdSrpShHzhySty5sraVl5b0271H777+kYiWKUYFCBWjExBHUuXcnKv5ycapdvzaFHgyR/Q5fOiT7FS5amCpXq5wmcdIbyApC14CsqIFbTLgFZcGCBbLqc4Z/WluOHz9u2efChQs0YcIEKlu2rOS54iD71MqKxt/SwrOBNdHlPoWs2Aayog5XLRONBmRFHapl5eSNE7Q2dA0VKlJI/vK25GSFv79ZOPh5fYf1pVpv1ZJ9rFtWnpWVN2q9ITLitXKOPP/Hn3+kY1eP0gcfv0+9h/SW/br3704t3m9Bhy7GUsiBYCpSrIh0J1Nd/tsCsoLQNSArzuPJkyfk4eEhPHr0KFEeD65PuBy0Zs0aOnv2LMXHx8v+nMezZnEezwqm+j3oUSFIi6xYvmzWrtHlPoWs2Aayog5XKhONDGRFHarGrLCAMJmzZJa01qrCJCcrWbJmoZjz0bLdf9dWqlC5gjxOTlbGTP1ZHh+9fERmB91/ep+kJ86cQJ+0//v7jltafAN8LOf84rsvqFOvTsrLf1tAVhC6BmTFuVSoUOG58SfcNUzbHhUVRc2bN5fHPCsY52/btk3S5cuXV/769agQOEJW9AKyYhvIijqmubvWpCNGhT9n1dcasuIcbLWs/LJ5pWzbvGOTbHtWVrJmy2qRldfKv2bZHrg3wC5Zmb5omjzmY/Cxtee7zXYTWeHXwD0qylUsJ8fT6Dmoh/Ly3xaQFYSuAVlxLjwLWIZ/xqmUKlWKmjZtKgupcbpFixbSmrJw4UJJZ8+enRo1aiR/OT1mzBjlr9/RQFbMCWRFHdPdJ9Ht27eV/++6MjzhiedUyEp6lRUNHoviuXi6PGahOHrliDwOjwmT72RNVspWcLys8GPuhrbj6HZLHo9l2XY4Unn5bwvICkLXgKw4n7Vr18qCj0WKFKFcuXJJF7CffvqJbt68adln1qxZVLlyZcqRI4d0/3Jzc6PHjx8rf+2OBrJiTiAr6vBdOof27dun/H/XldmzZw+tXual/FpDVpxDkgPs32tOE2ZMkMf5CuSjmUtmyGOejjiDnbLCA+75cWpk5atO7enj9h//PWYl4TXymJWVm1YoL/9tAVlB6BqQFaASyIo5gayo4+qRcPL0mKL8f9eV8ZjiRteORSi/1pAV55CUrHzf83tq1rKpPJ48ZzKVr1Se8ubLS+988A4VLV70hbLC41Befe1Verd1y1TJCk933PaLNjLLGM8cNnLSCOVlf1JAVhC6BmQFqASyYk4gK2o5tH0jLZg/V/n/rysyf54XHdmxSfk1hqyoL+eA/UBWELoGZAWoBLJiTiAr6ondtpE83CdLlyXrLqQg5fDnt3v3bvk8jSYqkBVgBiArCF0DsgJUAlkxJ5AVY3Aoch25jR9Do0eNop9Hj5b/J5Ay+HMbPXoUuU0YQ0e2bVB+TSErkBUzAllB6BqQFQBZSRrIim0gK+qJiVhP0z2myGB7zA6WNvjz27t3r3yeh7ajZUU1kBXzAVlB6BqQFaASyIo5gayohUVl4YL5yv9/XREeCxRrsBYWyAowOpAVhK4BWbGPDz74gM6cOUPXr1+XKQt5hXnVryktREZGUuHChZW/DsiKOYGsqOPKkVBpAVD9v+vKTHOfTFePhiu/1pAV14RnE/NaOUced+vXzbLwpJmBrCB0DcjKiwkLC6P27dvLY8iKY4GsmBPIijp8Fs/COis6w5MW+C2do/xaQ1aMwdHLRxx6PGtZadC0gWHXTkkJkBWErgFZeTENGjSQmWL4MWTFsUBWzAlkRR3TpkzEGBWduXXrFnm6T1J+rSEr6mChGDd9HJWtWFZWsY88FEGN3m5EBQoVoPpN6tOakDWyH6+T8mXHL2U70/PHnrKdF4Ss9VYty/FWB6+ypDVZ6TusL+XImYNKvVpK9vfZ6k0VX69IOXPllDVZ/Hf7K/8c7AWygtA1ICvJw5JSrlw5S/pZWfn111/pww8/pAIFCtBrr71GI0eOTLTSfFBQEFWvXp0KFSpEnTp1oq+//prGjh0reRcuXKBPPvmE8ufPL/nffPMN3bt3z+brePjwIQ0fPlzOkT17dln13s/Pz5Jfr149WfW+Zs2asuo977d27VpL/oEDB0S68ubNSw0bNqS5c+dCVuwAsmIbyIo6prm7Kf+/TQ9Mg6yke1mp8kYVCosOlXSNOjVo0OhBdOL6cRGN4iWLU9SZA7Kq/evVX5cFIMNjwih3ntwUtC/QLlnhx9YtK7zoJC8+yS05HX/4jj767CPln4O9QFYQugZkJXnGjx9P77//viVtLSssJZUrVxbhiI6Opq1bt1LJkiVp9OjRsi/vw+LAEnH48GHq3LmzPFeTlS+//JLeeustEaLg4GARlilTbPdFnzNnDuXOnZvWr19PsbGx1L9/f5GWBw8eSD7LCouIj48PnT59WsSHJejp06d07do1kSmWJX7ukiVL5FiQlRcDWbENZEUdqsvE9AJ/zqqvNWRFHSwUwycMl8ehB0NEQg5djLXklylXhub5zKMVCaLx8isvk/eWX0RktPzUyErdhnWpS+/OtPfUHuXvP6VAVhC6BmQlebglpG/fvpa0taxs2bKF8uTJk2hBNhYBTQKGDBkirS5a3v3796lgwYIWWalVq5ZIh5bPrR8xMTE2X0dERARt3rzZko6Li5PXcfbsWUmzrLCMaPlHjhyRfH6906dPpzJlyiRq8eHzQlZeDGTFNpAVdaguE9MLkBV1GEVWZiz2lMcsE9lzZKcKlSskYu4vXnTyxgnqP6I/vVK6FOXNn5e+6fqNtIw8KyurgvxeKCs80L5Zy6Zyruo1q5tqLAtkBaFrQFaS57333iN3d3dL2lpWPDw8pGXEev/jx49LPrdmfPTRR/TTTz8lyucuWJqsLFiwgDJnzkw1atSgYcOGyaDO5F4LrwMwbtw46tChA73yyivPyQpLibYvdzHL8I+s9OjRQ6TL+lhr1qyBrNgBZMU2kBV1qC4T0wuQFXUYRVZmLp0pjwP2+FPpsqUT5W+IWE/R5w7KWJZdx3da9qtcrbJIDstKzbo1LPu7zZ6UrKzw2Jf14etk2+FLh2jExBFUrmI55Z+DvUBWELoGZCV5uKvWjz/+aEm/SFZOnjwp+ZcvX6ZWrVrRqFGjEuU3adLEIisMH2fq1Kmy70svvfTc/hqzZ8+WVpkBAwbQL7/8ImKT4RlZ4a5i2v7WstK7d+/nZIVbhSArLwayYhvIijpUl4npBciKOowmK9y9i1tSxnqMEamY7zuP8ubLSzHno2nImMHUsFkD2nF0u4xb4YHxbrPdpJWEW0hYZlg+6jSok6SsLFq9SM7BXc1mL59Fx64epanz3KV7merPwV4gKwhdA7KSPNzi8fHHH1vS1rLC3bJ4nAjPHKPlL1++XMae8ON+/fpR69atLXk8voQFQZMVPjbLjZbP0lK6dGmbr6NKlSqJWnh4zZcMdsrKzJkzZcD9kydPLPnc4gNZeTGQFdtAVtShukxML0BW1GE0WWEC9wbImBLu6sXisnzDMtnOrStvt3pbRKNQ4UL0Vaf2IhvcPYzHn/BA/Fy5c8l2W7Iy+OfBVLhoYZkJjFtkeGYw3p9baHgcjOrPwV4gKwhdA7KSPIGBgVStWjVL+tkB9hUqVKDPPvtMBtDzvi+//LJlgP2xY8dkEPz8+fPpxIkT1L17dxnYPmHCBMnnMStt27aV8SU8yL5Ro0aJ5MYalpFPP/2Uzp8/L4P5W7RoIa+Dx7lo+UnJCsOD7bt27SqvydfXl4oVKwZZsQPIim0gK+pQXSamFyAr6jCCrICUAVlB6BqQleR59OgRVaxY0dIC8uzUxfyXV7dnGeBB7M9OXbxhwwZ5PssBS0rz5s1l2mDOY+lo3Lgx5cqVS8Th888/F8mw9Tp4vMqbb75JOXPmpNq1a8uUyG3atLG04iQnK5zev38/1a9fXyYE4K5rPHMZZOXFQFZsA1lRhyPKRP5RhcuHnTt3Ki8DjApkRR2QFfMBWUHoGpCVF7Ny5Urq06dPip/Hq0zzVMPW21hoNm3apPw9GQXIijmBrKgDsuK8skn1tYasALMAWUHoGpCVF8NrlXAXrRs3bqToef7+/pQtWzYKCQmR506bNo2KFi1qWRsFQFbMCmRFHZAV55VNqq81ZAWYBcgKQteArNgHd6uyHkhvLzwongfNczcxngnsRdMTpzcgK+YEsqIOZ8kKzxjIXUa562i5cuVkvanbt29b8nl6dp5lkBec5TF0PFaPjzl58mTLPitWrJDuq9zVtVKlSuTl5WXJ4wk/eBHcqlWrSn716tVlMhD+cYjzuesrH4+nex8zZox0peVj8EQknO/m5ib5PJZPO+bixYtl2/fff++Qskn1tYasALMAWUHoGpAVoBLIijmBrKjDGbLCrcKczxOEtGvXTiSB0y1btrTswxOL8DaWjTfeeIMyZcqUSFZ4Ig9OFylSRI7B4+s4zds5f+jQoZIuXrw4ffHFFzKGjtPaBCSarHDrND/3/fffpxw5csg2lp5ff/2VMmbMKDMyPnz4UJ7Tvn17yecxeY4om1Rfa8gKMAuQFYSuAVkBKoGsmBPIijqcISvcmsH5PJMhp+/evSvTn/M2nrkwNjbWIhr379+XSUV41sQMVrLCE4FwOjIyUtLcUsOzIfLaVXfu3BEJ4XyeKZHzDx06JMLDLTnc6qLJCsOPeZ8lS5ZImhfS5XSDBg0kHRoaKi0yLEa8HhVPjOKIskn1tYasALMAWUHoGpAVoBLIijmBrKjDGbKSL18+abW4dOmSZRsvLsvPWbhwoUw6wo95BkMtf8iQIYlkhcUka9aslm5d1vCU6xn+aZWx3q4Jz6lTpyyywkKk5fNiu/y6eFZEPq6np6fsM2jQIJnQJIODuoBJ2dTma/L/cYwhWN6mBPmPGJNuWNahJS0bPAGYiPENOyR8X9aCrCD0CciK8eEuFtwXmx/zL47WizsmBQ/ob9q0qc2KgpEwuqz0y9tYhAUAw1D7ozT/36VGVnh8Cj+Hp15nYeHHvE3LHzVqlEVWuNzhLmSMrePzVOq8r/UaVkypUqVkO68HpclKyZIlLfk8FbvW+sJpHkvIaZae8ePHy/7chc0hZVPC56z8WgNgKiArCJ0CsmJ8rGWFB7l269bNrufxvj4+Pspff7IVAoPLChfAqgtYI4KWFdduWdG6V7GUcPrevXvSxYq37dixg7Zv3y6PWS64yxXLSZ06dRK1rPCAeU5v27ZN0twNjCca+eabb2SgPre6cL62hpUmJzzYnruVWXcD0xa/5QH7nObXp73Wt99+W7bxAr2O6gImZRNaVtCyAtCygjBGQFbSDn+R63n81MoKVwIqV66caJFKowFZMSeQFdeQFR77wS2w1vz2228yQJ3zeUA7D1qvUqWKpHnWL+0YNWvWtBxDE5UMVrKydOlSywB7PoY2gH7jxo2SP3jwYEvLCbfQ8LTunOYWEs7XZCVLlixyDF4El0WGt61bt87yOubNm2c5d6dOnRxaNqm+1hoYswKMDsasIHQNyErqqFWrFvn5+VHr1q0tM+Rwn2menpi7KPBgVG2leoa7K3zyySfyyyLPbMO/LmqSw/LBEmJ9fP5i50Gj/FiTFe6XzV/cmTNnlnVfOG/Xrl2yMj334eYKCE/naX0cnnp0w4YNyj8vyIprAVlRhyNlxRZnz56VfXjx2rp161rKM14Y13r69vPnz8sMXTwbF5dH2uxe1lMXc8sMd/Xi8omFZ9myZZY87s7K5dXrr78u+byframLuRVl5MiRIjPceqK19mhcuXJFysUMDuwCppVNqq81ZAWYBcgKQteArKReVviLc86cOXT69Gk6d+6cDCjlL9/jx4/T2rVr5cvV29tb9ucZcFgceCad4OBgERZeY4Dz7JUVfvxsy0qJEiWoS5cuFBMTIzP3ZLCaOYf59ttvnzu2kYCsmBPIijqMUCbyQHduIQkLC7Ns69q1q5Q/3FXLEeewXmcluf1Yeri85DLVUV3AtLJJ9bWGrACzAFlB6BqQldTBsvLdd99Z0vzL34cffphoH/6FkbtKaPv379/fksd9sFkw+HFqZYV/5Uy4hLR+/XrL84KCguQXTy3NXSqs10YwGpAVc/IiWTl3dIvcm5kzZxJ4EHTRIgWpzw9f0n8fHEx1JebkwbU0bGBHeRy1fSXVqVUFsqIA/nGGB8+/9NJLskgjt3ZwCwsvEMmtyI44hz2ywuVd27ZtZb+ePXs6vGxSfa0hK8AsQFYQugZkJXWwfEybNs2S5ik8ed0A7ualwV0buOWD8xcsWCDdt7h/97BhwxKtZJ+WlpWOHTtKRfDdd98VOeJWHuvj8K+c2poERgSyYk7skZXs2bMl2nbmyCbKnTsneS8en+pKzN7wpdS8SW15/OjqTjqYICyQFTVwCzF30dIkhcezcMuxo47PM4JxuTZgwIAk9/nxxx9l5rJ33nnHYZJkXTapvtaQFWAWICsIXQOykjpYVrQF0xge2Pmi7lbx8fHyK2SrVq3kF0me6pO325IV/gK2R1YY/gWSW3a4FYeFybrftru7OzVv3lz555VchQCyYj5SIyvMR+83oUk/95LH3OJi3crC+3OaW08a1X+TOnz5vrTG1K9bnbYHLqS7lyLptTIvU65cOSQvdpePpWXl80/eoZ5dP6OXSxalwoXy06ypg2lI/+/olVLFqEnDmnT+2BbZ78/b+2S/4sUKUY03KtktTpCV9AdkRR2QFfMBWUHoGpCV1PGsrPD4E16x2Xqf0aNH0/Dhw+Uxt6ZoU3QyLC2lS5eWxywf3EKi5fEA1wz/rMrM6aRkheWHF2KzXnflo48+knEqWpr3deQMOXpUCCAr5iOlsvJ/j2IoZqc3FStaSP6+SFb4/mfh4OdNGNWTGjeoIftYt6w8Kytv1akmMrJl9d8LBU6d0I/+uh9F7T97j8aO/EH2Gzm4M33cuhn9cWsvnT2ymUoULyzdySArwFbZpPpaQ1aAWYCsIHQNyErqeFZWrl69Kl2/evXqRYcPH5Y8nqFGG0/C+3Pf6iNHjkhXCZ49h2cS47yxY8fK4FBej+DMmTMyw06GJGSlX79+MoXn3bt3ZZAr9xsfM2YMxcXFSYsKT/HJrSna6+I1CJYvX67880quQgBZMR/2jllhAWGyZMksaa1V5UWykjVrFnpyfbdsPxW9jqpVKfdCWVkwc6Q8/vfdA7Kg4f3ftkt62byfqdM3beQxt7Tsi1hmOecPndvR4H7fQlaAzbJJ9bWGrACzAFlB6BqQldTxrKwwBw8epMaNG8usYDzVJ88UpuVFR0dLHq8TwONReIyL1seaV2Xmwfm8pkHCJZGB+7wisy1Z4X7ixYsXl2NxevXq1TL1J0sLT0fKfbi1dVV4Ss9XX32Vbt68qfzzSq5CAFkxH6lpWdkVsli2HT+wxqasZMuW1SIrlSqUtmw/fWiDXbKyZsVkeczH4GNrz1+5cJzICr8G7n5ZpXJZOZ7G6GFdISvAZtmk+lpDVoBZgKwgdA2jy8q0Z9YNcWV4fQEWDEcdb9y4ceTh4aH8fSWHR8L1hayYj9SOWeGxKGtXTrHIyn/uRcnjiyf8RdQ1WalcsYzDZYUfcze0a7+GWPJ4LMuV+CDICngOyIo6ICvmA7KC0DWMLiuDBw2iGzduKP/iMhsPHz6UdV3u37+v/LUkBbcoDUm4vpAV85FaWWnzQVNaOvdneVywQD5a7z1VHvN0xBnslBUecJ9aWenV7XP6vsNHMmaFXyOPWdkZvAiyAp4DsqIOyIr5gKwgdA2jy8oiT08Zj6H6i8ts3Lt3T8a/qH4dyXHq1ClaPMMTsmJCUisrP/b9hlq3aiyPf1k0nqq+Xo7y589Dn3zUnEqWKPJCWeFxKOXLvkLt2rZIlazwdMffffWhzDLGM4fN9hhiV+UJspL+gKyoA7JiPiArCF3D6LIStGI5rfLzU/7FBRyPr48PhaxcAVkxIVjBXh3T3NNP11iV8Oes+lpDVoBZgKwgdA2jy8rTmIPUy8ErEwNj0OOHH+iPQzGQFRMCWVHHdPdJdPv2beX/v64Mdz32nApZgawAe4GsIHQNo8sKE+7rTYFbtyr/AgOOw3/zZor09bX7HoCsGIv0Jiu/ba6tvMKq4bt0Du3bt0/5/7Ars2fPHlq9zEv5tdaQ+88A/weQFZAUkBWErmEGWWF853rRxg0blH+JgbSzft06WjV/XoquP2TFWKQ3WTm9PDv97/Ie5ZVW5uqRcPL0mKL8/9iV8ZjiRteORSi/1sx/L++iX1fkVP4/AFkByQFZQegaZpEVxjtBWNDCYm4CtmxJEJX5Kb72kBVjkd5k5dyql+mvS5HKK64ah7ZvpAXz5yr/f3ZF5s/zoiM7Nim/xhp/XQilc6tfVf4/AFkByQFZQegaZpIVJsLXh3r36kV+Pj4ySxhPf6v6yw0kDV+fkydPkq+3t4xRifSzv+sXZMW4OEJWRvzYybJApNG5sL4S/Rnvq7ziak3sto3k4T5ZuiwZeeFXM8Cf3+7du+XzNJKoMH/EraSLG6oq/x+ArIDkgKwgdA2zyQrzR2w0haxcLtPe8jodvLAgTzMJjAUv6MnXZ7GnJ4WuXGH3YHrIivFxhKy0fLueXWucaPzrzn5lladroa3oYcwk5RXXZ7l2NJz8ls6h6e5uMnuV6v95MzJ9qlsCk2n18rl03SBdv6x5GD2eroV/qFwgICsgOSArCF3DjLIC0h+QFWOREllZMHMklXq5GOXLl5s+bt2Mfr+5lyaM6km5cuWg18q8LAs9nohaQw3felPWXHmrTjU6vMdXnnt03ypZsX7U0C5Uu+brso3XRilTuiTlyZNL9j19aINsf3B5hxy/UMF88pdlKNJ/vuRdjgukVi0bUOFC+emd5vUoescvKao83YsdSnf29FNecQXpj7u7e9P9wyOUCwRkBSQHZAWha0BWgBmArBgLe2Xl1vlwypkzO8XHbqDH13aJkCyeM0rytJaVv+5HyUKPvJ0XdOTFIku/WoL+cy9KZIWlxmNif0lfOhkgi02y3HBLS8+un1GPLu3keF2+a0uD+nSQ4/FCkAnFm0VWGtR7g9zH96P/PYymLas9RZ4eXtlpd+Xpj4sr6eL6qsorriD9cWFdJfrzN1/lAgFZAckBWUHoGpAVYAYgK8bCXll5emOPtKj4LZ1Ef97elyhPkxVeib5c2VKJ8l6v9Brtj1wuslKgQF6RDN7+77sHRID48b1L26hfj/b01efvSTp37px052Kk5Ri8Qj3LyvljWyhv3lz0x629lryK5UtTwLqZKapA/ba5Dv3vyl7llVeQfvjvbzvpty11lcsDZAW8CMgKQteArAAzAFkxFinpBrbR14Pq1q4qLSLcPYu7ZFnLSuD6WfR20zqJnvP+uw1pg89UkZUqlctatnOryeB+39IrpYrJMfl5LCvcSpIlS+ZEx+B8lhU+R44c2ahalXKJ2LrGM0UVqOuRn9CDqFHKK7Ag/XD/wAi6se0z5fIAWQEvArKC0DUgK8AMQFaMhb2ywuNIzhzZJI+51ePb9h9S7+5fJJIVblnhbmDWz2OZ2BexTGSFH2vbVy1zo1o1KtPdS3+3oHgvHi+y8n+PYkSGtO0MCw3LCndBq1Au8dSvPCaGu6WlpAL1+7kldDXwHeUVWJB+uBLQjH4/v0y5PEBWwIuArCB0DcgKMAOQFWNhr6zE7PSmEsUL07H9q2WMCYtKp2/aWGQldJOXtJZwN7Dl88eIdLCQsGjw/s/Kite0odSiWV0Zv8KtKY0b1KB2bVtI3tdftKJhAztKlzHudpYxY0aRFU7zMRbOGiljYrglhwfyP7m+O8WVqAvrK9Of8T7KK7HA9fnjVPqbshiyYl4gKwhdA7ICzABkxVikpBvYyMGdZRYuFgSekevaryGynQfNFy9WiPaELRWZ4UHwBQvko3q1q0prC+/zrKywoLDkFCtaSESFpYSPsclvmoxl4eMXLVKQ+vzwJdV8sxId2LZCnnf60AZq1ri2jH/h420LWJCqStTjOE+6GtRKeUUWuD5XA96hJ/GzlIsDZAXYA2QFoWtAVoAZgKwYCyOuYD9u5A/SdYwfX4kPkhm/UtrVyx4ubapBv59corwyC1yXp8cX0m9baiv/n4KsAHuBrCB0DcgKMAOQFWNhRFnh2cNat2pMb1avSPXrVqftgQt1Oc+/rm6gixuqKa/QAtflwrrK9O9rW5T/T0FWgL1AVhC6hhll5WnMQQpavowWTp9OgwcNxAr2BoWvC1+fRZ7T5XrxdYOsuAZGlBVncjeqH93a3lF5pRa4HjcjO9C96EHK73HICkgJkBWErmE2WQn38aY+vXvTaj8/io+Ppxs3btDvv/8ODApfH75Oq3x9qVfPnhTu6w1ZcQHSu6ww18I/oqfHFyiv3ALX4emxuQn3VVvl97ZqICvmA7KC0DXMJCsr58ymIH9/5RVwkHr4+vnM9YKsmBzIyt+cX12a/oxfpbySC8zPH3G/0Pm15ZTf00YAsmI+ICsIXcMssrLSaw5t2bxZeWUbpJ1NGzaQdwqFBbJiLCAr/58rQe/QH6chLCD1/BHnTVdD3lN+LxsFyIr5gKwgdA0zyEqYtzdaVFyMwC1bKNzXB7JiUiArieEWlqfH0CUMpJwnx+aiReUZICvmA7KC0DWMLis8KLtvnz7KK9fA8fAYlj9ioyErJgSy8jzXwlvTrW3fKa/8AvPAg+mvR2CMyrNAVswHZAWhaxhdVgKXL5PB9Kor1sDx+Pn4UPDK5ZAVEwJZsc3dgwNk2tnfTyxSXhEGxoXXUbmYcJ+k91m/kgKyYj4gKwhdw+iysnCGJ50+fVp5xRo4nri4OFo8YwZkxYRAVpLmX1c30qXNtehqYEsZNK26YgyMwx+nVtLVoJay4OO/r21Wfq8aFciK+YCsIHQNo8vK4EGDMD2xi3L9+nUaknB9ISvmA7LyYh7Hz6CLG6rQlYBmdP/ASPrv5d3KK8vA+fz3t50J13+E3AcXN1alJ6dnKb83jQ5kxXxAVhC6htFlhRcWVF2pBvoxLeH6QlbMB2TFfn6/sIxubGtHlzbXkS5id3b3pYfR46XV5a8LoQkSs0t5hRqkHb6OfD3/iFsp1/fO7j4J17sS/ba5Lt3Y/lnCfbBc+b1oFiAr5gOygtA1jC4rvBK66go10A++vpAV8wFZSR1/XvKh+4dH0LXwD6XV5eyql+nXFTkTKrS1KX5JBpckYmhuWtG2hPxV/Vr0grt18XU8t/rVhOtaVSZbuHdoBP35m6/ye86MQFbMB2QFoWtAVgBkJWkgK7aBrAB7CRg5Vv6P+K/q1wLMAWTFfEBWELoGZAVAVpIGsmIbyAqwF8gKSCmQFfMBWUHoGpAVAFlJGsiKbSArwF4gKyClQFbMB2QFoWtAVgBkJWkgK7aBrAB7gayAlAJZMR+QFYSukZ5lZcmSJdS0aVPKnz8/VahQgb766is6deqUJb9v3758Y9P8+fN1rbBXrVpVzhMfH+/wYz9+/FiwZ1+eSphfx8svvwxZ+QfIim0gK8BeICsgpUBWzAdkBaFrpFdZ0USEKVWqFOXIkUMeFyxYkHbs2OESsnLhwgU5brly5SArqQSyYhvICrAXyApIKZAV8wFZQega6VFW9u/fTxkzZqTs2bPTpk2bZNvt27epQ4cOUll/6623ICuQFQGyYhvICrAXyApIKZAV8wFZQega6VFWunTpIpXybt26Jdp+7tw5evfdd+nDDz+kp0+f2pSVLVu2iMzkyZNHJID3YdHhvL1798r+DRs2tOzPz+VtvJ+2bfbs2VS+fHkqXrw4jRo1iqpUqWKRlX79+snjKVOmyL5eXl6Sbty4saRjY2Mlzc/h9Nq1a+nNN9+knDlzUpEiRejjjz+mM2fOWMRDI3fu3LL/w4cPafjw4XJ+3sbvJSws7DlZ4S5yvE+BAgWoT58+8nlAVoAGZAXYC2QFpBTIivmArCB0jfQoKzxOJeGt0+rVq5Pd71lZ8ff3lzS3yLRr144qVaok6ZYtW9otKytWrJA0y06rVq3kL7fyZPhHVrilhx9/9tlnsn+nTp0ssvHkyRORCE6zQBw9epSyZMlCuXLlok8++YTq1Kkjea1bt6ZHjx7RokWLJF2sWDHasGGDHK9Hjx6yrXLlyrJf1qxZ5flxcXEWWcmcObPIT+3atS2y4+PjA1kBFiArwF4gKyClQFbMB2QFoWukR1nhFpGEt07btm1LkaywhFin7969S6+99pps2717t12yonX50uQhODjYIgQsK7du3RIBefXVVyW/evXq0mLC+YcOHaJevXrJ440bN1JERAR9++23tHTpUtn3wIEDkvfKK69I+tluYCwjLCI8oQCfh7cNHTpURGjWrFmJWmOioqIkf9iwYZIeMmRIupSVCQ2/UV7AGhHICrAXyApIKZAV8wFZQega6VFWuEtVwlun9evXp0hW8uXLJ60gly5dsuzTu3dv2WfhwoUvlJUHDx5QpkyZpGXm3r17ln2KFi2aaMxKo0aNJM0zk7FcsChwmltVuNsWy8zNmzdl3/DwcOnWVqtWLcskAdqYk2dlZc+ePZJu0aKFzferyQp3T9O2zZs377lubOlJVtCyYhvICrAXyApIKZAV8wFZQega6VFWvv/+e6mADxgwINH2kydPSkW/bNmy0o3KHln5+uuvZZ+5c+daZKVBgwY2ZUWTAe5idf/+fcnnrl2FCxdOJCujR4+W9I8//ih/9+3bJ0LTvXt3ERKWGd6Pu6Xx6ylRogT99NNPMn4lQzKywrOccZrH5SQnK9YD7G2NuYGsAMgKsBfICkgpkBXzAVlB6BrpUVZ27dolFfC8efPKY97GA8g7duyYaDD7s7LCEpLhn1YUTnPriNZFi0UgOjpaHrN8sITwPtoxtcq+tv/mzZslzYPbM1h1A+Nt3D1NOw63wvCgeB7fUqhQIdnOMsP78bgVTru7u0uau5ZlsCErZcqUkfTly5fppZdekumZtW5g3M2Lu4VxCwpk5XkgK7aBrAB7gayAlAJZMR+QFYSukR5lheFWioS3L5X3atWqyTgPTmfLlk3GftiSla1bt0qaWzfat29vmcVL61bFY1i49YW3VaxYUcabcJetDFaVfe2YLEpt2rSR2bYyPCMr3KrDA+95W/369WXbyJEjLftt375dtk2ePNkygJ4H2PPYE05zK4wmUzx4nruSjRgxIlGr0uuvvy4zh/H7ZVk5e/YsZMUGkBXbQFaAvUBWQEqBrJgPyApC10ivsqJVxHl8CYsDLwz56aefytTAWr6tqYt5tq66deuKTPDgem7d0FopGB74zlP+8jE/+OADmjhxYqLK/o0bN+QxD6BnqeCWDeupi7Xj8PTJvI2nMuY0j6/J8I/ksMzwtjt37lgkhYWLW2tYTni/0NBQ2WfSpEnSTUwbsM8CM3DgQHnt/LwmTZrI5ACcB1l5HsiKbSArwF4gKyClQFbMB2QFoWukZ1kB6oGsmBPICrAXyApIKZAV8wFZQegakBUAWUkayIptICvAXiArIKVAVswHZAWha0BWAGQlaSArtoGsAFvsWzCH9i/0SrQtKVnhfRnVrxkYD8iK+YCsIHQNyAqArCQNZMU2kBVgi98v76YB+RrTyNLvWaTlWVlhQeF83o/3V/2agfGArJgPyApC14CsAMhK0kBWbANZAUnh/4+cMCwl8z/qIo/nte4iaS3PH93CQBJAVswHZAWha0BWHA/PAObt7S2P33jjDVq8eLGu5+MFIdetW6f8fUNW0g+QFZAUWuuKJiW2QKsKSA7IivmArCB0DciKY7l27Zqsr6JNL+wMWeHFH2vWrGlZiNJMQFbMCWQFJIfWutI9Qy1Be4xWFWAPkBXzAVlB6BqQFccydOhQcnNzs6SdISvMt99+S0uXLlX+/iEr6QPICkgO69YVTVg0WUGrCngRkBXzAVlB6BqQFcfBrSm8gj2vBm9LVnhBxl69esmii7wgZPv27enKlSuWfU+fPk0tWrSQY/DfCRMmyF/O41YTXsyRF3jkhR+bN29OJ06csDzX399fWldUfwaQlfQBZAW8COvWFeu/aFUBLwKyYj4gKwhdY0b4sIsqbhpXlJXt27eLSFhvs5aVzp07U+XKlSkyMpL27dtHjRs3pmbNmllk5PXXX6cuXbrQ4cOHacaMGZQpUyaLrHh5eVGBAgVESvbv308NGzaUVe6188THx9NLL72USH7MAGTFnEBWwItIPHYFrSrAfiAr5sMMsuIZPuyC6jo3IpUxMeCH/564fszpN40rysqCBQtETmzJys2bNylz5swUGhr6nGDExMSIhBQqVIgePHhgyW/VqpVFVgYMGEC1a9emx48fS5pbYcLDwy37suxkz56dduzYofxzgKy4PpAVYA/WM4OhVQXYC2TFfBhdVrieOzGwx1+q69yIVMakwJ7/OnbtiNNvHFeUlUmTJlHr1q1tykpUVBRlzJhRuoJZ55csWZLWrFlDU6dOpSZNmiTKGz58uEVWDhw4IDLDXch69uxJGzdutIiLRoUKFWj9+vXKPwfIiusDWQH2YN26glYVYC+QFfNhdFk5eu0wTQrq+afqOjcilTEpsNfvR67GOv3GcUVZ4a5adevWTZGslCpVivz8/GRQftOmTRPl8ZTEmqww169fpyVLllCHDh0od+7cMm7l6dOnlvy8efMmam0xA5AVcwJZAfaita6gVQXYC2TFfBhdVg5fiSG3wN5PVNe5EakMt6Dejw5diXb6jeOKshIQEEAFCxa0KSvcDYzHoISFhVnyfv31V+kGFh0dLeukFC5cmB4+fGjJ51YaTVbmz58vx9fyuKUl4fJJVzJO8/TFnD5z5ozyzwGy4vpAVoC9cGvKiFffRasKsBvIivkwuqzEXo4it6A+D1TXuRGpjKkh/S/F/Bbl9BvHFWXlzp07lDVr1kSD3K0H2H///fdUtWpV2rlzJx08eFAG12utKSwp5cqVky5ePMvX3LlzZVawli1bSj6PWalUqZKMSTly5Ih8LtwtTJObiIgIKl++vPLPALKSPoCsOJ7/3D9IYf7LaPGC6TR48ECa5uEm/x8uwdffq38NDoKvC1+fJQnXia/XXwnXTfW942pAVsyH0WUl+tI+mhoy8LzqOjcilTElpN/lAxd3Of3GcUVZYXi9E+t1Vaxl5e7du9SjRw8Zp1KkSJHnpi4+evQoNWrUiPLnz09fffWVrNnC+3DejRs36MsvvxRB4S5gvB9Lj/bcQYMG0cSJE5W/f8hK+gCy4li2BXtTnz69afVqP2kt5f931f+bIGn4+vB1Wr3Kl3r16knbQ7yV30OuBGTFfBhdVvZd2EFTgvtdUl3nRqQypob2P7LzTKjTbxxXlRX+AqtTp06Kn8fduLg1xXoVehYfXlvlRc+9ffs2ValSRVp2VL//lAJZMSfOlpXChfJLN8rMmf8/hQrmk7zs2bPR0xt7Un3s/Pnz0MMrO5VVzLyXz6bgQH/l/4sg9QQlXL9Vv3gpr+S7CpAV82F0WdlxJoSmhgw4pLrOjUhluAf3DQ+P3+L0G8dVZYXp3bs3BQcHp+g5165dkzVa3N3dZSB9UFAQ5cmTRwbmv+i5M2fOpNmzZyt/36kBsmJOVMjK0X2rbOZtD1xI/32Q+q44KmXFe/kc2rJls/L/Q5B2Nm3cQH4rISyOALJiPowuK2Fxm8k9tF+w6jo3IpUxJaSfd8DxNU6/cVxZVm7duiUtJSl9Hq+1wt3GWFKqVasmM3/Z87y4uDh69OiR8vedGiAr5sRIspI7d05pWTl5cC01qv8mdfjyfSpapCDVr1tdRIb3uXjCn957pz4VKJCXihQuQONG/mB5vipZiQz2RouKixEYsIW2h/gor+ybHciK+TC6rPgfX0VTgvqtUF3nRqQyJgb18th4eKXTbxxXlhVgP5AVc2JUWUko0mjW1MH0f49iaMKontS4QQ3Zp9M3bah7p0/pj1t7KT52A+XIkY1unA2VPBWywoPp+/bto/z/DzgeHsPyv4fRyiv8ZgayYj6MLisbDi+nhPruZNV1bkQqY4J/125rYxf/7uwbB7ICGMiKOTHCmBW/pZMkz1pWsmbNQk+u/z1F7qnodVStSjl5fOdiJP15e590Fzu8x5fy5s1Fpw9tkDwVshLqv4xWr/JT/v8HHI+frw+FBy5XXuE3M5AV82F0WVkTvfD38QHdOquucyNSGeMDerRZuGviQ2ffOJAVwEBWzIlRW1YqVSht2c4yoslK9I5fqF7tqvRamZep7YdNqWCBfEplZfECTzp9+rTy/z/geLhb7tKFM5RX+M0MZMV8GF1W5u8c/2i8f/cPVNe5EamMcYFdq00PG/zI2TcOZAUwkBVzYlRZqVyxjGW7taxULF+aViwYK93DOF32tZeVysrgwYMwPbGLwhOkDB0ySHmF38xAVsyH0WVlWujgx+MCfqisus6NSGVMC/su16TAnv929o0DWQEMZMWcmE1WeJrjbQEL5PEGn6kytuX4gTWSViEr06a6Kf/fA/rBC0eqrvCbGciK+TC6rEwM7PnXnOB+2VTXuRFpCLfA3k8OX4lx6o0DWQEMZMWcmE1WvBePp+LFCkk3saEDOlKPLu2obu2qkqdCVlCuuTZ8fVVX+M0MZMV8GFlWDl05SG5BfR6prmsj0hgzwodF7j2/zak3j72yMs0Nv0C6Mh4J1xeyYj6wgn3agKy4NpCVtAFZMR9GlpU95yJpRsTwCNV1bUQaY3JwX7/AE2udevPYKyuDB6Fvt6vCfbuHJFxfyIr5gKykDciKawNZSRuQFfNhZFkJOL6aJgf181Zd10akMSb4/9Df7+Dcfznz5rFXVhZ5esrsKqq/fIDjOXXqFC2e4QlZMSGQlbQBWXFtICtpA7JiPowsK95Rs3+f4N+9t+q6NiKNMTGgW3OvbT87dUYwe2UlaMVyWuWH9QhcEV8fHwpZuQKyYkIgK2kDsuLaQFbSBmTFfBhZVuZsG/VgrP8PjVXXtRFpjMmbOhaaHNTnD2fePPbKytOYg9SrZ0/lXz7A8fRI+EL/41AMZMWEQFbSBmTFtYGspA3Iivkwsqy4BfX+l3vED/lU17URDgjP8KEnDl0+6LSbx15ZYcJ9vSlw61blX0DAcfhv3kyRvr523wOQFWPhTFkZ8WMnyzTDrgJkxbWBrKQNyIr5MKqsxF6OopmRw46prmMjHBRTQwZEhsdvcdoNlBJZYXznetHGDRuUfwmBtLN+3TpaNX9eiq4/ZMVYOFNWWr5dj3YGL7J7/3/d2a+8svUiICuuDWQlbUBWzIdRZSUsbjO5hwwMU13HRjgoJgR0/9Hv4FyndQVLqaww3gnCghYWcxOwZUuCqMxP8bWHrBgLPWRlwcyRVOrlYpQvX276uHUz+v3mXpowqiflypWDXivzMu0NX0onotZQw7felLVR3qpTjQ7v8ZXn8hoszZvUplFDu1Dtmq/LttkeQ6hM6ZKUJ08u2ff0oQ2y/cHlHXJ8XiiS/7IMRfrPl7zLcYHUqmUDWdflneb1KHrHL5AVkGIgK5CV9IZRZcU3yutPnkRKdR0b4aAYF9C13szI4Q+cdQPtHTYwxRVWJsLXh3r36kV+Pj4ySxhPf6v6iwkkDV+fkycTCgxvbxmjEulnf9cva/Yk3C8qCjrIim0cLSu3zodTzpzZKT52Az2+tkuEZPGcUZKntaz8dT+Kypd9Rbb/98FB+mXReCr9agn6z70okRWWGo+J/SV96WQAZc+eTeSGW1p6dv1MFoLk43X5ri0N6tNBjrdy4ThZzV6TlQb13iD38f3ofw+jactqT5EnPRaMhKy4NpAVyEp6w6iyMiNi6INx/j/UUl3HRjgwJgT0+N/JG8edcgNFdv6WHu3ekaqK6x+x0RSycrlMe8vrdPDCgvzlAIwFL+jJ12expyeFrlxh92D6Z3m0a0fC/fKdkoIOsmIbR8sKr0DPLSp+SyfRn7f3JcrTZCV2lw+VK1sqUd7rlV6j/ZHLRVYKFMgrksHb/333gAgQP753aRv169Gevvr8PUnzivd3LkZajvFyyaIiK+ePbaG8eXPRH7f2WvIqli9NAetmOrwyBllxbSArkJX0hhFl5fj1ozQxsMdfquvWCAeHZ/iQsF1nw51yE+0c0IvuBAWkqvIK0he3A/1p58DeSgo7yIpt9OgGttHXg+rWriotItw9i7tk8XZNVgLXz6K3m9ZJ9Jz3321IG3ymiqxUqVzWsp1bTQb3+5ZeKVVMjsnPY1nhVpIsWTInOgbns6zwOXLkyEbVqpRLxNY1npAVAFmBrIBkMKKs7DwTStPChoSorlsjHByTgnqNXhOz6E9n3ER7fh5G19auVl4RBsbn6ho/2jt2hJLCDrJiG0fLCo8jOXNkkzzmVo9v239Ivbt/kUhWuGWFu4FZP49lYl/EMpEVfqxtX7XMjWrVqEx3L/3dguK9eLzIyv89ihEZ0rYzLDQsK9wFrUK5VxMdn8fEcLc0R1fGICuuDWQFspLeMKKsrI6e/69JQT1HqK5bIxwc44K61+D+fc64iQ4s8KRL3vYtCAjSN5dWLqcDi2YoKewgK7ZxtKzE7PSmEsUL07H9q2WMCYtKp2/aSB7LSugmL2kt4W5gy+ePEelgIWHR4P2flRWvaUOpRbO6Mn6FW1MaN6hB7dq2kLyvv2hFwwZ2lC5j3O0sY8aMIiuc5mMsnDVSxsRwSw4P5H9yfbdLyUpUVJSM07EmR44c9Oabb9L69esddp4nT57Q48eP6enTp5ZtxYoVe+7cGmPHjpV93n33XUkvXrzY8rz4+HgqUqSIbJ85c6ZsO3fuHHXu3JnKlCmTIKDZ5e93330n+0JWzA1kxXwYUVamhw1+NC6wazU1NWqEruEW1PvRoSvRut9EMcGrKWbMSOUVYWB8okePoJjQtUoKO8iKbfToBjZycGeZhYsFgWfkuvZriGznQfPFixWiPWFLRWZ4EHzBAvmoXu2q0trC+zwrKywoLDnFihYSUWEp4WNs8psmY1n4+EWLFKQ+P3xJNd+sRAe2rZDnnT60gZo1ri3jX/h42wIW6FIZM4KsZMmShRo2bEgNGjSgPHnyyLbMmTNTTEyMQ87TrVs3OeayZcuek5Xq1avLua1ZsmSJTVm5desWVatWTbb17dtXtt2/f5+qVq0q2woVKkSNGjUS4eL0a6+9Rjdu3ICsmBjIivkwmqzw+ipuQX0eqKtNI3QN9+B+64NOrtP9Rjp59SiFtW+nvCIMjE/oF5/QyevOmfjhWSArtjHzCvbjRv4gXcf48ZX4IJnxS4+uXslhBFlhcdC23bt3T1pWePu4ceN0l5W9e/cm+TxrWeFWmY8++kjSrVu3ltYa3icsLEy2lStXjh49eiTb7t69S/Xq1ZPtPj4+kBUTA1kxH0aTlcATa8k9pP9qdbVphK4xMbB7W5+oOfedcTPtHjWErq9fq7wyDIwLj2vi8U2qCjzIim3MLCs8e1jrVo3pzeoVqX7d6rQ9cKHTX4PRZIXhVgve3qtXL0lz60T37t2le1W+fPmk9SMkJMSyP8tBz549qWTJkpQzZ05pLVm6dGmiY2lMnjw5VbIyZMgQecwidfv2bcs+fn5+sr1ixYr08OHDRO+N5Sg2NhayYmIgK+bDaLLifWDW3TFbu7ZWVplG6BtEGTJOCPjh/5xxMx3c4k1xszyVV4iBcTk5azod9PdRVuBBVmxjZlkxAkaTlQcPHlCNGjVk+5QpU2Qbdw/jNHfB+uSTT6SLGI/v2b59u+T3799f8mvWrCljRbQxJcHBwRQdHU0tW7a0dN06fvx4Ilnh5zRt2jQRV69eTSQr2l8WJR6fYv0ezp49a+n2Vbx4cerQoQN5enrKe1MpKZAVxwBZMR9GkpWTN04Q12NV1aMRTgr3kP4RYXGbnXJTRXb6lh7v3qm8UgyMx6Od22lbl45KCz3Iim3O7h2qvEJjZowgK1mzZhVJaNKkCeXPn98y0P7MmTMUGBhoGf+htVx4eXnJtlatWkmaW1o4PXv2bJGdoKAgEZOtW7dKfnLdwGxx4cKFRLJizapVq557H9wVrH79+vTSSy8l2rd27dryHiAr5uXs3iHKyziQMowkK6GnNtHUkP5BTq46I5wd4/27f7Z4t5tTZgWL9felQ+NGK68YA+MRO+YniglapbTQg6zYJi70G/rfg/3KKzVmxQiyYg0PtueuVtwqwvtMnTpVtnM3L+153PLB21555RVJjx8/3vJ8HqDftm1bWrt2rWX/tI5Z4RaVn3/+WR4XLFgwSQG5du0a+fv707BhwyytO19//bVaWWnzNfmPGANSwZZho2jZN61o2eAJwESMa9Dhb1lJeKz6+2nhrkkPx/t3+1hJBRrh3JgQ8MP/uCnNGTfWjr496G5okPLKMTAOd4IDZOFQ1YXehIbfSAEMgEOp/ZFyWXl2zIo17u7uicavMCdPnpRtJUqUsGzjFhiePti6xUTrRpZWWeFuXZxm8eA0twJpA+y5K5qHhwdFREQkeq63t7dltjGlspJwfZXfYwAoQLWsnLh+DKvWp6eYGjJoUXj8VqfcXIcPhlLU6OHKK8jAOESNGk5HYiKUywqwTfy2HvTvWxHKWyjMihFaVpKTlYCAANmnbNmyltm2eJA8b+OxKNzta/jw4bI2Cs/YxUyfPl3y33vvvUSyok1JnFJZ0aYuvn79OpUqVSrRTGUrVqywjKe5efOm5bnz58+X7W3atFErK2hZSTWbBg+l5R3bKG8pAKkjbNN6pd9NYXFbyCN04HxVdWeEk2Oif7cWXttHO2VWMCZ2szcdmjhGeSUZqCd2/GiK3eqrvEIOkubXfaPozxshyiv9ZsXossLy8dZbb1lm4vr888+lq5gsoBkZKftw6wXn85gXfj+VKlWS9MSJEyV/zJgxkuaB+tqg/OQG2A8YMMCmrDDcgsPn5kH+O3fupDt37ljWWeGxN7zOSvny5SWdKVMmS3c2ZbKCMSup5o/rQfTr/lHKyzhgTmZvG3VvXFCPpsoqzwjnx+TgPreif9vntJtsv9dUipszQ3llGajj1KzpdGDeNOUFHkie0/t/pscXVyuv2JgVo8sKw2NBunbtSq+++irlzZtXpMNaAuLi4uiLL76Q2biyZctGpUuXphEjRsiq9Vo+i0yuXLlozpw5iWTFFi1atEhSVpg+ffpYBv1zawoPyO/du7dICq9gz93TuFWHB96rFBXIStp4dMGPTh8Yq7yMA+bj4KW9lFBvvaas0oxQE5MCe/20JmbB78682WJ8FlLcbExnnB5hUYn1W6K8wAMvJu7QLLpzap7yio1ZUSkrALJiZG6f9KK4w3OUl3HAfKw6OO+PSQE9h6muOyOcHJM3dSw0OajPH86+4aLmetDhCegSlp7gGeGi0KJiHk750pXYicorNmYFsuLaQFZSz5WY8Qnli9pZIIE5mRTU60/3iB/yqa47IxSER+jAXyJPBzj9povd9Asd/HkE3Q0JVF6RBvrBs34d/GkYxW5Rt/AjSAXnQuj83iHKKzZmBbLi2kBWUs+5PT/SqfNh6ss4YCoi4rfS1OABy1XXmRGKYpx/t/qzIkc6Zc2VZzlyMJR29utJh8aOoke7diivWAPHwQs+8joqO/v3oiMx4coLOpBCbhynuOD2yis2ZgWy4tpAVlIPVq8HqWFG5PD744J61FFdZ0YojCnB/U7sPqtuGtnYAD+K7PIdnZg9na6tW628og1Sz7W1q+U6RnbpSLGBaOo3M6d3D6bfr2xWXrkxI5AV1waykjqeXt5Ep/cMVV62AXOx82wYTQnpd1h1XRmhOCYG/PDJwl0T76m+IaO3+tDuMcMo9MtPKfrnEXTxl2V0dY0f3QnyR8uLweDrcTvQX67PpZXLKXr0CAr94hO5fgf90eXLFYg7PJdunZitvIJjRiArrg1kJXXcPD6T4o7MV162AXOxYOeE+xP9u3+kuq6MMEBMDup78+Al501jnBwnrx2jmNC1tH/RDNo7dgTtGtCbIjt/S3uHDaTQzz8BiuHrwNdj18Decn0OJFwnvl4nrx9Xfu8AB3I2iC7sG6q8gmNGICuuDWQldZzbM1jGwykv24BpiLq0hyYH972uuo6MMEhMDOzRdcW+6Y9U35gAAOMQH9aR/ntvj/JKjtmArLg2kJWU89fdXRQf3kl5mQbMxfJ90x67BfToqLqOjDBQuAX1uRP9237lNycAwBjExUynu/ELlVd0zAZkxbWBrKScO3HzKS52hvIyDZgHXgRySnCfW6rrxgiDBdtrgsWidQUA8DcXIujszn7KKzpmA7Li2kBWUs6ZnX3o1MVt6ss0YBqW7HF/MCmox9eq68YIAwb3DWSbVX2TAgCMwem9w+lfN0KVV3bMBGTFtYGspIw/rwcnlCMjlZdlwDwcuLibJof0vay6TowwaIwL7N7WN2rOTdU3KgDAIJzyocsxWM0+JUBWXBvISsq4LKvW+6kvy4Bp8I6ac2v81q6tVdeJEQYO95D+p1SuuwIAMBbxEV3oP3d3Kq/0mAXIimsDWbGf/9zZTvGRXZWXYcA88LoqU0P6H1ddF0YYPMYFda8xI3woxq4AAP7m/7V3p89RnHcCx9+ksnmXbO2+TCVbu2/ywpXdSqVSebFH3m7l2KNq8ya7CUEHGo0Eo9PY2PFIzKVbtiscCREChEAGQ5iZ7rkEOkYzEkjIrI4ZGQkhAUIOl04OI8Oz0+OtTaWMF7CFfz2j77fqU/oDpp+nf63p6R5tUXPDbvHBJ1NwsZLduFh5dlfPO1P7R6v8HoaM0RAqX7b7c16SnoUpA6oL2t71j3Y8kj5oAZjDxdh2tXanT3z4yQRcrGQ3LlaezdqtaGrf4LcqeHa+0SOPaoK2DukZmDIke9emr7gDxSvSBy4Ak0h2qJmB18UHoEzAxUp242Ll2cz071DjE8fk9y5kDLdetGrv+sGXpGdgyqA8QVvlof43uWABkJbs265WZo+JD0Fmx8VKduNi5emWZzrUROxV8T0LmeNgf/OKJ2ArlZ59KQPz6FsvRqc6xQ9iACYwG1Pvn2ZQe5q6Wqf4QI0Xp67GKX6Mmd1EZ64av9Ivv2chIxgPdfIEtiWlZ17K0Hbq+X9TFyrh2xUAaYmR36m54RrxYcjMyspK1Pz8vPhQjfV3/fp1VVFeIn6Mmdm1YbdKjO4X36uQOWoC2+46tJxvSs+8lMHVBG0Nx4b3PZA+mAGYw0T8dbU03S4+FJnVb3c3qEQiIT5YY/2Nj4+rfXsaxI8xs1q81KYm+t8Q36OQOY4O7r1XF7Z5pGddyoJqg6VjA5ej4gc1AHNIhn6uPuLpYE8U8rao9vbD4oM11l9b2yEV8e8XP8bMaO12r0qGN4nvTcgc/Zd7VH2olHeq0PpkDxT8VU1g27L0gQ3AJGZ61VRfufiAZEZrd84qi6VAfLDG+tuyJV89WhwUP8bMaCpapsZn++T3JmQMT2Drql3P/br0jEtZlEu32g70N/OySABpiSk9NaBw//6TnAkcVJr/lPhwjfXj855U3aE28WPLjKZ6t6nEpaD4noTM0RpvXPYErVbp2ZaysJrAtr7TE/6H0gc5AHNIJN9Rl+PbxYclM2o/+LY68e5x8SEbn9/xY++ojrZfix9TZjQdq1SJiePiexEyR2fS+9AT3NYjPdNSFlcbLLk8Nj8qfrADMIfkTJeajr8sPjSZ0eHWt5Xfxzcsmczn/b06emiX+LFkRsaFSnK2W3wPQuYYmbug6kKl09KzLGV5di3v7xrC5belD3gA5mF8w3Kp1yY+PJlRV/CQKiy0qMOHD6WfEmY8/lZ6AMenMz6fsbExdbjtYPo3Ktz69WTpW7/4RgXPqT5UtmD357wkPcvSBsi4z7A13nBH+qAHYB7Gb1gu9VWoj25HxQcps3m0eE5F/C3px94a7+kwXhxpvAkd5lKf+lyMz8f4nDr9+/kx/RMYT/2a6ivjNyp4bi2x+gW3VlQgPcPSBqomuO1d38jRu9IHPwDzSMxG04815j0sQPZZnG5LP544MRsT32uQWXwjR+7WBG0d0rMrbcDqQ6Wx2DT3qwL4U8aLI68Ne8SHKwDrw3gz/UScFz7i+cUunVH14bKo9MxKGziHVnD/wtyw+GIAYC6J0RaVjOSoldl3xActAJ/N8kyHmujMTa3n/eJ7CjLPe9eGlMNvuSs9q9IGz+7L/0unVsjtYAA+6Uq/SvZtVzMDr6k1fssCZIy1W9HUut2hJmKvptex+F6CjOT0F96zn9z0NelZlSh1wZLzvcZw5Q3pRQHApJLH1GRsu5o771IPb3aJD2IAnuzhzTOpdepUk/FX1DhP+8Ln0BiuuGX35n9HekYl+r9cActP9kadH0gvDgDmlRhrVRORzerqYJW6Px8UH8wAfOz+9UBqXdrVRGdOap0eEN8rkNl291TPOYOWH0rPpkSfyK0Xb/5tr/uW9CIBYG6JxGH1frRSTXZb1a3k7vTjUKWHNWCjWbvVo24mdqmLXVb1fmx7al22i+8NyHx7e1233Hrhz6RnUqJPrSZos+2PN/DSSABPd/m0Sgw1qmT4F2qyt1T9YaRJrV49IT7EAdlq9coJ9UFqnU1Fyz5+DPH5pvQ6FN8LkBVaYnV36iIlRdKzKNFTe+vMq5v39dWsSC8aABlkUlfj7+1SE9EKldB/qqZ6S9K3pdwcf1stTR9W965r6sEHYfXwZrf66E5cfOgDzMZYF8b6MNaJsV6MdWOsH2MdXYqWpteVsb6MdTY+FZBf88gqxtz3ZteOX0jPoETP3JtnXs3fH2tYkF48ADLQ/GhqmAqp8fF2lRh+SyXjv1ITsR0qeaZAJSObVSL4n2qy7+OLGgCpi/tYRXpdGOvDWCfvx19Tyf430uvHWEfjl0Ly6xpZqyVev/h292u/lJ49iZ67hnB56b4+D7eEAQAAZKHf9LoW6kLlW6VnTqLPXH24LJcLFgAAgOyyp8dxqzZcukl61iT63NVFSn7a1Pkyt4QBAABkgabIy0s1ftu/S8+YROuWQ7d836Vb71+YGxZfYAAAAHh+710bUk6t8IFD2/Jd6dmSaN1znfj5Xzi0gvvx6e7H0osNAAAAzy52qeuxU7Os2k9u+pr0TEn0QmuMlMf9o0c/lF50AAAAeDr/yJGHDeHyPukZkugLqzZUerI13rgsvfgAAADw6VpjDSt1wZLj0rMj0RdebaikpDFSuTo2PyK+EAEAAPBHI3MXVGO48m5tyFYsPTMSiVXt2/K3DZGK+c4Jn/iiBAAAwJiKJL2qMTWf2f05L0nPikSmqC5UMnCwv3lVenECAABsZAf6m1ZrQ6X90rMhkenyBGylnsDWlf7LveILFQAAYCPpn+5RqTlstUa32aRnQiLT9oY3/xu1QdtQx9DeFelFCwAAsBEcHdqzYsxfdj3369KzIFFG5NaKXDVB22J0qpN3sgAAALwAvVORx57AtmWXVrxTevYjyrjs/s1/7daLxg7EmxekFzMAAEA2ORBvWnDrxSMOLeeb0jMfUUZX7c0rdOrWFf/o0QfSCxsAACCT+UaOPHDp1uVqX16B9IxHlDXZ3/mPL3v0oiP1ofI7PZNhbg0DAAB4Dj2TwUf1odLb7kBxm73rB1+Snu2IsjL7qdxvu7WiCwcHmq8NXI6KL3wAAAAzM56y2trfdMWlW4d4bwrRF9Svfp/zY5dedHVftGbx3GxMfCMAAAAwk7MzfWpf1L2UmpeuVPlzfig9uxFtyBxawX+5devN1njDPWNRSm8MAAAAkgZmomp/vP6eWy+64fAV/kx6ViOiVLW6Ld+jb725p9d5r2cyLL5RAAAAfJG6J0NqT4/jniew9YYxF0nPZkT0hFy65V9rgrZEc+crS5GkV3zjAAAAeJEiyVOqqXP7cm2wZNzlt/xEehYjomfI7sv5Xn2oos2pFd5vH9y1yi1iAAAgWxhzTfvgr1dTc86DunD5Ibu25bvSsxcRfYbcfsufO7SC7S7dOtfc+cofQomTD0bnR8Q3GQAAgOcxev2/VTBx4kNjnnFp1msOX0GlJ5L/VelZi4jWqWpv3j+5dEvTTl/+R7t7dt5IXbjwvhYAAGBaY/OjxgXK493d1TerfVvWHJq1wa5t+UfpmYqIXnBVvrx/c2lWX7UvX7X2N36gjXaooStnxTclAACwsQ1dGVD+1FxizCfVvrzHLr3oVJU391+kZyciEsruzfuRJ1B0xKkVLjaGK5Y6BvesGU/UGLl+QXzDAgAA2c2YN7ovBtXRwd1rDaHyZadmXfDoWw/zbhQi+kT2U7nfduqFrzdGKjp3+gvWUn8XDg28tRxKnEz/p0N6QwMAAJnNmCeMuSI1Xyw1hCvvfDxvvBxx+gt38IZ5Inqu7N7871R787c6/dZTtcGSs06/5d6bp1+5cWCgedE3clRFp06r81fPiW98AADAXM5fPZueE3wjR9SBePNCc2p+MOaI2lBJv1OznKzy5hUbc4b0rENEWZTx1I1qf+4/VPnyrU6tcH99qEx3aIVLDq3gYX2odGl3T9VSx9BvPjw+3KK8I+3p/5x0XQyo2HSXOjcTT/83ZfjaoLowN5x+qof0RgoAAP5/xvnaOG8PXx1Mn8fPzcbS53Xj/G6c543zvXHe7xja+2BXd9WSMQ8Y35YYt5fXhcs1p7/wd9XevMI3vPl/z9O7iEgke9emr9h9+d+q8ub9c5Uv95dOzepyaUUtbq3Yn/o74NSKLrr1oosOzXLbqVmWU5vY/Z3+LWsN4cpp40f+AADAfBrDlZeN87Vx3nb4LcvGedytF08Y53Xj/P6/5/kW47xvnP+NOcCYB97Si/9MejYhIiIiIiIiIiIiIiIiIiIiIiIiIiIiIiIiIiIiIiIiIiIiIiIiIiIiIiIiIiIiIiIiIiIiIiIiIiIyRf8DvC9FNp6YUnEAAAAASUVORK5CYII=;" vertex="1" parent="1">
          <mxGeometry x="1410" y="70" width="937.8" height="1083.5" as="geometry" />
        </mxCell>
        <mxCell id="P84ciIu8G83or5CPyGop-7" value="&lt;b&gt;&lt;font color=&quot;#007fff&quot; style=&quot;font-size: 120px;&quot;&gt;Arena&lt;/font&gt;&lt;/b&gt;" style="text;html=1;strokeColor=none;fillColor=none;align=center;verticalAlign=middle;whiteSpace=wrap;rounded=0;" vertex="1" parent="1">
          <mxGeometry x="705.5" y="150" width="60" height="30" as="geometry" />
        </mxCell>
        <mxCell id="L3lj_wClFnJjA9AVwsPd-49" value="" style="group" parent="1" vertex="1" connectable="0">
          <mxGeometry x="1023.23" y="300" width="1306.77" height="233" as="geometry" />
        </mxCell>
        <mxCell id="L3lj_wClFnJjA9AVwsPd-16" value="" style="verticalLabelPosition=bottom;html=1;verticalAlign=top;strokeWidth=1;align=center;outlineConnect=0;dashed=0;outlineConnect=0;shape=mxgraph.aws3d.worker;fillColor=#ECECEC;strokeColor=#5E5E5E;aspect=fixed;" parent="L3lj_wClFnJjA9AVwsPd-49" vertex="1">
          <mxGeometry width="74" height="50" as="geometry" />
        </mxCell>
        <mxCell id="L3lj_wClFnJjA9AVwsPd-17" value="" style="verticalLabelPosition=bottom;html=1;verticalAlign=top;strokeWidth=1;align=center;outlineConnect=0;dashed=0;outlineConnect=0;shape=mxgraph.aws3d.worker;fillColor=#ECECEC;strokeColor=#5E5E5E;aspect=fixed;" parent="L3lj_wClFnJjA9AVwsPd-49" vertex="1">
          <mxGeometry x="152.76999999999998" y="100" width="74" height="50" as="geometry" />
        </mxCell>
        <mxCell id="L3lj_wClFnJjA9AVwsPd-18" value="" style="verticalLabelPosition=bottom;html=1;verticalAlign=top;strokeWidth=1;align=center;outlineConnect=0;dashed=0;outlineConnect=0;shape=mxgraph.aws3d.worker;fillColor=#ECECEC;strokeColor=#5E5E5E;aspect=fixed;" parent="L3lj_wClFnJjA9AVwsPd-49" vertex="1">
          <mxGeometry x="296.77" y="183" width="74" height="50" as="geometry" />
        </mxCell>
        <mxCell id="L3lj_wClFnJjA9AVwsPd-71" value="&lt;b&gt;Challenge based Workers&lt;/b&gt;" style="text;strokeColor=none;fillColor=none;align=left;verticalAlign=middle;spacingLeft=4;spacingRight=4;overflow=hidden;points=[[0,0.5],[1,0.5]];portConstraint=eastwest;rotatable=0;whiteSpace=wrap;html=1;" parent="L3lj_wClFnJjA9AVwsPd-49" vertex="1">
          <mxGeometry x="131" y="130" width="162.77" height="60" as="geometry" />
        </mxCell>
        <mxCell id="P84ciIu8G83or5CPyGop-5" value="" style="shape=callout;whiteSpace=wrap;html=1;perimeter=calloutPerimeter;direction=south;position2=0.95;rounded=1;fillColor=none;base=30;size=60;position=0.83;" vertex="1" parent="1">
          <mxGeometry x="1303.23" y="66" width="1026.77" height="364" as="geometry" />
        </mxCell>
      </root>
    </mxGraphModel>
  </diagram>
</mxfile>
